<svg xmlns="http://www.w3.org/2000/svg" viewBox="0 0 880.4 886.9"><path fill="#e2e3e4" d="M880 366v69l-88-57v-69Zm-5 22v-3l-8-5v3Zm0-14v-5l-78-50v5Zm-2 33v-2l-21-14v3Zm0-14v-2l-15-10v2Zm-4 5v-3l-10-6v3Zm-6-18v-2l-26-17v2Zm-7 9v-2l-23-15v2Zm-2-8v-2l-6-4v2Zm-6 10v-2l-15-10v2Zm-4-16v-2l-5-4v2Zm-9-6v-3l-25-15v2Zm-2-8v-3l-9-6v2Zm-2 19v-2l-9-6v2Zm-2-8v-2l-9-6v2Zm-9-19v-2l-23-15v2Zm-1 20v-3l-21-13v2Zm-7 4v-3l-17-11v3Zm-8-23v-2l-12-7v2Z"/><path fill="#f7fcfe" d="M875 385v3l-8-5v-3l8 5zm0-16v5l-78-50v-5l78 50zm-2 36v2l-21-13v-3l21 14zm0-14v2l-15-10v-2l15 10zm-4 4v3l-10-6v-3l10 6zm-6-17v2l-26-17v-2l26 17zm-7 9v2l-23-14v-3l23 15zm-2-8v2l-6-4v-2l6 4z"/><path fill="#f1fafe" d="M377 665c-2 4-1 5-1 7a10 10 0 0 1 1 3 12 12 0 0 1-1 2 4 4 0 0 0 0 2 4 4 0 0 0 1 1h1l-1 5a12 12 0 0 0 0 1l3 3a3 3 0 0 0 1 0l2 1a13 13 0 0 0 3 0l3-1a3 3 0 0 1 2 0 7 7 0 0 1 2 2 15 15 0 0 1 2 5l-2 1a7 7 0 0 1-2 0 7 7 0 0 1-2 0h-2l-3 2a12 12 0 0 0-2 3 4 4 0 0 0-1 2 2 2 0 0 0 0 1 1 1 0 0 0 1 0 2 2 0 0 0 2 2 6 6 0 0 0 2 0 4 4 0 0 1 1 0h1l1 1 2-1a7 7 0 0 1 4 0 8 8 0 0 1 1 0l1 4a4 4 0 0 1-1 2 4 4 0 0 1-1 1 4 4 0 0 1-2 0 5 5 0 0 0 2 0 2 2 0 0 0 1 0l1-1v2a18 18 0 0 0 1 3l1 3a21 21 0 0 1 0 3 13 13 0 0 1 0 2 10 10 0 0 0 0 1 9 9 0 0 0 1 2 2 2 0 0 1 0 1 7 7 0 0 1-1 1l-1 2a8 8 0 0 1-1 1 2 2 0 0 1-1 0l-1 1a5 5 0 0 0-2 0 2 2 0 0 0 0 1 3 3 0 0 0-1 0 6 6 0 0 0 0 2 5 5 0 0 0 0 1v1a2 2 0 0 1 1 0 6 6 0 0 1 1 1 3 3 0 0 0 1 0h3a2 2 0 0 1 1 0 9 9 0 0 1 1 0 1 1 0 0 0 1 0 6 6 0 0 0 1 0 2 2 0 0 0 1-1 2 2 0 0 0 0-1 4 4 0 0 1 1-1 4 4 0 0 1 1-1h2l1-1a19 19 0 0 0 1-3 11 11 0 0 0 0-2 27 27 0 0 1 1-4 26 26 0 0 1 1-4l2-2 1-5 3 1 4 5a6 6 0 0 1 0 3 7 7 0 0 1 0 1c0 1 0 1 0 0a5 5 0 0 0 2-1 4 4 0 0 0 0-2 7 7 0 0 0 0-2l-1-1a14 14 0 0 0-1-3h9l5-1h2a21 21 0 0 0 0 3 3 3 0 0 1 0 1 12 12 0 0 1-2 2 1 1 0 0 0 0 1 2 2 0 0 1-1 1 2 2 0 0 1-1 0l-2 1a14 14 0 0 0-2 0 7 7 0 0 0-1 1 5 5 0 0 0-2 1 6 6 0 0 0 0 2v1a3 3 0 0 0 3 1h2a6 6 0 0 0 1 0 6 6 0 0 0 1-1h1a5 5 0 0 1 1 1 2 2 0 0 0 1 0 7 7 0 0 0 2-1 5 5 0 0 0 2-1l2-2 2-1a3 3 0 0 0 1-1 13 13 0 0 0 0-1 6 6 0 0 1 1-2 2 2 0 0 1 2 0s0 1-1 2l3-3a6 6 0 0 1 0-2 6 6 0 0 0 2-3 29 29 0 0 1 1-7l1-1a14 14 0 0 0 1 2l3 3a11 11 0 0 1 1 3l1 3a13 13 0 0 1 1 8 5 5 0 0 0 0 1l-1 2a2 2 0 0 1-1 1l-2 1v1l-1 1a5 5 0 0 1 0 1 1 1 0 0 0 0 1 2 2 0 0 0 1 1 1 1 0 0 0 0 1 1 1 0 0 0 1 1 3 3 0 0 0 3-1v1a2 2 0 0 0 1 1 2 2 0 0 0 1 0 5 5 0 0 0 2-2 2 2 0 0 0 0 1 1 1 0 0 0 1 0 2 2 0 0 0 1-1 32 32 0 0 1 1-3 9 9 0 0 0 2-2 34 34 0 0 0 2-3 3 3 0 0 0 0-1 2 2 0 0 0 0-1v-1a4 4 0 0 1 0-1 6 6 0 0 1 0-2 10 10 0 0 1 1-2 5 5 0 0 0 1-1 4 4 0 0 0 0-2 17 17 0 0 0-1-2 14 14 0 0 0 0-1 9 9 0 0 1-1-1l1-1a11 11 0 0 0 3 1 8 8 0 0 1-2-2l-2-6 3 3a10 10 0 0 1-1-2 6 6 0 0 1-1-3 30 30 0 0 1 0-5 22 22 0 0 1 1-5 9 9 0 0 0 1-5l-2-10v-4a16 16 0 0 1 2-2l1-2a11 11 0 0 1 0-1 10 10 0 0 0 1-2 11 11 0 0 0 1-1 3 3 0 0 0 0-2v-1a2 2 0 0 1 0-1 7 7 0 0 1 1 0 4 4 0 0 0 1-2 9 9 0 0 0 0-3 10 10 0 0 0 0-2 18 18 0 0 0-3-6l-1 2a55 55 0 0 1-4 6 9 9 0 0 1-2 2 3 3 0 0 0-2 1 17 17 0 0 1 0 2 8 8 0 0 1-2 2l-3 2-2 2a7 7 0 0 1-1 1 5 5 0 0 1-2 0 6 6 0 0 1-2 0 3 3 0 0 0-1-1l-2 1h-9l-2 1h-4l-4 1h-2a9 9 0 0 1-2 0 7 7 0 0 1-1 0 4 4 0 0 1-1-1 3 3 0 0 1 1 0 5 5 0 0 0 1 0 2 2 0 0 0 1 0 18 18 0 0 1-4-1 31 31 0 0 1-5-1 28 28 0 0 1-4-1 20 20 0 0 1-5-3l-6-6a12 12 0 0 0-4-2l-4-1a39 39 0 0 0-9-1 13 13 0 0 0-7 2 15 15 0 0 0-4 5 16 16 0 0 0-2 2Zm473 4L426 886 49 642l53-27 8 30a17 17 0 0 0 5 5c7 4 16 5 24 5 7-1 17-3 22-10l19-70 1-1 67-34 4 11a83 83 0 0 1 1 14 27 27 0 0 0 0 6 18 18 0 0 0 2 4 7 7 0 0 0 0 1l3 10a5 5 0 0 1 0 2v4a14 14 0 0 0 1 3l1 5v14a53 53 0 0 1-1 6 21 21 0 0 0 0 3l1 2a13 13 0 0 1 0 2 4 4 0 0 1-1 2 4 4 0 0 0 0 1 7 7 0 0 1 0 2 7 7 0 0 1-1 2 8 8 0 0 0-1 1 9 9 0 0 0-1 2 7 7 0 0 1 0 1 2 2 0 0 1-1 1 17 17 0 0 0-2 2 3 3 0 0 0-1 2 8 8 0 0 1 0 2l-2 4a67 67 0 0 0-4 9l-3 10-2 8-1 8-2 9-2 7-1 5-1 5a9 9 0 0 0 0 2c-3 6-3 9-3 10v4l-1 1v1l15 4 1-2 4 2a27 27 0 0 0 6 2 46 46 0 0 0 6 0 41 41 0 0 0 4 0 31 31 0 0 0 5-1h2l-1 1a12 12 0 0 0 0 3c3 2 6 2 10 3a49 49 0 0 0 8 0v-2a52 52 0 0 1 7 0c3 2 5 2 9 2s9-1 13-4a2 2 0 0 0 1 0 3 3 0 0 0 1-2 7 7 0 0 0 0-2 2 2 0 0 0-1-1 4 4 0 0 0-1-1 4 4 0 0 0-1 0 17 17 0 0 0-3-1l-3 1a18 18 0 0 1-2-1 16 16 0 0 1-2 0h-1l-12-9a2 2 0 0 0 1 0 4 4 0 0 0 0-2v-1a37 37 0 0 1-1-4 10 10 0 0 1 0-3l1-3a7 7 0 0 0 0-3l-1-3a7 7 0 0 1 0-4l2-9 3-14 1-9v-4a18 18 0 0 1 0-2l1-4 1-4h1a6 6 0 0 1 0-2 22 22 0 0 0 3-4 8 8 0 0 0 0-3 25 25 0 0 1 1-3 17 17 0 0 0 0-3 24 24 0 0 1 0-3l1-6v-8l2-10 1-16a77 77 0 0 0 0-9l-1-7h1a3 3 0 0 0 1-2v-4l-1-9a42 42 0 0 1 0-6 29 29 0 0 0 0-5l-1-12h6a28 28 0 0 0 5-1l3-1a16 16 0 0 1 3-1h8l3-1a14 14 0 0 0 1-3l7 1a6 6 0 0 0 2 0 5 5 0 0 1 1 0 13 13 0 0 0 2 0 3 3 0 0 0 1 0 2 2 0 0 0 1-1 2 2 0 0 0 0-1 2 2 0 0 0 1 0 3 3 0 0 0 0-1 1 1 0 0 0 1-1 2 2 0 0 0 1 0 3 3 0 0 0 1-2 1 1 0 0 0 0-1h-1l1-1a17 17 0 0 0 2 2 4 4 0 0 0 3 1h1l1 3h13l2-3 2-9a17 17 0 0 0-2 0 61 61 0 0 0-8 0h-9a17 17 0 0 0-2 0s0 1 0 1a5 5 0 0 0-1 0 1 1 0 0 0 0-1 1 1 0 0 0-1 0 3 3 0 0 0-1 0 11 11 0 0 1-2 1 19 19 0 0 1-3-1h-26l-6 1-13 1-2-11 166-86 23 15h-1a74 74 0 0 0-10 4l-24 12-35 18-20 11c-8 4-16 12-17 22a20 20 0 0 0 4 13c4 5 9 8 14 12l52 33 51 33 16 10 4 3a72 72 0 0 0 11 4 95 95 0 0 0 48 0 74 74 0 0 0 9-3l4-2 22-12 55-28a49 49 0 0 0 9-6v1l42 28a66 66 0 0 0-9 4l-52 27-18 9-3 1a46 46 0 0 0-4 3 33 33 0 0 0-8 8c-4 6-5 12-3 18 3 8 9 13 16 17 5 4 11 8 18 11a77 77 0 0 0 14 4c18 4 40 3 57-6l52-27 18-9 3-2a48 48 0 0 0 5-3Z"/><path fill="#f7fcfe" d="M848 389v2l-15-10v-2l15 10zm-4-16v2l-5-4v-2l5 4zm-9-7v3l-25-16v-2l25 15zm-2-8v3l-9-6v-3l9 6zm-2 20v2l-9-6v-2l9 6zm-2-8v2l-9-6v-2l9 6z"/><path fill="#f1fafe" d="M806 627a4 4 0 0 0 0-1 8 8 0 0 0-4-7l-33-21a1 1 0 0 0-1 0c-4-3-11-3-15-1l-94 48c-2 2-5 4-5 7v1a4 4 0 0 0 1 1c0 2 1 4 3 5l33 22c5 3 12 3 16 0l77-39 17-9a8 8 0 0 0 5-6Zm19-6c2 7 1 13-3 18a33 33 0 0 1-7 8 48 48 0 0 1-5 3l-3 2-18 9-52 27c-17 9-39 10-57 6a77 77 0 0 1-14-4c-7-3-13-7-18-11-7-4-13-9-16-17-2-6-1-12 3-18a33 33 0 0 1 8-8 46 46 0 0 1 4-3l3-1 18-9 52-27a66 66 0 0 1 9-4c15-5 33-6 49-3a75 75 0 0 1 15 5l14 9c7 5 15 9 18 18Z"/><path fill="#ededee" d="M825 425v115l-147-95v-76l95 61v-27l47 31v-5l-47-30v-8Zm-7 103v-35l-132-86v35Zm0-42v-37l-23-15v37Z"/><path fill="#f7fcfe" d="M820 351v2l-23-15v-2l23 15zm-1 78v5l-46-31v-4l46 30zm0-59v3l-21-14v-2l21 13z"/><path fill="#f1fafe" d="M818 493v35l-132-86v-35l132 86zm0-44v37l-23-15v-37l23 15z"/><path fill="#f7fcfe" d="M812 374v3l-17-11v-3l17 11z"/><path fill="#616264" d="M802 631a6 6 0 0 0-3-5c3-1 4-4 1-7a2 2 0 0 1 2 0 8 8 0 0 1 4 7 4 4 0 0 1-1 1c0 2-2 4-4 5Z"/><path fill="#f7fcfe" d="M804 352v2l-12-7v-2l12 7z"/><path fill="#616264" d="m802 631-17 8a1 1 0 0 0-2 0l-9 5-1 2-65 33a6 6 0 0 0-3-4l94-49a6 6 0 0 1 3 5Zm-17 9 17-8-1 1-17 9h-1a2 2 0 0 0 2-2Z"/><path fill="#f1fafe" d="M800 619c3 3 2 6-1 7l-94 49c-3 1-8 1-12-1l-33-21c-3-2-2-6 1-7l94-48c3-2 8-2 12 0Zm-18-5v-1l-7-4a1 1 0 0 0-1 0l7 5a1 1 0 0 0 1 0Z"/><path fill="#616264" d="M783 640h1a2 2 0 0 1-1 2l-9 4h-1a2 2 0 0 1 1-2Z"/><path fill="#616264" d="M783 642h1l-77 39 1-1 65-34 1 1Z"/><path fill="#ededee" d="M773 403v27l-95-61v-39l95 61v8l-89-58v5l89 57z"/><path fill="#f7fcfe" d="M773 399v4l-89-57v-5l89 58z"/><path fill="#ededee" d="M773 271v120l-95-61v39l-82-53v-88l-26-17v-72Zm-6 8v-4L576 151v5Zm-27 18a10 10 0 0 0-2-6c-3-3-5-2-5 1a10 10 0 0 0 3 6c2 2 4 2 4-1Zm0 23a10 10 0 0 0-2-6c-3-2-5-2-5 1a10 10 0 0 0 3 6c2 3 4 2 4-1Zm0 23a10 10 0 0 0-2-6c-3-2-5-2-5 1a10 10 0 0 0 3 7c2 2 4 1 4-2Zm-19-58a10 10 0 0 0-2-7c-3-2-5-2-5 2a10 10 0 0 0 3 6c2 2 4 2 4-1Zm0 23a10 10 0 0 0-2-6c-3-3-5-2-5 1a10 10 0 0 0 3 6c2 2 4 2 4-1Zm0 23a10 10 0 0 0-2-6c-3-2-5-2-5 1a10 10 0 0 0 3 6c2 2 4 2 4-1Zm-56-37a10 10 0 0 0-3-6c-2-2-5-2-5 1a10 10 0 0 0 3 7c2 2 5 2 5-2Zm0 23a10 10 0 0 0-3-6c-2-2-5-2-5 2a10 10 0 0 0 3 6c2 2 5 2 5-2Zm0 24a10 10 0 0 0-3-7c-2-2-5-2-5 2a10 10 0 0 0 3 6c2 2 5 2 5-1Zm-19-128a10 10 0 0 0-3-7c-2-2-5-2-5 2a10 10 0 0 0 3 6c2 2 5 2 5-1Zm0 23a10 10 0 0 0-3-6c-2-3-5-2-5 1a10 10 0 0 0 3 6c2 2 5 2 5-1Zm0 23a10 10 0 0 0-3-6c-2-2-5-2-5 1a10 10 0 0 0 3 6c2 2 5 2 5-1Zm0 23a10 10 0 0 0-3-6c-2-2-5-2-5 1a10 10 0 0 0 3 6c2 3 5 2 5-1Zm0 23a10 10 0 0 0-3-6c-2-2-5-2-5 1a10 10 0 0 0 3 7c2 2 5 2 5-2Zm0 23a10 10 0 0 0-3-6c-2-2-5-2-5 1a10 10 0 0 0 3 7c2 2 5 2 5-2Zm-19-104a10 10 0 0 0-3-7c-2-2-4-2-4 2a10 10 0 0 0 2 6c3 2 5 2 5-1Zm0 23a10 10 0 0 0-3-7c-2-2-4-2-4 2a10 10 0 0 0 2 6c3 2 5 2 5-1Zm0 23a10 10 0 0 0-3-6c-2-3-4-2-4 1a10 10 0 0 0 2 6c3 2 5 2 5-1Zm0 23a10 10 0 0 0-3-6c-2-2-4-2-4 1a10 10 0 0 0 2 6c3 3 5 2 5-1Zm0 23a10 10 0 0 0-3-6c-2-2-4-2-4 1a10 10 0 0 0 2 7c3 2 5 1 5-2Zm-19-58a10 10 0 0 0-2-7c-3-2-5-2-5 2a10 10 0 0 0 3 6c2 2 4 2 4-1Zm0 23a10 10 0 0 0-2-7c-3-2-5-1-5 2a10 10 0 0 0 3 6c2 2 4 2 4-1Zm0 23a10 10 0 0 0-2-6c-3-2-5-2-5 1a10 10 0 0 0 3 6c2 2 4 2 4-1Z"/><path fill="#f7fcfe" d="M767 275v4L576 156v-5l191 124z"/><path fill="#fecc8b" d="M738 291a10 10 0 0 1 2 6c0 3-2 3-4 1a10 10 0 0 1-3-6c0-3 2-4 5-1Zm0 23a10 10 0 0 1 2 6c0 3-2 4-4 1a10 10 0 0 1-3-6c0-3 2-3 5-1Zm0 23a10 10 0 0 1 2 6c0 3-2 4-4 2a10 10 0 0 1-3-7c0-3 2-3 5-1Zm-19-59a10 10 0 0 1 2 7c0 3-2 3-4 1a10 10 0 0 1-3-6c0-4 2-4 5-2Zm0 24a10 10 0 0 1 2 6c0 3-2 3-4 1a10 10 0 0 1-3-6c0-3 2-4 5-1Zm0 23a10 10 0 0 1 2 6c0 3-2 3-4 1a10 10 0 0 1-3-6c0-3 2-3 5-1Z"/><path fill="#616264" d="m708 680-1 1c-4 3-11 3-16 0a2 2 0 0 1 0-2c4 3 12 3 17 1Z"/><path fill="#616264" d="M705 675a6 6 0 0 1 3 4c-5 3-13 3-17 0a5 5 0 0 1 2-5c4 2 9 2 12 1Z"/><path fill="#f1fafe" d="m495 439 2-1a90 90 0 0 1 20-3v2a6 6 0 0 0 1 2 8 8 0 0 0-4 0l-10 6h-1l-97 50c-1 0-2 1-1 2v8a2 2 0 0 0 1 2l149 97a7 7 0 0 0 7 0l-2 1 108-56h1l2-2v-7a2 2 0 0 0 2 0l2-1 1-3 1-1v-16c8 6 19 12 20 25 0 8-4 15-10 19a49 49 0 0 1-9 6l-55 28-22 12-4 2a74 74 0 0 1-9 3 95 95 0 0 1-48 0 72 72 0 0 1-11-4l-4-3-16-9-51-34-52-33c-5-4-10-7-14-12a20 20 0 0 1-3-13c0-10 9-18 17-22l19-11 35-18 24-12a75 75 0 0 1 11-4Z"/><path fill="#616264" d="m660 653 33 21a5 5 0 0 0-2 5l-13-9-1-2-3-2-2-1a1 1 0 0 0-2 0l-12-8a5 5 0 0 1 2-4Z"/><path fill="#616264" d="m674 666 3 2 1 2a1 1 0 0 1 0 1h-1l-5-3Z"/><path fill="#adafb2" d="M676 418v118l-3 2V419l3-1z"/><path fill="#adafb2" d="m676 418-3 1a8 8 0 0 0-3-6l3-1a8 8 0 0 1 3 6Z"/><path fill="#616264" d="m674 666-2 2a3 3 0 0 1-2-2 2 2 0 0 1 0-1 1 1 0 0 1 2 0l2 1Z"/><path fill="#adafb2" d="M673 540a2 2 0 0 1-2 0v-1l-1-3-18-11v-1l-114-74v1l-17-11a6 6 0 0 0-3-1 6 6 0 0 1-1-2V318l2-2a3 3 0 0 1 1 0l150 97a8 8 0 0 1 3 6v119a3 3 0 0 1 0 2Zm-5-9V417l-145-94v114Z"/><path fill="#adafb2" d="m673 412-3 1-150-97 4-1 149 97zm-202 72 6 4 2 2h1l5 4 3 1 6 4 3 2 7 5 3 2 40 25 3 2 7 5 3 2 6 4 2 2 6 3 3 2 5 4 3 2 6 3 2 2 2 1 53-28-132-85-53 27 5 3Zm200 55a3 3 0 0 1-2 1l-107 56a7 7 0 0 1-7-1l-61-39 1-1v-1l-19-13h-5l-65-42a3 3 0 0 1-1-2c-1-1 0-2 1-2l97-50h1l10-6a8 8 0 0 1 4 0 6 6 0 0 1 3 1l17 11-3 2-3 2h1l112 73 3-1 4-2 18 11 1 3Zm-123 5v-1l-48-31-34 17h1l48 31Z"/><path fill="#adafb2" d="M671 540v7l-2 2v-9a3 3 0 0 0 2-1Zm-2 0v9l-107 55v-8l107-56z"/><path fill="#f1fafe" d="M668 417v114l-145-94V323l145 94z"/><path fill="#fecc8b" d="M662 288a10 10 0 0 1 3 6c0 4-3 4-5 2a10 10 0 0 1-3-7c0-3 3-3 5-1Zm0 23a10 10 0 0 1 3 6c0 4-3 4-5 2a10 10 0 0 1-3-6c0-4 3-4 5-2Zm0 23a10 10 0 0 1 3 7c0 3-3 3-5 1a10 10 0 0 1-3-6c0-4 3-4 5-2Z"/><path fill="#616264" d="M659 645a2 2 0 0 1 2 1c-3 1-4 5-1 7a5 5 0 0 0-2 4l-4-4v-1c0-3 3-5 5-7Z"/><path fill="#adafb2" d="m652 524-4 3-3 1-112-73 2-2 3-2v-1l114 74zm-4 13-53 28-2-1 51-27h4z"/><path fill="#adafb2" d="M648 537h-4l-125-81-3-4 132 85z"/><path fill="#fecc8b" d="M643 206a10 10 0 0 1 3 7c0 3-3 3-5 1a10 10 0 0 1-3-6c0-4 3-4 5-2Zm0 24a10 10 0 0 1 3 6c0 3-3 3-5 1a10 10 0 0 1-3-6c0-3 3-4 5-1Zm0 23a10 10 0 0 1 3 6c0 3-3 3-5 1a10 10 0 0 1-3-6c0-3 3-3 5-1Zm0 23a10 10 0 0 1 3 6c0 3-3 4-5 1a10 10 0 0 1-3-6c0-3 3-3 5-1Zm0 23a10 10 0 0 1 3 6c0 4-3 4-5 2a10 10 0 0 1-3-7c0-3 3-3 5-1Zm0 23a10 10 0 0 1 3 6c0 4-3 4-5 2a10 10 0 0 1-3-7c0-3 3-3 5-1Z"/><path fill="#616264" d="M537 477v-1l-4-3v-1l6 4a2 2 0 0 0 2 0l2-1a1 1 0 0 0 1-1h-1l-6-4a2 2 0 0 0-1 0h-1v-2l-6-4a2 2 0 0 0-2 0l-1 1v-1a1 1 0 0 0 0-1l-6-4a2 2 0 0 0-2 0l-2 1h-1a1 1 0 0 0 0 1v1l-1-1-2 1-4 2-1 1 6 4h2l4-2v1l-3 1-1 2 6 3v1l-2-1h-3l-1 1v-1a2 2 0 0 0 1-1l-1-1-9-6a3 3 0 0 0-3 0l-4 2-1 1a1 1 0 0 0 1 1v1h-1a3 3 0 0 0-3 0l-4 2-1 2v1-1a4 4 0 0 0-4 0l-4 2-1 1a2 2 0 0 0 1 1v2l-2-2-3 1-5 2a4 4 0 0 0-1 1v1l-3-2 51-26 125 81-51 27-2-2a2 2 0 0 0 2 0l2-2a1 1 0 0 0 1 0v-1l-6-4a2 2 0 0 0-2 0l-3 2a1 1 0 0 0 0 1l-3-1v-1a2 2 0 0 0 2 0l3-1a1 1 0 0 0 0-1 2 2 0 0 0 2 0l2-2a1 1 0 0 0 1 0l-1-1-5-3v-1l14 9a4 4 0 0 0 4 0l4-2a1 1 0 0 0 1-1l-1-1-10-6h1v-1l10 6a3 3 0 0 0 3 1l4-3a1 1 0 0 0 1 0v-1l-7-5v-1h2l5-2v1l-3 1-2 2a1 1 0 0 0 1 0l5 3h3l4-2a3 3 0 0 0 1-1v-1a3 3 0 0 0 3 0l4-2a2 2 0 0 0 1-1v-1l-5-3h1v-1l6 4a2 2 0 0 0 1 0l3-1a1 1 0 0 0 0-1v-1l-6-3a2 2 0 0 0-2 0h-1v-1a1 1 0 0 0 1-1h-1l-6-4a2 2 0 0 0-2 0h-1v-1a1 1 0 0 0 1 0l-1-1-6-4a2 2 0 0 0-1 0l-1 1-1-1v-1a1 1 0 0 0 1 0v-1l-6-3a2 2 0 0 0-2-1l-1 1v-1a1 1 0 0 0 0-1l-6-4a2 2 0 0 0-2 0h-1v-2l-6-4a2 2 0 0 0-2 0l-1 1v-1a1 1 0 0 0 1-1h-1l-6-4a2 2 0 0 0-1 0h-1v-1a1 1 0 0 0 0-1l-6-4a2 2 0 0 0-2 0h-1v-2l-6-4a2 2 0 0 0-2 0l-1 1v-1a1 1 0 0 0 0-1v-1l-6-3a2 2 0 0 0-2 0h-1v-1a1 1 0 0 0 1-1h-1l-6-4a2 2 0 0 0-2 0l-2 1v2l-2-1h-3l-1 1v-1a3 3 0 0 0 1-1Z"/><path fill="#616264" d="m640 537-3 2a2 2 0 0 1-1 0l-6-4a1 1 0 0 1-1-1h1l1-1h1a2 2 0 0 1 2 0l6 3v1Zm-23 0 1-2 4-2a3 3 0 0 1 3 0l4 3 5 3v1a2 2 0 0 1 0 1l-5 2a3 3 0 0 1-3 0l-9-6Zm15-6a1 1 0 0 1-1 1l-2 1a2 2 0 0 1-2 0l-6-4v-1l1-1h1a2 2 0 0 1 2 0l6 4h1Z"/><path fill="#616264" d="M617 537v1l-3-2v-1h3l4-3a3 3 0 0 0 1 0v-1l-1-1v-1l6 4a2 2 0 0 0 2 0l2-1v1l-1 1h-1a1 1 0 0 0 1 1v1h-1l-4-3a3 3 0 0 0-3 0l-4 2-1 2Z"/><path fill="#fecc8b" d="M624 217a10 10 0 0 1 3 7c0 3-2 3-5 1a10 10 0 0 1-2-6c0-4 2-4 4-2Zm0 23a10 10 0 0 1 3 7c0 3-2 3-5 1a10 10 0 0 1-2-6c0-4 2-4 4-2Zm0 24a10 10 0 0 1 3 6c0 3-2 3-5 1a10 10 0 0 1-2-6c0-3 2-4 4-1Zm0 23a10 10 0 0 1 3 6c0 3-2 4-5 1a10 10 0 0 1-2-6c0-3 2-3 4-1Zm0 23a10 10 0 0 1 3 6c0 3-2 4-5 2a10 10 0 0 1-2-7c0-3 2-3 4-1Z"/><path fill="#616264" d="M618 539v-1h-1v-1l9 6v1l-6-4h-2l-1 1v-2a3 3 0 0 0 1 0Z"/><path fill="#616264" d="m612 544 2-2 3-1 1-1h2l6 4a3 3 0 0 1-1 1l-4 2h-3l-5-3a1 1 0 0 1-1 0Zm0-21v-1h2l1-1a2 2 0 0 1 1 0l6 4 1 1a1 1 0 0 1-1 0l-2 1a2 2 0 0 1-2 0l-6-4Z"/><path fill="#616264" d="m620 527 2-1v1l-1 1v2l-5-3-2 1-5 2-1 1 6 4v1l-2-2-3 1h-1v-1a3 3 0 0 0 1-1l-3-3v-1h2l4-2a3 3 0 0 0 1-1l-4-3v-1a2 2 0 0 0 2 0l2-2v1l1 1h-2v1l6 4a2 2 0 0 0 2 0Z"/><path fill="#616264" d="m608 531 1-1 4-2 3-1 5 3 1 1v1a3 3 0 0 1-1 0l-4 3h-3l-6-4Zm10 8a3 3 0 0 1-1 1l-5 2h-2l-6-4 1-1 3-2h4l2 1 3 2 1 1Zm-1 10a1 1 0 0 1-1 0l-4 3a3 3 0 0 1-3-1l-11-6 1-2 3-2h1a3 3 0 0 1 3 0l4 2 7 5v1Zm-3-29-3 2a2 2 0 0 1-2 0l-6-4a1 1 0 0 1 0-1l2-1 1-1a2 2 0 0 1 2 0l6 4v1Zm-1 6a3 3 0 0 1-1 1l-4 2h-2l-6-3c-1-1 0-1 1-2l3-1 1-1h3l1 1 4 2v1Z"/><path fill="#616264" d="m604 538 6 4v1l-4-2a3 3 0 0 0-3 0h-1v-1a3 3 0 0 0 1-1v-1h-2 1v-1l2-1 4-2v1l-3 2-1 1Z"/><path fill="#616264" d="M609 533a3 3 0 0 1-1 1l-4 2-2 1-6-4c-1-1 0-1 1-2l3-1 1-1h2l3 1 3 3Zm-4-12v-1l-5-3h1v-1a2 2 0 0 0 1 0l3-1v1l-2 1a1 1 0 0 0 0 1l6 4v1l-1-1h-3l-1 1v-2a3 3 0 0 0 1 0Zm-20 25 1-2 3-1 1-1a4 4 0 0 1 4 1l1 1 3 2 10 6 1 1a1 1 0 0 1-1 1l-4 2a4 4 0 0 1-4 0l-14-9a2 2 0 0 1-1-1Z"/><path fill="#fecc8b" d="M606 251a10 10 0 0 1 2 7c0 3-2 3-4 1a10 10 0 0 1-3-6c0-4 2-4 5-2Zm0 24a10 10 0 0 1 2 6c0 3-2 3-4 1a10 10 0 0 1-3-6c0-3 2-4 5-1Zm0 23a10 10 0 0 1 2 6c0 3-2 3-4 1a10 10 0 0 1-3-6c0-3 2-3 5-1Z"/><path fill="#616264" d="M601 528v-1l-4-2v-1h3l4-3v2l-3 1c-1 1-2 1-1 2l6 3v1l-3-1h-2l-1 1v-1a3 3 0 0 0 1-1Zm4-14a1 1 0 0 1 0 1l-3 1a2 2 0 0 1-1 0l-6-4a1 1 0 0 1-1 0l1-1 1-1h1a2 2 0 0 1 2 0l6 4Z"/><path fill="#616264" d="M605 521a3 3 0 0 1-1 0l-4 3h-3l-5-4a1 1 0 0 1-1 0l1-1 5-2 2-1 1 1 5 3v1Zm-2 18a3 3 0 0 1-1 1l-4 2h-3l-6-3a1 1 0 0 1 0-1l1-1 3-1 1-1h3l4 3h2v1Z"/><path fill="#616264" d="m597 542 5-2v1l-3 2-1 2v1l-3-3v-1h2Zm-1-9 6 4v1h-1l-4-3h-3l-1 1v-2l1-1-1-1v-1h3l4-2v1l-3 1c-1 1-2 1-1 2Z"/><path fill="#616264" d="M601 528a3 3 0 0 1-1 1l-4 2h-3l-6-4 1-1 3-2h4l2 1 4 2v1Z"/><path fill="#616264" d="m586 506 6 4a2 2 0 0 0 2 0l2-1v1l-1 1-1 1 6 4v1l-1-1-2 1-5 2-1 1a1 1 0 0 0 1 0l5 4v1l-2-2-3 1h-1v-1a3 3 0 0 0 1-1l-3-3v-1h2l4-2a3 3 0 0 0 1-1c1 0 1 0 0 0l-5-4h-3l-1 1v-2a3 3 0 0 0 1 0v-1l-5-3v-1a2 2 0 0 0 2 0l2-2v2h-1l-1 1a1 1 0 0 0 1 0Z"/><path fill="#616264" d="m583 515 1-2 3-1 1-1h3l5 4c1 0 1 0 0 0a3 3 0 0 1-1 1l-4 2h-2l-6-3Zm13-6-2 1a2 2 0 0 1-2 0l-6-4a1 1 0 0 1-1 0l1-1h1l1-1a2 2 0 0 1 2 0l6 4v1Z"/><path fill="#ededee" d="M596 316v27l-146-95V133l120 78v6l-114-75v5l114 74v78Zm-57-39c10-2 12-13 12-21 0-16-9-35-20-47-6-5-15-12-24-10a13 13 0 0 0-4 2c-6 3-8 12-8 19 0 16 9 35 21 47 5 5 14 12 23 10Z"/><path fill="#ededee" d="M596 228v88l-26-17v-78l21 14v-5l-21-13v-6l26 17z"/><path fill="#616264" d="m585 557 3-2a2 2 0 0 1 2 0l6 4v1l-3 2a2 2 0 0 1-2 0l-6-4a1 1 0 0 1 0-1Zm4-19a1 1 0 0 0 0 1l6 3v2l-1-1a4 4 0 0 0-4-1l-1 1v-1a3 3 0 0 0 1-1v-1l-4-2v-1l3-1 4-2v2l-3 1-1 1Z"/><path fill="#616264" d="M581 533c-1-1 0-1 1-1l3-2h1l2-1 5 3 1 1-1 1-4 2-3 1-5-4Z"/><path fill="#616264" d="m587 527 6 4v1l-5-3-2 1h-1v-1a3 3 0 0 0 1-1v-1h-1v-1l2-1 4-2v1l-3 2-1 1Z"/><path fill="#616264" d="M579 522c-1-1 0-1 1-1l4-3h2l3 1 3 3a3 3 0 0 1-1 1l-4 2-2 1-6-4Zm13 30a1 1 0 0 1-1 0l-2 2a2 2 0 0 1-2 0l-6-4v-1l3-1a2 2 0 0 1 2 0l5 3 1 1Z"/><path fill="#f7fcfe" d="M591 230v5l-21-14v-4l21 13z"/><path fill="#616264" d="m576 540 1-1 4-2h1l2-1 2 2 4 2v1a3 3 0 0 1-1 1l-4 2h-3l-6-4Z"/><path fill="#616264" d="M585 546a2 2 0 0 0 1 1v1a2 2 0 0 0-2 0l-3 1v1a2 2 0 0 0-1 0l-3 2v1l-3-2a2 2 0 0 0 2 0l3-2v-1l-6-3a2 2 0 0 0-2-1l-2 2v-1l5-3a4 4 0 0 0 0-1 2 2 0 0 0 1 0l-1-1v-1l2-1 5-2v1l-4 2-1 1a1 1 0 0 0 1 0l5 4h3l4-2v1l-3 1-1 2Zm-1-29v-1h-1v-1l6 3v1l-2-1h-3l-4 2c-1 1-2 1-1 2l6 4v1l-5-3h-3l-4 2-1 1a1 1 0 0 0 0 1l6 3v1l-2-1h-3l-1 1v-1a3 3 0 0 0 1-1v-1l-4-2h1v-1h2l4-3a3 3 0 0 0 1 0v-1l-1-1v-1h3l4-2a3 3 0 0 0 1-1Zm4-7a3 3 0 0 1-1 0l-4 3h-3l-5-4 1-1 4-2h3l5 3v1Zm-11-10 2-1 1-1a2 2 0 0 1 1 0l6 4 1 1a1 1 0 0 1-1 0l-2 2a2 2 0 0 1-2 0l-6-4a1 1 0 0 1 0-1Z"/><path fill="#616264" d="M587 554a1 1 0 0 1 0 1l-3 1a2 2 0 0 1-2 0l-5-4v-1l3-1a2 2 0 0 1 1 0l6 4Zm-17-38 6 4v1l-5-3-2 1h-1v-1a3 3 0 0 0 1-1v-1h-1v-1l2-1 4-2a3 3 0 0 0 1-1l-1-1h1v-1l5 4h3l4-2v1l-3 1-1 2v1l-5-4-3 1-4 2-1 1Zm11 17 6 4v1h-1l-2-2-2 1h-2v-1a3 3 0 0 0 1-1c1 0 1 0 0 0l-3-2v-2h2l5-2v1l-3 2-1 1Z"/><path fill="#616264" d="M586 528a3 3 0 0 1-1 1l-4 2h-3l-6-3a1 1 0 0 1 0-1l1-1 4-2h3l5 3h1v1Zm-16-12 1-1 4-2h3l5 3h1v1a3 3 0 0 1-1 1l-4 2h-3l-6-4Zm4-9 4-2a3 3 0 0 0 2-1h-1l-2-2v-1l6 4v1l-1-1-2 1-4 2-1 1v1h-1l-2-1v-1l2-1Zm-6 28c-1-1 0-1 1-1l3-2 1-1h2l3 2 3 2s1 0 0 0a3 3 0 0 1-1 1l-4 2-2 1-6-4Z"/><path fill="#616264" d="m566 504 1-2 3-1 1-1h3l3 2 2 2c1 0 1 0 0 0a3 3 0 0 1-1 1l-4 2h-2l-6-3Zm2 42h1l2-2a2 2 0 0 1 2 1l6 3v1l-3 2a2 2 0 0 1-2 0l-6-4a1 1 0 0 1 0-1Zm11-49a1 1 0 0 1 0 1l-3 1a2 2 0 0 1-2 0l-6-4v-1l2-1h1a2 2 0 0 1 2 0l6 4Z"/><path fill="#616264" d="M571 499v-1l-3-2v-1l6 4a2 2 0 0 0 2 0l3-1v1l-2 1a1 1 0 0 0 0 1v1l-3-2h-3l-1 1v-2a3 3 0 0 0 1 0Zm-7 23c-1-1 0-1 1-1l3-2h1l2-1 5 3 1 1v1a3 3 0 0 1-1 0l-4 2-3 1-5-4Zm-2-11v-1a4 4 0 0 1 1-1l3-1 1-1h2l3 2 2 1 1 1a3 3 0 0 1-1 1l-4 2-2 1-6-4Zm-2 30v-1a4 4 0 0 1 1 0l4-2 1-1h3l5 3 1 1a2 2 0 0 1-1 0 4 4 0 0 1-1 1l-5 3h-2l-6-4Z"/><path fill="#616264" d="m568 535 6 4v1l-5-3h-3l-1 1v-1a3 3 0 0 0 1-1v-1l-1-1v-1h3l4-2v1l-3 1c-1 1-2 1-1 2Z"/><path fill="#616264" d="m559 529 1-1 4-2h1l2-1 2 2 4 2v1a3 3 0 0 1-1 1l-4 2h-3l-5-4a1 1 0 0 1-1 0Zm8-23v-1l-4-2v-1h3l4-2v1l-3 1-1 2 6 3v1l-3-1h-2l-1 1v-1a3 3 0 0 0 1-1Z"/><path fill="#616264" d="m557 498 1-1 4-2h1l2-1 3 2 3 2v1a3 3 0 0 1-1 0l-4 3h-3l-5-4a1 1 0 0 1-1 0Zm13-6-3 1a2 2 0 0 1-1 0l-6-4a1 1 0 0 1-1 0l1-1h1l1-1a2 2 0 0 1 2 0l6 4v1Z"/><path fill="#f7fcfe" d="M570 217v4l-114-74v-5l114 75z"/><path fill="#616264" d="M563 493h-1l-3-2 1-1v-1l6 4a2 2 0 0 0 1 0l3-1v1l-2 1v2l-3-2-2 1h-1v-1a3 3 0 0 0 1-1Zm1 27 4-2v1l-3 2-1 1 6 4v1h-1l-2-2-2 1h-1v-1a3 3 0 0 0 1-1h-1l-3-2v-2h3Z"/><path fill="#616264" d="m555 516 1-1 3-1 1-1h3l4 3h2v1a3 3 0 0 1-1 1l-4 2h-3l-6-3a1 1 0 0 1 0-1Zm13 30a1 1 0 0 0 0 1v1l-2-2v-1h2v1h1-1Z"/><path fill="#616264" d="m558 498 5 4v1l-2-1h-2l-5 2-1 1a1 1 0 0 0 1 0l5 4h3v2l6 3v2l-5-3h-4v-1a3 3 0 0 0 1 0v-1l-5-4-3 1-4 2c-1 0-2 0-1 1l6 4v1l-3-2-2 1h-1v-1a3 3 0 0 0 1-1h-1l-3-3v-1h3l4-2a3 3 0 0 0 1-1v-1h-1v-1l2-1 4-2a3 3 0 0 0 1-1c1 0 1 0 0 0l-3-2v-2h2l5-2v1l-4 2-1 1a1 1 0 0 0 1 0Z"/><path fill="#616264" d="m553 505 1-1 5-2h2l2 1 4 2v1a3 3 0 0 1-1 1l-4 2h-3l-5-4a1 1 0 0 1-1 0Zm-4 29 2-1 5-3h3l6 4 1 1v1a3 3 0 0 1-1 1l-5 2h-3l-7-4a1 1 0 0 1-1-1Z"/><path fill="#616264" d="m559 527 4-2v1h1l-4 2-1 1a1 1 0 0 0 1 0l5 4v1l-6-4h-3l-5 3-2 1a1 1 0 0 0 1 1l-3-2a2 2 0 0 0 1 0l7-4a1 1 0 0 0 1 0v-1l-8-5v-1h3l4-2v1l-3 2-1 1 6 4 2-1Zm1 12 5-2v1l-4 2a4 4 0 0 0-1 0v2l-3-2v-1h3Z"/><path fill="#616264" d="m551 524 1-1 3-2 1-1h3l2 2 3 2c1 0 1 0 0 0a3 3 0 0 1-1 1l-4 2-2 1-6-4Zm-2-31 1-2 3-1 1-1h3l2 2 3 2h1a3 3 0 0 1-1 1l-5 2h-2l-6-3Z"/><path fill="#adafb2" d="M562 596v8a7 7 0 0 1-7 0v-9a7 7 0 0 0 7 1Z"/><path fill="#616264" d="m561 486-2 2a2 2 0 0 1-2 0l-6-4a1 1 0 0 1-1-1h1l1-1 1-1a2 2 0 0 1 2 0l6 4v1Z"/><path fill="#616264" d="M559 489a1 1 0 0 0 1 0v1l-1 1-2-2h-3l-1 1v-1a3 3 0 0 0 1-1v-1l-3-2v-1l6 4a2 2 0 0 0 2 0l2-2v2h-1l-1 1Zm-3 30v-1l-3-2v-1h2l4-3v2l-3 1-1 1a1 1 0 0 0 0 1l6 3v1l-2-1h-3l-1 1v-1a3 3 0 0 0 1-1Z"/><path fill="#616264" d="M560 512a3 3 0 0 1-1 0l-4 3h-2l-6-4 1-1 4-2 3-1 5 4v1Zm-2-12a3 3 0 0 1-1 1l-4 2-2 1-6-4c-1-1 0-1 1-1l3-2 1-1h2l3 2 3 2c1 0 1 0 0 0Zm-16 18 1-1 4-2h3l3 1 3 2v1a3 3 0 0 1-1 1l-4 2h-3l-5-4a1 1 0 0 1-1 0Zm14 11a1 1 0 0 1-1 0l-7 4a2 2 0 0 1-1 0l-40-26v-1l5-2 2-1a2 2 0 0 1 2 0l7 4 8 5 9 6 8 5 8 5v1Z"/><path fill="#adafb2" d="M555 595v9l-149-97v-8l65 42v2l23 15v-2l61 39z"/><path fill="#616264" d="m549 493 6 3v2l-2-2h-3l-1 1v-1a3 3 0 0 0 1-1v-1l-4-2v-1h3l4-2v1l-3 1-1 2Z"/><path fill="#616264" d="m541 487 1-1 4-2 2-1 3 2 3 2v1a3 3 0 0 1-1 1l-4 2h-3l-5-4Zm12-7a1 1 0 0 1-1 1l-2 1a2 2 0 0 1-2 0l-6-4v-1l2-1a2 2 0 0 1 2 0l6 4h1Z"/><path fill="#616264" d="m541 487 5 4v1l-2-1h-3v-1a3 3 0 0 0 1-1h-1l-3-2v-1l2-1 5-2a3 3 0 0 0 1-1h-1l-3-3v-1l6 4a2 2 0 0 0 2 0l2-1v1l-1 1h-1a1 1 0 0 0 1 1v1l-3-2-2 1-4 2-1 1Zm-3 19 1-2 3-1 1-1h3l5 3 1 1a3 3 0 0 1-1 1l-4 2h-3l-6-3Z"/><path fill="#e0ecbb" d="m551 256-14-9c0-8-4-18-10-23-5-6-11-7-15-4l-9-19a13 13 0 0 1 4-2c9-2 18 5 24 10 11 12 20 31 20 47Z"/><path fill="#ffe9b8" d="m537 247 14 9c0 8-2 19-12 21-9 2-18-5-23-10a72 72 0 0 1-21-47c0-7 2-16 8-19l9 19c-2 2-3 5-3 9 0 8 5 18 11 23 8 8 17 8 17-5Z"/><path fill="#616264" d="m545 498 4-2v1l-3 2c-1 0-2 0-1 1l6 4v1l-5-3h-2l-1 1-1-1v-1a3 3 0 0 0 1 0v-1l-1-1v-1h3Z"/><path fill="#616264" d="m536 494 1-1 4-2h3l2 1 4 2v1a3 3 0 0 1-1 1l-4 2h-3l-5-4a1 1 0 0 1-1 0Z"/><path fill="#414042" d="m543 518 5 4v1l-8-5v-1l2-1 4-2v1h1l-4 2-1 1a1 1 0 0 0 1 0Z"/><path fill="#adafb2" d="m548 544-33 16-48-31 33-17 48 32z"/><path fill="#616264" d="m534 513 1-1 3-2 1-1h3l2 2 3 2c1 0 1 0 0 0a3 3 0 0 1-1 1l-4 2-2 1-6-4Zm-2-31 1-2 3-1 1-1h3l2 1 3 3h1a3 3 0 0 1-1 1l-5 2h-2l-6-3Z"/><path fill="#616264" d="m538 504 4-3v1l1 1-4 1-1 2 6 3v2l-2-2h-3l-1 1v-1a3 3 0 0 0 1-1v-1l-3-2v-1h2Zm6-30a1 1 0 0 1-1 1l-2 1a2 2 0 0 1-2 0l-6-4v-1l2-1h1a2 2 0 0 1 1 0l6 4h1Z"/><path fill="#616264" d="M543 501a3 3 0 0 1-1 0l-4 3h-2l-6-4 1-1 3-2h1l3-1 4 3 1 1v1Z"/><path fill="#616264" d="m537 494 5 4v1l-4-3-3 1h-1v-1a3 3 0 0 0 1-1l-1-1v-1l2-1 4-2v1h1l-4 2-1 1a1 1 0 0 0 1 0Z"/><path fill="#616264" d="M542 489a3 3 0 0 1-1 1l-5 2-2 1-6-4 1-1 3-2 1-1h3l2 2 3 2h1Zm-8 24 6 4v1l-9-6v-1h3l4-2v1l-3 2-1 1Z"/><path fill="#616264" d="M539 508a3 3 0 0 1-1 1l-4 2h-3l-5-4a1 1 0 0 1-1 0l2-1 4-2h2l3 1 3 2v1Zm-6-24v-1l-4-2v-1h3l4-2v1l-3 1-1 2 6 3v2l-2-2h-3l-1 1v-1a3 3 0 0 0 1-1Z"/><path fill="#616264" d="M537 477a3 3 0 0 1-1 1l-4 2h-2l-6-4 1-1 4-2h2l2 1 4 2v1Zm-11 30 5 4v1l-8-5v-1l2-1 5-2a3 3 0 0 0 1-1h-1l-3-2v-2h3l4-2v1l-3 2-1 1 6 4v1l-3-1h-2l-4 2-1 1Z"/><path fill="#616264" d="M535 495a3 3 0 0 1-1 1l-4 2h-3l-5-3a1 1 0 0 1-1 0l1-2 5-2h2l5 3 1 1Z"/><path fill="#414042" d="m535 469-3 1a2 2 0 0 1-2 0l-6-4v-1h2l1-1a2 2 0 0 1 2 0l6 4v1Z"/><path fill="#616264" d="M533 472v1l-2-1-2 1-4 2-1 1v1h-1l-2-1v-1l2-1 5-2a3 3 0 0 0 1-1h-1l-4-3v-1l6 3a2 2 0 0 0 2 0l3-1v1l-2 1v1Z"/><path fill="#e2e3e4" d="M512 220c4-3 10-2 15 4 6 5 10 15 10 23 0 13-9 13-18 5-5-5-10-15-10-23 0-5 1-7 3-9Z"/><path fill="#616264" d="m522 495 5 3v2l-2-2h-3l-1 1v-1a3 3 0 0 0 1-1v-1l-3-2v-1h2l4-3a3 3 0 0 0 1 0v-1l-1-1v-1h3l4-2v1l-3 2c-1 0-2 0-1 1l6 4v1l-5-3h-2l-5 2-1 2a1 1 0 0 0 1 0Z"/><path fill="#616264" d="m519 483 1-1 5-2h2l2 1 4 2v1a3 3 0 0 1-1 1l-4 2h-3l-5-4a1 1 0 0 1-1 0Zm-2 19 1-1 3-2 1-1h3l2 2 3 2h1a3 3 0 0 1-1 1l-5 2-2 1-6-4Z"/><path fill="#616264" d="M519 483a1 1 0 0 0 1 0l5 4v1l-4-3-3 1h-1v-1a3 3 0 0 0 1-1l-1-1v-1l2-1 4-2a3 3 0 0 0 1-1c1 0 0 0 0 0l-1-1h1v-1l5 4v1l-2-1h-2l-5 2-1 1Zm-4-12 1-2 3-1 1-1h3l1 1 4 3h1a3 3 0 0 1-1 1l-5 2-2 1-6-4Z"/><path fill="#616264" d="M526 490a3 3 0 0 1-1 0l-4 3h-2l-6-4 1-1 3-2h1l3-1 4 3 1 1v1Zm0-27a1 1 0 0 1 0 1l-3 1a2 2 0 0 1-1 0l-6-4a1 1 0 0 1-1-1h1l2-1a2 2 0 0 1 2 0l6 4Z"/><path fill="#616264" d="m523 465 3-1v1h-2v3l-1-1h-3l-1 1v-1a3 3 0 0 0 1-1v-1l-5-3h1v-1l6 4a2 2 0 0 0 1 0Zm1 13a3 3 0 0 1-1 1l-4 2-2 1-6-4 1-1 3-2 1-1h3l2 2 2 1 1 1c1 0 1 0 0 0Zm-7 24 6 4v1l-7-4a2 2 0 0 0-2 0l-2 1v-2a3 3 0 0 0 1-1l-7-5v-1l2-1 5-2v1l-3 2-1 1 5 4h3l4-2v1l-3 2-1 1Z"/><path fill="#616264" d="M522 497a3 3 0 0 1-1 1l-4 2h-3l-5-4 1-1 3-2h3l3 1 3 2v1Zm-2-31a3 3 0 0 1-1 1l-4 2h-2l-6-4 1-1 4-2h3l5 3v1Z"/><path fill="#adafb2" d="m516 452 3 4-51 26-5-3 53-27z"/><path fill="#616264" d="m514 491-4-2v-2h3l4-2v1l-3 2-1 1 6 4v1l-3-1h-3v-1a3 3 0 0 0 1-1Z"/><path fill="#616264" d="M518 484a3 3 0 0 1-1 1l-4 2h-3l-5-3a1 1 0 0 1-1 0l1-2 4-1 1-1h2l5 3 1 1Z"/><path fill="#616264" d="m511 478 6 4v1l-5-3h-2l-1 1v-1a1 1 0 0 0 0-1v-1l-1-1v-1a3 3 0 0 0 3 0l4-2v1l-3 2c-1 0-2 0-1 1Z"/><path fill="#616264" d="m498 470 1-2 4-2a3 3 0 0 1 3 0l9 6 1 1a2 2 0 0 1-1 1l-4 2a3 3 0 0 1-3 0l-9-6a1 1 0 0 1-1 0Zm2 21 1-1 3-2 1-1h3l2 2 3 2h1a3 3 0 0 1-1 1l-5 2-2 1-6-4Zm-3 9 1-1 5-3h3l7 5a3 3 0 0 1-1 1l-5 3h-3l-7-5Z"/><path fill="#616264" d="m507 505 5-3v2l-5 2v2l-3-2v-1h3Zm-2-21 5 3v2l-2-2h-3l-1 1v-1a1 1 0 0 0 1-1l-1-1-3-2v-1a3 3 0 0 0 3 0l5-2v1l-4 1-1 2a1 1 0 0 0 1 0Z"/><path fill="#616264" d="M509 479a1 1 0 0 1 0 1l-5 2a3 3 0 0 1-3 0l-11-7 1-2 4-2a3 3 0 0 1 3 0h1l9 6 1 1v1Z"/><path fill="#ededee" d="M507 320v69l-88-57v-69Zm-5 28v-2l-8-5v2Zm0-21v-4l-78-50v4Zm-2 41v-2l-21-14v2Zm0-14v-2l-15-10v2Zm-4 4v-2l-9-6v2Zm-6-17v-2l-26-18v3Zm-7 9v-2l-23-15v2Zm-2-8v-3l-6-3v2Zm-6 10v-2l-15-10v2Zm-3-16v-3l-6-3v2Zm-10-6v-3l-24-16v3Zm-2-9v-2l-9-6v2Zm-2 20v-2l-9-6v2Zm-1-8v-3l-12-7v2Zm-10-20v-2l-23-15v2Zm-2 19v-2l-21-13v2Zm-4-9v-2l-17-11v2Zm-7-12v-2l-10-6v2Z"/><path fill="#616264" d="m500 491 6 4v1h-3l-5 3-1 1v1l-3-2v-1h3l5-3a2 2 0 0 0 1-1l-6-4-3 1h-1v-1a4 4 0 0 0 1-1v-1l-6-3h-2l-1 1v-1a4 4 0 0 0 1-1v-1l-4-2v-2l14 9a4 4 0 0 0 4 1l4-2v1l-3 2-1 1Z"/><path fill="#616264" d="m481 478 1-1 4-2a4 4 0 0 1 4 0v1l11 7 3 2 1 1a1 1 0 0 1-1 1l-4 2a4 4 0 0 1-4-1l-14-9a2 2 0 0 1-1-1Zm7 17v-1a4 4 0 0 1 1-1l4-2h1l3-1 6 4a2 2 0 0 1-1 1l-5 3h-3l-6-3Z"/><path fill="#f7fcfe" d="M502 346v2l-8-5v-2l8 5zm0-23v4l-78-50v-4l78 50z"/><path fill="#adafb2" d="M495 554v1l-19-12v-2l19 13z"/><path fill="#adafb2" d="m495 555-1 1v2l-23-15h5l19 12z"/><path fill="#616264" d="M494 489a4 4 0 0 1-1 1l-5 3h-3l-5-4a1 1 0 0 1-1 0l1-1a4 4 0 0 1 1 0l4-2 1-1h2l6 3v1Z"/><path fill="#616264" d="m488 493 5-3v1l-4 2a4 4 0 0 0-1 1v1l-3-1v-1h3Z"/><path fill="#f7fcfe" d="M490 339v2l-26-17v-2l26 17z"/><path fill="#616264" d="M471 484v-1a4 4 0 0 1 1-1l5-2 3-1 2 2 4 2a2 2 0 0 1 0 1 4 4 0 0 1-1 1l-5 2-3 1-6-4Z"/><path fill="#616264" d="m480 487 5-2v1l-4 2a4 4 0 0 0-1 0l-1 1v1l-2-2 3-1Z"/><path fill="#ffe9b8" d="m399 695-4 1a15 15 0 0 0-2-5 7 7 0 0 0-2-2 3 3 0 0 0-2 0l-3 1a13 13 0 0 1-3 0l-2-1a3 3 0 0 1-1 0 7 7 0 0 0 1-3l-1-1a2 2 0 0 0-1-1 2 2 0 0 0-1 0 3 3 0 0 1 0 1h-1l1-5 1-3a26 26 0 0 0-1-7 7 7 0 0 1-1-4 6 6 0 0 1 0-1 16 16 0 0 1 2-2 15 15 0 0 1 4-5 13 13 0 0 1 7-2 39 39 0 0 1 9 1l4 1a12 12 0 0 1 4 2l6 6a20 20 0 0 0 5 3 28 28 0 0 0 4 1 31 31 0 0 0 5 2 18 18 0 0 0 4 0 2 2 0 0 1-1 0 5 5 0 0 1-1 0 3 3 0 0 0-1 0 4 4 0 0 0 1 1 7 7 0 0 0 1 0 9 9 0 0 0 2 0h2l4-1h4l2-1h9l2-1a3 3 0 0 1 1 1 6 6 0 0 0 2 0 5 5 0 0 0 2 0 7 7 0 0 0 1-1l2-2 3-2a8 8 0 0 0 2-2 17 17 0 0 0 0-2 3 3 0 0 1 2-1 9 9 0 0 0 2-2 55 55 0 0 0 4-6 12 12 0 0 1 0 3l1-1a6 6 0 0 1 0 1 4 4 0 0 0 1 2s1 1 2-1a10 10 0 0 1 0 2 9 9 0 0 1 0 3 4 4 0 0 1-1 2 7 7 0 0 0-1 0 2 2 0 0 0 0 1v1a3 3 0 0 1 0 2 11 11 0 0 1-1 1 10 10 0 0 1-1 2 11 11 0 0 0 0 1l-1 2a16 16 0 0 0-2 2v4l2 10a9 9 0 0 1-1 5 22 22 0 0 0-1 5 30 30 0 0 0 0 5 6 6 0 0 0 1 3 10 10 0 0 0 1 2l-3-3 2 6a8 8 0 0 0 2 2 11 11 0 0 1-3-1l-1 1a9 9 0 0 0 1 1 14 14 0 0 1 0 1 17 17 0 0 1 1 2 4 4 0 0 1 0 2 5 5 0 0 1-1 2 10 10 0 0 0-1 1 6 6 0 0 0 0 2 4 4 0 0 0 0 1v1a2 2 0 0 1 0 1 3 3 0 0 1 0 1 34 34 0 0 1-2 3 9 9 0 0 1-2 2 1 1 0 0 1-1 1 9 9 0 0 1-2-1h-3l-1-1a2 2 0 0 0-1 0h-1a3 3 0 0 0-1-1h-1v-1l2-1a2 2 0 0 0 1-1l1-2a5 5 0 0 1 0-1 13 13 0 0 0-1-8l-1-3a11 11 0 0 0-1-3l-3-3a14 14 0 0 1-1-2l-1 1a29 29 0 0 1-4 3 24 24 0 0 1-7 3 48 48 0 0 1-5 1h-2l-5 1a7 7 0 0 0-5-2h-4a57 57 0 0 1-6-1 28 28 0 0 1-7-2 9 9 0 0 1-1-2v-1l1-1-1-1a21 21 0 0 1-3-1l1-2 2-1a1 1 0 0 0 0-2 13 13 0 0 0-2-2h-1l-1-1Zm-10-22a3 3 0 0 0 0-1 3 3 0 0 0-1-1 7 7 0 0 0-2-1 1 1 0 0 0-1 0 4 4 0 0 0-1 1v1h1a5 5 0 0 1 1 0 4 4 0 0 1 1 1 5 5 0 0 0 1 1 1 1 0 0 0 1-1Zm-3 3a1 1 0 1 0-1 0 1 1 0 0 0 1 0Z"/><path fill="#fffef2" d="M480 657c-1 2-2 1-2 1a4 4 0 0 1-1-2 6 6 0 0 0 0-1l-1 1c-1 0 0 0 0 0a12 12 0 0 0 0-3l1-2a18 18 0 0 1 3 6Z"/><path fill="#adafb2" d="M476 541v2h-5v-2h5z"/><path fill="#fffef2" d="M468 735a32 32 0 0 0-1 3 2 2 0 0 1 0 1 1 1 0 0 1-2 0 2 2 0 0 1 0-1 5 5 0 0 1-2 2 2 2 0 0 1-1 0 2 2 0 0 1-1-1v-1a3 3 0 0 1-3 1 1 1 0 0 1-1-1 1 1 0 0 1 0-1 2 2 0 0 1-1-1 1 1 0 0 1 0-1 5 5 0 0 0 0-1l1-1h1a3 3 0 0 1 1 1h1a2 2 0 0 1 1 0l1 1h3a9 9 0 0 0 2 1 1 1 0 0 0 1-1Z"/><path fill="#ffe9b8" d="M453 709a29 29 0 0 0-1 7 6 6 0 0 1-2 3 6 6 0 0 0 0 2l-3 3 1-2c0-1 0 0 0 0a2 2 0 0 0-2 0 6 6 0 0 0-1 2 13 13 0 0 1 0 1 3 3 0 0 1-1 1l-2 1-2 2a5 5 0 0 1-2 1 2 2 0 0 0-1-2 1 1 0 0 0-1 0 4 4 0 0 1-2 0 2 2 0 0 1-1-1v-1l-4-1a14 14 0 0 1 2 0l2-1a2 2 0 0 0 2 0 2 2 0 0 0 0-1 1 1 0 0 1 0-1 12 12 0 0 0 2-2 3 3 0 0 0 0-1 21 21 0 0 1 0-3 48 48 0 0 0 5-1 24 24 0 0 0 7-3 29 29 0 0 0 4-3Z"/><path fill="#fffef2" d="M437 728a2 2 0 0 1 1 2 7 7 0 0 1-2 1 2 2 0 0 1-1 0 5 5 0 0 0-1-1h-1a6 6 0 0 1-1 1 6 6 0 0 1-1 0h-2a3 3 0 0 1-3-1v-1a6 6 0 0 1 0-2 5 5 0 0 1 2-1 7 7 0 0 1 1-1l4 1v1a2 2 0 0 0 1 1 4 4 0 0 0 2 0 1 1 0 0 1 1 0Z"/><path fill="#ffe9b8" d="m395 696 4-1 4 3 1 1h1a13 13 0 0 1 2 2 1 1 0 0 1 0 2l-2 1-1 2a21 21 0 0 0 3 1l1 1-1 1v1a9 9 0 0 0 2 2 28 28 0 0 0 6 2 57 57 0 0 0 6 1h4a7 7 0 0 1 5 2h-9a14 14 0 0 1 2 3v1a7 7 0 0 1 0 2 4 4 0 0 1 0 2 5 5 0 0 1-2 1c0 1 0 1 0 0a7 7 0 0 0 0-1 6 6 0 0 0 0-3l-4-5-3-1h-1a21 21 0 0 1-5-1 15 15 0 0 1-3-2 61 61 0 0 0-7-5 16 16 0 0 0-2-1 8 8 0 0 0-1 0 7 7 0 0 0-4 0l1-2a1 1 0 0 0-1-1h-2a2 2 0 0 1-1 0v-1a1 1 0 0 0-1-1h-1a2 2 0 0 1-1 0h-3a12 12 0 0 1 2-3l3-2h3a7 7 0 0 0 1 0 7 7 0 0 0 2 0l2-1Z"/><path fill="#e8f1d1" d="M139 539v27h-3v-88l-3-41h1l1 9 1 9a1106 1106 0 0 1 16-217h1a122 122 0 0 1-2 16 139 139 0 0 1 11-26 136 136 0 0 1 21-30l5-12 4-10a29 29 0 0 0 1-5l1-1v2a54 54 0 0 1-3 9l-5 13c21-21 49-37 84-53l44-21 15-13v1l-2 2-9 9c20-10 41-22 59-37l5-10 4-9a24 24 0 0 0 1-4h1l-1 1a47 47 0 0 1-2 8l-5 12c16-13 30-29 39-48q9-23 9-31c0 9-3 24-6 32a141 141 0 0 1-13 21 156 156 0 0 1-16 19 190 190 0 0 1-19 15 246 246 0 0 1-41 26 501 501 0 0 1-42 20l-20 10-18 9a540 540 0 0 0 5-1l-22 10-16 9a225 225 0 0 0-27 20 145 145 0 0 0-11 12 132 132 0 0 0-18 26l-4 8-3 8a169 169 0 0 0-5 19 281 281 0 0 0-7 40v2a578 578 0 0 0-4 58l-1 21a896 896 0 0 1 18-42l1-2 1 1a61 61 0 0 0-5 10 278 278 0 0 0-15 47v18l-1 67v13l1-9h1a311 311 0 0 0-2 51Z"/><path fill="#ffe9b8" d="M413 716h1l-1 5-2 2a26 26 0 0 0-1 4 27 27 0 0 0-1 3 11 11 0 0 1 0 3 19 19 0 0 1-1 3l-1 1h-2a4 4 0 0 0-1 1 4 4 0 0 0-1 1 2 2 0 0 1 0 1l-1-3h-1a1 1 0 0 0-1 0 6 6 0 0 1-1 0h-1a1 1 0 0 0-1-1l-1 1a1 1 0 0 1-1 0v-1h-2a2 2 0 0 1 0-1 5 5 0 0 1 2 0l1-1a2 2 0 0 0 1 0 8 8 0 0 0 1-1l1-2a7 7 0 0 0 1-1 2 2 0 0 0 0-1 9 9 0 0 1-1-2 10 10 0 0 1 0-1 13 13 0 0 0 0-2 21 21 0 0 0 0-4l-1-2a18 18 0 0 1-1-3v-2l-1 1a2 2 0 0 1-1 0 5 5 0 0 1-2 0 4 4 0 0 0 2 0 4 4 0 0 0 1-1 4 4 0 0 0 1-2l-1-4a16 16 0 0 1 2 1l4 2 3 2a15 15 0 0 0 3 3 21 21 0 0 0 5 1Z"/><path fill="#e8f1d1" d="m402 40 1 6a4 4 0 0 1-1 2 7 7 0 0 1-2 1 4 4 0 0 1-2 0h-3l-2-1a17 17 0 0 0-3 0v1a5 5 0 0 0 1 1 6 6 0 0 0 2 1 17 17 0 0 0 3 0 21 21 0 0 0 2 0 7 7 0 0 0 3-1 9 9 0 0 1-4 4 5 5 0 0 1-3 1 6 6 0 0 1-2-1 9 9 0 0 1-2-1l-2-1a3 3 0 0 0 0-1h-1l1 3a29 29 0 0 1-1 5 25 25 0 0 0 0-7h-1a16 16 0 0 0-1 2 5 5 0 0 1-1 1 8 8 0 0 1-1 2 5 5 0 0 1-3 1 6 6 0 0 1-2-1 12 12 0 0 1-2 0v-1a7 7 0 0 0 1 0 11 11 0 0 0 2-1 9 9 0 0 0 2 0 5 5 0 0 0 1-2 3 3 0 0 0 1-1 2 2 0 0 0 0-1 1 1 0 0 0-1 0 2 2 0 0 0-1 0 17 17 0 0 0-2 1 14 14 0 0 1-2 2h-1a6 6 0 0 1-1 1 3 3 0 0 1-2-1 8 8 0 0 1-2-1 5 5 0 0 1-1-1 6 6 0 0 1-1-2 4 4 0 0 1 0-1h2a8 8 0 0 0 2 1 12 12 0 0 0 3 0 18 18 0 0 0 2-1 7 7 0 0 0 2-1 5 5 0 0 0 1-1 1 1 0 0 0 0-1 2 2 0 0 0-1-1 3 3 0 0 0-1 0v-2h1v-2a6 6 0 0 0-2-1 3 3 0 0 0-1 0l1-2a4 4 0 0 0 2 0 2 2 0 0 0 1-1 1 1 0 0 0 0-1 1 1 0 0 0-1 0 8 8 0 0 0-2-1h-2a11 11 0 0 1-2-1 9 9 0 0 1-2-1 2 2 0 0 1-1-1 4 4 0 0 1 0-1 9 9 0 0 1 1-2 2 2 0 0 1 0-1h1l2 2a18 18 0 0 0 3 2 3 3 0 0 0 1 0 1 1 0 0 0 1 0 1 1 0 0 0 0-1 9 9 0 0 0-2-2l-2-1h-2l-1-1a3 3 0 0 1 1-2 12 12 0 0 1 1-2l2-2a6 6 0 0 0 1-1l4 1 2 1c1 0 0 0 0 0a4 4 0 0 0 0 1 6 6 0 0 0-1 1 15 15 0 0 0-1 2 4 4 0 0 0 1 2h1a6 6 0 0 0 0-2 13 13 0 0 0 1-2 5 5 0 0 0 0-1v-1a4 4 0 0 1 2 1 4 4 0 0 1 1 1 2 2 0 0 1 1 1 3 3 0 0 1 0 1 7 7 0 0 1-1 2l-2 2a11 11 0 0 0-1 1 4 4 0 0 0 0 1v1a5 5 0 0 0 2-1 6 6 0 0 0 1-1 16 16 0 0 0 1-2 23 23 0 0 0 1-2l1-2 3 3a2 2 0 0 1 0 2 8 8 0 0 1-2 2l-2 3-2 1a4 4 0 0 0-1 2 1 1 0 0 0 1 1h1a9 9 0 0 0 2-2 28 28 0 0 0 2-3l1-2a7 7 0 0 1 3-2 19 19 0 0 1 3 4 6 6 0 0 1 1 4l-4 2h-1l-2 1-2 1a5 5 0 0 0-1 1 1 1 0 0 0-1 1 1 1 0 0 0 1 1 1 1 0 0 0 1 0 9 9 0 0 0 2-1 16 16 0 0 0 1-1 7 7 0 0 1 2-1l1-1 3-1a3 3 0 0 1 1 0Z"/><path fill="#fff" d="m402 737 1 3a2 2 0 0 1-1 1 6 6 0 0 1-1 0 1 1 0 0 1-1 0 9 9 0 0 0-1 0 2 2 0 0 0-1 0h-3a3 3 0 0 1-1 0 6 6 0 0 0-1-1 2 2 0 0 0-1 0v-1a5 5 0 0 1 0-1 6 6 0 0 1 0-2 3 3 0 0 1 1 0h2v1a1 1 0 0 0 1 0l1-1a1 1 0 0 1 1 1h1a6 6 0 0 0 1 0 2 2 0 0 1 1 0h1Z"/><path fill="#fffdea" d="m392 705-1 2h-4a4 4 0 0 0-1 0 6 6 0 0 1-2 0 2 2 0 0 1-2-2 1 1 0 0 1-1 0 2 2 0 0 1 0-2 4 4 0 0 1 1-2l3 1a2 2 0 0 0 1 0h1a1 1 0 0 1 1 1 2 2 0 0 0 1 1h2a1 1 0 0 1 1 1Z"/><path fill="#ffe9b8" d="M389 673a1 1 0 0 1-1 1 5 5 0 0 1-1-1 4 4 0 0 0-1-1 5 5 0 0 0-1 0h-1v-1a4 4 0 0 1 1-1 1 1 0 0 1 1 0 7 7 0 0 1 2 1 3 3 0 0 1 1 1 3 3 0 0 1 0 1Z"/><path fill="#614d47" d="M386 675a1 1 0 1 1-1 0 1 1 0 0 1 1 0Z"/><path fill="#fffdea" d="M363 527a18 18 0 0 1-2-6v-2h1a17 17 0 0 1 2 0 62 62 0 0 1 8 0h8a17 17 0 0 1 2 0l-2 9-2 3h-13l-1-3h-1v-1Z"/><path fill="#614d47" d="M381 686a7 7 0 0 1-1 3l-3-3a12 12 0 0 1 0-2l1 1a3 3 0 0 0 0-1 2 2 0 0 1 1 0 2 2 0 0 1 1 1l1 1Z"/><path fill="#e0ecbb" d="M379 43v2l-2 1-3 1a21 21 0 0 1-2 0 11 11 0 0 1-2 0 1 1 0 0 1-1 0 2 2 0 0 1 0-1 17 17 0 0 1 0-3v-3a5 5 0 0 1 2 1l2 1a23 23 0 0 0 3 1 11 11 0 0 0 2 0 6 6 0 0 0 1 0Z"/><path fill="#ffe9b8" d="M378 670a26 26 0 0 1 1 7l-1 3h-1a4 4 0 0 1-1-1 4 4 0 0 1 0-2 12 12 0 0 0 1-2 10 10 0 0 0-1-3c0-2-1-3 1-7a6 6 0 0 0 0 1 7 7 0 0 0 1 4Z"/><path fill="#e0ecbb" d="m378 38-1 2h-3a7 7 0 0 1-2 0 9 9 0 0 1-2-1 3 3 0 0 1-1-1 2 2 0 0 1 0-1 12 12 0 0 1 1-2 3 3 0 0 1 0-1l2 1 3 1a17 17 0 0 0 3 2Z"/><path fill="#fffdea" d="M363 528a4 4 0 0 1-3-1 17 17 0 0 1-1-2 7 7 0 0 0 1 0l1 1a4 4 0 0 0 1 0v1h1v1Z"/><path fill="#f7fcfe" d="M363 527h-1a4 4 0 0 1-1-1l-1-1h1a3 3 0 0 0 0-1 1 1 0 0 0 0-1 8 8 0 0 0-2-1l1-1h1a18 18 0 0 0 2 6Z"/><path fill="#ffefe3" d="M356 529a1 1 0 0 1 0 1 3 3 0 0 1-1 1 2 2 0 0 1-1 0 2 2 0 0 1 0 1 2 2 0 0 1-1 1 3 3 0 0 1-1 0 13 13 0 0 1-2 0 5 5 0 0 0-1 0 6 6 0 0 1-2 0l-7-1a21 21 0 0 0 0-2 35 35 0 0 0 1-8 6 6 0 0 0-1-3 101 101 0 0 1 10 0 5 5 0 0 1 1 0l2 1a8 8 0 0 0 2 1 16 16 0 0 1 3 0 5 5 0 0 1 1 1 8 8 0 0 1 2 1 1 1 0 0 1 0 1l-1 1a46 46 0 0 0-5 0h2l1 1a1 1 0 0 1 0 1 3 3 0 0 1-1 2 2 2 0 0 1-1 0Z"/><path fill="#ffefe3" d="M360 520a2 2 0 0 1-1 1v1a5 5 0 0 0-1-1 16 16 0 0 0-3 0 8 8 0 0 1-2-1l-2-1h2a19 19 0 0 0 4 1 11 11 0 0 0 1-1 3 3 0 0 1 2 0 1 1 0 0 1 0 1Z"/><path fill="#e8f1d1" d="M341 72a45 45 0 0 1 1 7 35 35 0 0 1-1 7 42 42 0 0 1-5 12 59 59 0 0 1-7 10v-1l1-1a21 21 0 0 0 3-5 9 9 0 0 0 1-3 2 2 0 0 0 0-1 4 4 0 0 0-1 0l-1 1-1 2a7 7 0 0 1-2 1 8 8 0 0 1-3 1 6 6 0 0 1-3-1 9 9 0 0 1-2-1 4 4 0 0 1-1-2 10 10 0 0 0 3 0 16 16 0 0 0 3 0 10 10 0 0 0 3-1l1-1a2 2 0 0 0-1-2 2 2 0 0 0-1 0 6 6 0 0 0-2 1 19 19 0 0 1-3 1 8 8 0 0 1-3 0 7 7 0 0 1-1 0 4 4 0 0 1-3-2 10 10 0 0 1-1-3 15 15 0 0 1 0-3v-1l2 1a15 15 0 0 0 4 2 20 20 0 0 0 5 0 7 7 0 0 0 3 0 3 3 0 0 0 1-2 1 1 0 0 0 0-1v-3a2 2 0 0 0 1 0 1 1 0 0 0 0-1 4 4 0 0 0-1-2l-4-2a32 32 0 0 1-5-2 5 5 0 0 1-1-2 2 2 0 0 1 0-2 16 16 0 0 1 2-3h1v1l2 1a14 14 0 0 0 2 3l3 2a9 9 0 0 0 2 1 2 2 0 0 0 2 0 1 1 0 0 0 0-2 3 3 0 0 0-1-1l-2-2-3-1a13 13 0 0 1-3-2 3 3 0 0 1-1-2l4-5 1 2 1 2a19 19 0 0 0 2 2 8 8 0 0 0 2 2 1 1 0 0 0 1 0 1 1 0 0 0 1-2 5 5 0 0 0-2-1l-2-3a21 21 0 0 1-2-2v-1l1-2a27 27 0 0 1 6-3l4 15Z"/><path fill="#e0f1ed" d="M341 522a35 35 0 0 1-1 8 21 21 0 0 1 0 2 14 14 0 0 1-1 3l-2 1h-9a48 48 0 0 0 2-7 18 18 0 0 0-1-10h11a6 6 0 0 1 1 3Z"/><path fill="#e0f1ed" d="m308 521 13-1 7-1h1a18 18 0 0 1 1 10 48 48 0 0 1-2 7 16 16 0 0 0-2 1l-4 1a28 28 0 0 1-5 1h-12a41 41 0 0 1-6 1l-4-1q5 15 4 28a13 13 0 0 0-3 0 26 26 0 0 0-9 1 56 56 0 0 0-6 3l-3 1a63 63 0 0 1-8 3 28 28 0 0 1-3 1l-4 1a26 26 0 0 1-6 0 3 3 0 0 1-2-1 7 7 0 0 1 0-1 18 18 0 0 1-2-4 27 27 0 0 1 0-6 707 707 0 0 0-1-14l-4-11-8-26a7 7 0 0 1 0-2v-13a43 43 0 0 1 0-8l2-12 1-9a38 38 0 0 1 0-5 21 21 0 0 1 2-5 56 56 0 0 1 3-7 28 28 0 0 1 5-6c2-2 5-3 12-3a41 41 0 0 0 15 6 24 24 0 0 1 6 1l7 8 5 4a15 15 0 0 1 4 6 20 20 0 0 1 0 3l1 12 2 8-1 9 2 8v1l2 11Z"/><path fill="#e0ecbb" d="M330 84v3a3 3 0 0 0-1-1 20 20 0 0 0-3 0h-4a30 30 0 0 1-4-1 9 9 0 0 1-2-1 1 1 0 0 1-1-1 9 9 0 0 1 1-2 16 16 0 0 1 2-5 27 27 0 0 0 5 4 32 32 0 0 0 5 4 6 6 0 0 0 2 0Z"/><path fill="#ffd68b" d="M325 406a3 3 0 0 1-1 4 5 5 0 0 1-5 1l-6-2a3 3 0 0 0-1 0 2 2 0 0 0-1 0v2c-1 6-2 7-3 8a38 38 0 0 1-3 2c-1 1-3 2-3 7h-3a30 30 0 0 0 1-5l-3-4a2 2 0 0 0-2-1 3 3 0 0 0-3 1 7 7 0 0 0-3 2 13 13 0 0 0-1 3 8 8 0 0 1-2 2 5 5 0 0 1-1 0c-1 1-2 2-7 2a7 7 0 0 0 1-4l-1-11 2-9a22 22 0 0 1 5-6 14 14 0 0 1 5-3 18 18 0 0 1 7 0 33 33 0 0 1 7 1 36 36 0 0 1 4 2 10 10 0 0 0 4 1 34 34 0 0 1 3 0 18 18 0 0 1 7 3 8 8 0 0 1 3 4Z"/><path fill="#464547" d="M308 729a16 16 0 0 0 2 0 18 18 0 0 0 2 1h3a17 17 0 0 1 3 0 4 4 0 0 1 1 0 4 4 0 0 1 1 1 2 2 0 0 1 1 1 7 7 0 0 1 0 2 3 3 0 0 1-1 2 2 2 0 0 1-1 0 7 7 0 0 1-1 1l-5 1a34 34 0 0 1-5 1 43 43 0 0 1-7-1h-3a52 52 0 0 0-8 0 60 60 0 0 1-15-3 105 105 0 0 1 2-12 17 17 0 0 0 4 1 21 21 0 0 0 3 1l1 5a24 24 0 0 0 6 0 2 2 0 0 0 1-1v-6l2-1a7 7 0 0 0 1-1l12 8Z"/><path fill="#ffefe3" d="M312 436a21 21 0 0 0-3-1 15 15 0 0 0-3 1h-1l-1 1-1-2-1-7c0-5 2-6 3-7a38 38 0 0 0 3-2c1-1 2-2 3-8v-2a2 2 0 0 1 1 0 3 3 0 0 1 1 0l6 2-1 13a14 14 0 0 1 0 2l-1 2v8h-4a4 4 0 0 1-1 0Zm0-9 2 1a2 2 0 0 0 1-1Zm3 8a2 2 0 0 0-1 0 4 4 0 0 0-1 0h2Z"/><path fill="#231f20" d="M318 737a7 7 0 0 0 1-1c-4 3-9 4-13 4s-6 0-8-2h3a43 43 0 0 0 6 1 34 34 0 0 0 6-1l5-1Z"/><path fill="#e8f1d1" d="M322 171a35 35 0 0 1-7 5h-3l-1-1a27 27 0 0 1-1-3l-2-4a6 6 0 0 0-1-3 2 2 0 0 0-2 0 1 1 0 0 0-1 1 10 10 0 0 0 1 4 24 24 0 0 0 2 3l1 3 1 2-6 2a4 4 0 0 1-2-1 4 4 0 0 1 0-1 16 16 0 0 1-1-5l-1-4v-4a4 4 0 0 0-1-2 2 2 0 0 0-2-1 2 2 0 0 0-1 2 11 11 0 0 0 0 4l1 5a19 19 0 0 0 1 3l2 3a3 3 0 0 1 0 1l-1 1a20 20 0 0 1-4 0 3 3 0 0 1-2 0 3 3 0 0 1-1-1 9 9 0 0 1-1-2 42 42 0 0 1 0-7v-5a5 5 0 0 0-1-3 1 1 0 0 0-2 0l-1 4a41 41 0 0 0 1 7 39 39 0 0 0 3 7v1a21 21 0 0 1-8 0 12 12 0 0 1-2-1 1 1 0 0 1-1-1 8 8 0 0 1 0-3 36 36 0 0 1 1-5l2-5a26 26 0 0 0 1-3 3 3 0 0 0 0-2 2 2 0 0 0-1-1 3 3 0 0 0-2 0 9 9 0 0 0-3 4 27 27 0 0 0-2 6 20 20 0 0 0 0 5v3l-1 1a21 21 0 0 1-4-3 13 13 0 0 1-3-3 5 5 0 0 1 0-4 9 9 0 0 1 0-1 11 11 0 0 1 2-3 24 24 0 0 1 3-3 7 7 0 0 0 2-2 2 2 0 0 0 0-2 3 3 0 0 0-1-2h-2a13 13 0 0 0-3 3 21 21 0 0 0-2 5 13 13 0 0 0-1 2v1a6 6 0 0 1-2-2 12 12 0 0 1 0-4 7 7 0 0 1 1-4 10 10 0 0 1 2-3 9 9 0 0 1 3-1l2-1h2a5 5 0 0 0 1 0v-1a3 3 0 0 0-1-1 12 12 0 0 0-4-1 27 27 0 0 0-8 1l-3 1h-1a77 77 0 0 1 16-4 54 54 0 0 1 17 2 45 45 0 0 1 9 3 58 58 0 0 1 8 4c3 2 6 4 15 14Z"/><path fill="#ffefe3" d="M312 427h3a2 2 0 0 1-1 1Z"/><path fill="#ffd68b" d="m313 436-1 2h-3a15 15 0 0 1-2-1 4 4 0 0 1-1 0v-1a15 15 0 0 1 3-1 21 21 0 0 1 3 1 4 4 0 0 0 1 0Z"/><path fill="#e0f1ed" d="M313 575a3 3 0 0 1 0 2 12 12 0 0 0-2-2 27 27 0 0 0-7-6 23 23 0 0 0-5-2q1-13-4-28l4 1a41 41 0 0 0 6 0l6-1 1 12a29 29 0 0 1 0 5 42 42 0 0 0 0 6l1 9v4Z"/><path fill="#79605b" d="M304 651h-1l-1 4-1 4a18 18 0 0 0 0 2v4l-1 10c0 5-2 9-3 14l-2 9a7 7 0 0 0 0 3l1 3a7 7 0 0 1 0 3l-1 3a10 10 0 0 0 0 3 37 37 0 0 0 1 4v1l-5 3a16 16 0 0 1-6 1c-2 0-4 0-9-3a10 10 0 0 0 0-2 18 18 0 0 1 0-4l1-9v-4a15 15 0 0 0 0-4 51 51 0 0 1 0-10l2-22a41 41 0 0 1 1-7 6 6 0 0 0 0-2 3 3 0 0 1 0-1 11 11 0 0 0 1-2v-1a5 5 0 0 1 1-2 4 4 0 0 0 1-2 7 7 0 0 0 0-3 11 11 0 0 1-1-1 2 2 0 0 1 1-2l-1-4v-1l-2-18-2-14a29 29 0 0 0-1-6 42 42 0 0 0 7 1l10-1a2 2 0 0 0 1-2v-25h-14a56 56 0 0 1 6-3 26 26 0 0 1 9-1 13 13 0 0 1 3 0 23 23 0 0 1 5 2 27 27 0 0 1 7 6v2l1 7a77 77 0 0 1 0 9l-1 16-1 10-1 8-1 6a24 24 0 0 0 0 3 17 17 0 0 1 0 3 25 25 0 0 0-1 3 8 8 0 0 1 0 3 22 22 0 0 1-3 4 6 6 0 0 0 0 2Z"/><path fill="#ffd68b" d="M308 442a3 3 0 0 1 0 1 4 4 0 0 0-1 1 6 6 0 0 0 0 1 2 2 0 0 1-1 1h-3l-5-2h-1l-3 4a26 26 0 0 0-2-9c3-1 3-1 3-3l4-8h3l1 7 1 2 1-1h1v1a13 13 0 0 0 1 4 5 5 0 0 0 1 1Z"/><path fill="#ffefe3" d="m297 419 3 4a30 30 0 0 1-1 5l-4 8-3 3a26 26 0 0 1 2 9l-1 1a26 26 0 0 0-5-4 24 24 0 0 0-7-2l-6-1-2-1a14 14 0 0 1-2 0l1-2a120 120 0 0 0 6-11c5 0 6-1 7-2a5 5 0 0 0 1 0 8 8 0 0 0 2-2 13 13 0 0 1 1-3 7 7 0 0 1 3-2 3 3 0 0 1 3-1 2 2 0 0 1 2 1Z"/><path fill="#e0f1ed" d="m295 450 1 2-1 1a14 14 0 0 0-2 4l-3-3a24 24 0 0 0-4-3 24 24 0 0 0-6-1 41 41 0 0 1-15-6l1-6a1 1 0 0 1 0-1 12 12 0 0 0 5 4 14 14 0 0 0 2 1h2l6 1a24 24 0 0 1 7 2 26 26 0 0 1 5 4l2 1Z"/><path fill="#614d47" d="M284 725a21 21 0 0 1-3-1 17 17 0 0 1-4-1 5 5 0 0 1-1-1 3 3 0 0 1 0-3c5 3 7 3 9 3a16 16 0 0 0 6-1l5-3a4 4 0 0 1 0 2 2 2 0 0 1-1 1 7 7 0 0 1-1 1l-2 1a16 16 0 0 1-2 1 12 12 0 0 1-4 1 16 16 0 0 1-2 0Z"/><path fill="#79605b" d="M277 598a35 35 0 0 0-5-9q-2-2-5-13a28 28 0 0 0 3-1 63 63 0 0 0 8-3l3-1h14v24a2 2 0 0 1-1 3l-10 1a42 42 0 0 1-7-1Z"/><path fill="#e0f1ed" d="m290 454 3 3a7 7 0 0 0 0 2l-7-8a24 24 0 0 1 4 3Z"/><path fill="#231f20" d="M292 723v6a2 2 0 0 1-1 1 24 24 0 0 1-6 0l-1-5a16 16 0 0 0 2 0 12 12 0 0 0 4-1 16 16 0 0 0 2-1Zm-2 15v2a49 49 0 0 1-8 0c-3-1-7-1-9-3a12 12 0 0 1-1-3l3 1a60 60 0 0 0 15 3Z"/><path fill="#f7fcfe" d="M283 644a7 7 0 0 1 0 3 4 4 0 0 1-1 2 5 5 0 0 0-1 2v1a11 11 0 0 1-1 2 3 3 0 0 0 0 1 6 6 0 0 1 0 2 41 41 0 0 0-2 7l-1 22a51 51 0 0 0 0 10 15 15 0 0 1 0 4l-1 4v9a18 18 0 0 0 0 4 10 10 0 0 1-1 2 3 3 0 0 0 0 3 51 51 0 0 0-1 5 19 19 0 0 0-3-1h-5l-2-1a6 6 0 0 1-4-1l-7-9a5 5 0 0 0 1-2 4 4 0 0 0 0-1 25 25 0 0 0 0-3 34 34 0 0 1 0-4 23 23 0 0 1 0-4 25 25 0 0 1 2-4 21 21 0 0 0 2-6l1-8a18 18 0 0 1 1-6l2-5 2-6a19 19 0 0 1 3-5l3-5a6 6 0 0 0 1-2 2 2 0 0 1 1-2l3-3a4 4 0 0 0 2-2v-1a11 11 0 0 1 2-3l3-7v5a2 2 0 0 0 0 2 11 11 0 0 0 1 1Z"/><path fill="#79605b" d="m260 625-1-2a21 21 0 0 1 0-3 53 53 0 0 0 1-6v-14l-1-5a14 14 0 0 1-1-2l8 2v-1l-1-4-1-5-1-8 4-1q3 11 5 13a35 35 0 0 1 5 9 29 29 0 0 1 1 6l2 14 2 18-3 8a11 11 0 0 0-2 2v1a4 4 0 0 1-2 2l-3 3a2 2 0 0 0-1 2 6 6 0 0 1-1 2l-3 5a19 19 0 0 0-3 5l-2 6-2 5a18 18 0 0 0-1 6l-1 8a21 21 0 0 1-2 6 25 25 0 0 0-2 4 23 23 0 0 0 0 4 34 34 0 0 0 0 4 25 25 0 0 1 0 3 4 4 0 0 1 0 1 11 11 0 0 1-4 1 25 25 0 0 1-4 0 23 23 0 0 1-5 0 18 18 0 0 1-7-4l1-4 1-6 2-7 2-9 1-7 2-9 3-10a67 67 0 0 1 4-9l2-4a8 8 0 0 0 0-2 3 3 0 0 1 1-2 17 17 0 0 1 2-1l1-1a7 7 0 0 0 1-2 9 9 0 0 1 0-2 8 8 0 0 1 1-1 7 7 0 0 0 1-2 7 7 0 0 0 0-2 4 4 0 0 1 0-1 4 4 0 0 0 1-2 13 13 0 0 0 0-2Z"/><path fill="#464547" d="M276 722a5 5 0 0 0 1 1 105 105 0 0 0-2 12l-3-1 1-1v-1a46 46 0 0 1 1-5 51 51 0 0 1 2-5Z"/><path fill="#464547" d="M266 726h1l5 1a19 19 0 0 1 2 0 46 46 0 0 0-1 5c-8 2-15 1-23 0l-4-1q-8-5-13-6l3-11a12 12 0 0 0 2 1 24 24 0 0 0 4 1h2l1 5a5 5 0 0 0 3 1 2 2 0 0 0 2 0v-6a9 9 0 0 0 1 0 3 3 0 0 0 2-1l7 9a6 6 0 0 0 4 1Z"/><path fill="#231f20" d="M273 732v1h-2a31 31 0 0 1-5 1 41 41 0 0 1-4 0 46 46 0 0 1-6 0 27 27 0 0 1-6-2c8 1 15 2 23 0Z"/><path fill="#e0f1ed" d="m272 439-1 2a12 12 0 0 1-5-4l6 2Z"/><path fill="#614d47" d="M266 594v1l-8-3v-4a5 5 0 0 0 0-2l-3-10a3 3 0 0 0 2 1 26 26 0 0 0 6 0l1 8 1 5 1 4Zm-22 122h-2a24 24 0 0 1-4-1 12 12 0 0 1-2-1h-1l-1-1a2 2 0 0 1 0-1 9 9 0 0 1 0-2 18 18 0 0 0 7 4 23 23 0 0 0 5 0 25 25 0 0 0 4 0 11 11 0 0 0 4-1 5 5 0 0 1-1 2 3 3 0 0 1-2 1 9 9 0 0 1-1 0 15 15 0 0 1-3 0h-3Z"/><path fill="#231f20" d="M250 716v6a2 2 0 0 1-2 0 5 5 0 0 1-3-1l-1-5h3a15 15 0 0 0 3 0Zm-4 15-1 2-15-5v-1l1-1v-1a13 13 0 0 1 2 0q5 1 13 6Z"/><path fill="#e8f1d1" d="M242 284a14 14 0 0 0-1 3v5a32 32 0 0 1 0 6 9 9 0 0 1-3 5h-3l-4-1-5-1a22 22 0 0 0-6-1l-2 2a2 2 0 0 0 0 2 9 9 0 0 0 4 1 46 46 0 0 0 7 2h7l2 1a6 6 0 0 1 0 2 23 23 0 0 1-2 5 9 9 0 0 1-3 3 4 4 0 0 1-3 0 23 23 0 0 1-5-1 28 28 0 0 1-4-2l-5-4a21 21 0 0 0-5-2 3 3 0 0 0-3 0 2 2 0 0 0-1 2 5 5 0 0 0 1 3 12 12 0 0 0 4 3 42 42 0 0 0 8 3l8 2 3 1a7 7 0 0 1 0 3 29 29 0 0 1-2 4 5 5 0 0 1-2 2 6 6 0 0 1-4 0 22 22 0 0 1-5-2 19 19 0 0 1-4-3l-4-3a11 11 0 0 0-3-2 15 15 0 0 0-5-2l-3 1a3 3 0 0 0 1 3 12 12 0 0 0 2 3 26 26 0 0 0 5 2 53 53 0 0 0 6 3l4 1 4 1a13 13 0 0 1 4 2l-1 2-4 4a46 46 0 0 1-4 5 5 5 0 0 1-3 1 3 3 0 0 1-2-1 25 25 0 0 1-3-3 52 52 0 0 1-3-4l-4-7-4-6a6 6 0 0 0-5-1 3 3 0 0 0-2 2 13 13 0 0 0 0 5 17 17 0 0 0 3 5 48 48 0 0 0 3 5 32 32 0 0 0 5 4 21 21 0 0 0 5 3l3 1 1 1a9 9 0 0 1-3 2 15 15 0 0 1-4 2 13 13 0 0 1-5 1 20 20 0 0 1-5-1 7 7 0 0 1-3-3 18 18 0 0 1-3-5 33 33 0 0 1-2-6 40 40 0 0 0 0-5 5 5 0 0 0-3-4 3 3 0 0 0-2 0 4 4 0 0 0-2 2 8 8 0 0 0 0 3 13 13 0 0 0 0 5 22 22 0 0 0 2 5 27 27 0 0 0 3 4l2 2-1 1a30 30 0 0 1-5-2 15 15 0 0 1-5-3 12 12 0 0 1-3-5 19 19 0 0 1-1-6 12 12 0 0 1 2-4 40 40 0 0 0 2-6c0-1-1-1-2 1l-12 12-1-1a70 70 0 0 1 7-10l5-5v-1a7 7 0 0 0-2 0h-5a21 21 0 0 1-6 0 15 15 0 0 1-5-3 13 13 0 0 1-5-6 21 21 0 0 1-1-9 35 35 0 0 1 1-6 17 17 0 0 0 4 7 56 56 0 0 0 5 4 45 45 0 0 0 4 4 17 17 0 0 0 5 2 13 13 0 0 0 4 1 2 2 0 0 0 2-1l-1-2a44 44 0 0 0-4-3l-6-4-6-4a9 9 0 0 1-3-3 17 17 0 0 1-2-6 10 10 0 0 1 2-5c1-3 2-5 10-10l3 4 3 5a26 26 0 0 1 2 4 17 17 0 0 1 1 3 38 38 0 0 0 1 5 21 21 0 0 0 2 5 4 4 0 0 0 2 2 3 3 0 0 0 2-1 3 3 0 0 0 2-2 12 12 0 0 0-2-4l-2-5a68 68 0 0 1-3-7l-5-11a16 16 0 0 1 8-5 48 48 0 0 1 13-2 18 18 0 0 1 1 8l-1 6a64 64 0 0 0 0 8 23 23 0 0 0 1 7l2 2a3 3 0 0 0 2-2 9 9 0 0 0 1-4l-1-6v-9a20 20 0 0 1 1-7 6 6 0 0 1 4-4l10 1-2 4a53 53 0 0 0-1 6 37 37 0 0 0-1 5 14 14 0 0 0 0 4 13 13 0 0 0 1 5h2a10 10 0 0 0 1-4 27 27 0 0 0 1-5v-5a18 18 0 0 1 0-4 7 7 0 0 1 2-3 6 6 0 0 1 3-2 11 11 0 0 1 5 1 11 11 0 0 1 3 1v2l-1 1a13 13 0 0 0-2 2 34 34 0 0 0-2 5 16 16 0 0 0-1 4l1 2a2 2 0 0 0 2-1 9 9 0 0 0 2-2 35 35 0 0 0 3-5 15 15 0 0 0 1-4v-2h2l4 2 10 5Z"/><path fill="#464547" d="M235 714h1l-3 11a13 13 0 0 0-2 0v-3c0-1 0-4 3-10a2 2 0 0 0 0 1l1 1Z"/><path fill="#e8f1d1" d="M218 403a61 61 0 0 1 2 16v4l-3 1a48 48 0 0 1-7 0l-7-1a11 11 0 0 0-5 1 3 3 0 0 0-2 2 2 2 0 0 0 2 2 18 18 0 0 0 6 2 43 43 0 0 0 6 0l5-1h4c0 11-1 12-2 12a7 7 0 0 1-4 2 29 29 0 0 1-7-2l-9-3-6-2a7 7 0 0 0-3 0 3 3 0 0 0-3 2 4 4 0 0 0 2 4l6 2 8 3a33 33 0 0 0 7 0h5a4 4 0 0 1 3 0v3a35 35 0 0 1-2 6l-3 3h-6a74 74 0 0 1-11-4l-8-4-6-1a2 2 0 0 0-1 3c0 2 2 3 5 5a70 70 0 0 0 13 3 62 62 0 0 0 15 2 37 37 0 0 1-6 12 21 21 0 0 1-3 4 2 2 0 0 1-2 1 14 14 0 0 1-5-3 66 66 0 0 1-7-6l-7-7a48 48 0 0 0-4-4 6 6 0 0 0-3-1 3 3 0 0 0-3 1 6 6 0 0 0-1 4 15 15 0 0 0 4 7 47 47 0 0 0 9 8 34 34 0 0 0 7 4l5 1v2a35 35 0 0 1-6 4 22 22 0 0 1-8 3 9 9 0 0 1-6-2 18 18 0 0 1-6-7l-2-7a13 13 0 0 0-2-5 4 4 0 0 0-3-2 5 5 0 0 0-3 1l-1 3a23 23 0 0 0 2 7 37 37 0 0 0 5 7 24 24 0 0 0 4 3v1a10 10 0 0 1-4 1 21 21 0 0 1-7-2 13 13 0 0 1-5-5 18 18 0 0 1-2-6 16 16 0 0 1 0-5v-4l1-3a10 10 0 0 0 0-2l-1-1a6 6 0 0 0-3 2 21 21 0 0 0-4 6 48 48 0 0 0-4 15h-1a131 131 0 0 1 6-24 95 95 0 0 1 14-25 80 80 0 0 1 12-12 102 102 0 0 1 13-9c5-4 11-7 33-15Zm-6-254v6a5 5 0 0 1-1 3 8 8 0 0 1-2 1 4 4 0 0 1-2 0h-3l-4-1a21 21 0 0 0-2 0l-1 1a1 1 0 0 0 0 1 6 6 0 0 0 2 1 8 8 0 0 0 2 0 22 22 0 0 0 3 0 26 26 0 0 0 3 0 8 8 0 0 0 3-1 11 11 0 0 1-4 5 6 6 0 0 1-4 1 7 7 0 0 1-3-1 11 11 0 0 1-2-1l-2-2a3 3 0 0 0 0-1l-1 1 1 3a34 34 0 0 1-1 5h-1a34 34 0 0 0 0-7v-1a18 18 0 0 0-1 3 6 6 0 0 1-1 2 9 9 0 0 1-2 1 6 6 0 0 1-3 1 7 7 0 0 1-3 0 14 14 0 0 1-2-1v-1a10 10 0 0 0 1 0 12 12 0 0 0 3 0 10 10 0 0 0 2-1 6 6 0 0 0 1-2 4 4 0 0 0 1-1 2 2 0 0 0 0-1 1 1 0 0 0-1-1 2 2 0 0 0-2 0 20 20 0 0 0-1 2 15 15 0 0 1-3 2h-1a7 7 0 0 1-1 1 3 3 0 0 1-2-1 9 9 0 0 1-3-1 6 6 0 0 1-1-2 7 7 0 0 1-1-2 4 4 0 0 1 0-1 1 1 0 0 1 1 0l1 1a10 10 0 0 0 3 0 14 14 0 0 0 2 0 20 20 0 0 0 3-1 8 8 0 0 0 2-1 6 6 0 0 0 2-1 1 1 0 0 0 0-2 3 3 0 0 0-2-1 4 4 0 0 0-1 0v-2a6 6 0 0 0 1 0h1l-1-2a7 7 0 0 0-2-1 5 5 0 0 0-2 0h-2a9 9 0 0 1-2 0 10 10 0 0 1-3-1 3 3 0 0 1-1-1 2 2 0 0 1 0-2 12 12 0 0 1 1-2 3 3 0 0 1 0-1l2 1 3 1a19 19 0 0 0 4 2 6 6 0 0 0 2 0 2 2 0 0 0 1-1 1 1 0 0 0 1-1 2 2 0 0 0-1-1 10 10 0 0 0-3 0l-2-1a13 13 0 0 1-3 0 11 11 0 0 1-2-1 2 2 0 0 1-1-1 4 4 0 0 1 0-2 10 10 0 0 1 1-2 3 3 0 0 1 0-1h1l3 2a22 22 0 0 0 3 2 4 4 0 0 0 2 0 1 1 0 0 0 1 0 1 1 0 0 0-1-1 11 11 0 0 0-2-2l-2-1-2-1-1-1a4 4 0 0 1 1-2 16 16 0 0 1 1-3l2-2a6 6 0 0 0 1-1 95 95 0 0 1 7 3 7 7 0 0 0-1 2 17 17 0 0 0-1 3 4 4 0 0 0 0 1 1 1 0 0 0 1 1h1a8 8 0 0 0 1-2 16 16 0 0 0 0-3 7 7 0 0 0 0-1v-1h1a5 5 0 0 1 2 0 5 5 0 0 1 1 1 3 3 0 0 1 1 2 3 3 0 0 1 0 2 8 8 0 0 1-1 1l-2 2a13 13 0 0 0-1 2 5 5 0 0 0-1 2 6 6 0 0 0 2-1 7 7 0 0 0 2-1 18 18 0 0 0 1-2 27 27 0 0 0 1-3l1-2 4 3a3 3 0 0 1 0 3 9 9 0 0 1-2 2l-3 3-2 2a4 4 0 0 0-1 2 1 1 0 0 0 0 1h2a11 11 0 0 0 2-2 32 32 0 0 0 3-3l1-2a8 8 0 0 1 3-3 23 23 0 0 1 4 5 8 8 0 0 1 1 4l-5 3a32 32 0 0 1-5 2 6 6 0 0 0-2 1 1 1 0 0 0 0 2 2 2 0 0 0 2 0 10 10 0 0 0 2-1 17 17 0 0 0 2-1 8 8 0 0 1 1-1v-1h2l3-1a4 4 0 0 1 2 0Z"/><path fill="#e0ecbb" d="M184 152v2l-2 1-4 1a26 26 0 0 1-2 1 13 13 0 0 1-2 0 4 4 0 0 1-1 0 2 2 0 0 1-1-2 21 21 0 0 1 0-3v-3h1a6 6 0 0 1 2 0l3 2a24 24 0 0 0 3 1 12 12 0 0 0 2 0 8 8 0 0 0 1 0Z"/><path fill="#af724c" d="m181 574-1 1c-2 4-6 8-11 10-7 5-14 7-22 8-15 2-33 0-46-9a29 29 0 0 1-10-9 17 17 0 0 1-2-9c0-8 6-14 12-18 7-5 16-7 25-8l1 8-6 1a56 56 0 0 0-9 3 39 39 0 0 0-7 4 26 26 0 0 0-4 3 16 16 0 0 0-2 3 9 9 0 0 0-2 3 8 8 0 0 0 0 3 10 10 0 0 0 2 4 19 19 0 0 0 3 3 31 31 0 0 0 6 4 46 46 0 0 0 7 3 60 60 0 0 0 10 2 71 71 0 0 0 21 0 62 62 0 0 0 9-2 47 47 0 0 0 8-3 32 32 0 0 0 6-4 19 19 0 0 0 2-2 15 15 0 0 0 1-1 13 13 0 0 0 1-2 8 8 0 0 0 1-2 8 8 0 0 0 0-2 8 8 0 0 0 0-2 10 10 0 0 0-1-1 14 14 0 0 0-1-3 19 19 0 0 0-3-2 27 27 0 0 0-2-2 37 37 0 0 0-7-3 53 53 0 0 0-8-3 66 66 0 0 0-10-2h-4v-9c10 1 19 2 28 7 7 3 17 11 17 21a17 17 0 0 1-2 7Z"/><path fill="#af724c" d="m180 575-19 70c-5 7-15 9-22 10-8 0-17-1-24-5a17 17 0 0 1-5-5l-8-30-11-40a29 29 0 0 0 10 10 71 71 0 0 0 68 0c5-2 9-6 11-10Z"/><path fill="#55331b" d="M174 566a8 8 0 0 1 0 2 8 8 0 0 1-1 2 13 13 0 0 1-1 2 15 15 0 0 1-1 1 19 19 0 0 1-2 2 32 32 0 0 1-6 4 47 47 0 0 1-8 3 62 62 0 0 1-9 2 71 71 0 0 1-21 0 60 60 0 0 1-10-2 46 46 0 0 1-7-3 31 31 0 0 1-6-4 19 19 0 0 1-3-3 10 10 0 0 1-2-4 8 8 0 0 1 0-3 9 9 0 0 1 2-3 16 16 0 0 1 2-3 26 26 0 0 1 4-3 39 39 0 0 1 7-4 56 56 0 0 1 9-3l6-1 4 29h3l-5-29h7v19h2v-19h4a66 66 0 0 1 10 2 53 53 0 0 1 8 3 37 37 0 0 1 7 3 27 27 0 0 1 2 2 19 19 0 0 1 3 2 14 14 0 0 1 1 2 10 10 0 0 1 1 2 8 8 0 0 1 0 2Z"/><path fill="#e8f1d1" d="M152 223a84 84 0 0 1 1 15h-1l-1-9a14 14 0 0 0-1-4 4 4 0 0 0-2-2l-1 1a6 6 0 0 0 0 1v5a11 11 0 0 1-1 3 11 11 0 0 1-2 3 8 8 0 0 1-4 3 13 13 0 0 1-5 0 6 6 0 0 1-2-1c-1 0 0 0 0 0a15 15 0 0 0 3-2 24 24 0 0 0 4-4 15 15 0 0 0 2-4v-2a3 3 0 0 0-2-1 3 3 0 0 0-2 1 8 8 0 0 0-2 3 27 27 0 0 1-2 4 12 12 0 0 1-3 3 10 10 0 0 1-2 1 6 6 0 0 1-4 0 14 14 0 0 1-4-2 22 22 0 0 1-4-4v-1h4a22 22 0 0 0 5-2 30 30 0 0 0 7-4 10 10 0 0 0 3-4 4 4 0 0 0 0-3 2 2 0 0 0-2-1 4 4 0 0 0-2 1 31 31 0 0 0-4 2l-5 3a42 42 0 0 1-5 3 9 9 0 0 1-3 1 2 2 0 0 1-2 0 14 14 0 0 1-1-3 24 24 0 0 1-2-9h2a43 43 0 0 0 8 1 46 46 0 0 0 8-1l4-2a1 1 0 0 0 0-2 5 5 0 0 0-4 0l-6 2a49 49 0 0 1-7 1 11 11 0 0 1-3-1 4 4 0 0 1-1 0 3 3 0 0 1-2-2 24 24 0 0 1 0-5v-1a1 1 0 0 1 1 0 5 5 0 0 1 1 0l3 1a22 22 0 0 0 5 0h5a13 13 0 0 0 4-1 2 2 0 0 0 2-2 2 2 0 0 0-1-2 4 4 0 0 0-3 0h-4l-5 1a18 18 0 0 1-5 0 5 5 0 0 1-1 0 4 4 0 0 1-2-1v-9l3 1 3 1a27 27 0 0 0 4 1 12 12 0 0 0 4 0 2 2 0 0 0 2-2 2 2 0 0 0-1-1 7 7 0 0 0-3-1h-5a31 31 0 0 1-4-1l-2-1v-3a40 40 0 0 1 3-10l20 14a66 66 0 0 1 7 7 52 52 0 0 1 6 9 62 62 0 0 1 6 18Z"/><path fill="#a36a47" d="M136 539v9h-7l-1-8 8-1Z"/><path fill="#e8f1d1" d="M49 459a8 8 0 0 0 1-1 5 5 0 0 0 2-5 4 4 0 0 0-3-3 5 5 0 0 0-1 0l-5 1-8 4-10 5-10 4a9 9 0 0 1-7-2c-1-1-2-2-4-16h13a61 61 0 0 0 9-2l8-2a3 3 0 0 0 1-4 4 4 0 0 0-3-3l-6 1-10 2a66 66 0 0 1-10 1l-3-1-2-6v-22c32 7 41 11 49 15a140 140 0 0 1 19 11 111 111 0 0 1 17 14 131 131 0 0 1 24 32 201 201 0 0 1 19 66l5 29h-3a922 922 0 0 0-5-37 233 233 0 0 0-7-29c-3-10-5-14-7-17a29 29 0 0 0-6-7 8 8 0 0 0-4-2l-2 1a14 14 0 0 0 1 3l1 4 2 5a22 22 0 0 1 1 7 24 24 0 0 1-3 9 17 17 0 0 1-6 7 29 29 0 0 1-9 4 14 14 0 0 1-6 0l1-2a32 32 0 0 0 4-5 49 49 0 0 0 6-10 31 31 0 0 0 2-10c0-2 0-3-2-4a7 7 0 0 0-4 0 6 6 0 0 0-4 3 18 18 0 0 0-2 6c0 3 0 7-2 11a25 25 0 0 1-6 10 13 13 0 0 1-9 3 30 30 0 0 1-11-2 49 49 0 0 1-9-5c-2-1-1-1 0-2l4-2 2-1a47 47 0 0 0 10-7 64 64 0 0 0 10-12c3-4 4-7 4-10l-1-6a4 4 0 0 0-4-1l-4 2a63 63 0 0 0-6 7l-8 11a89 89 0 0 1-9 9 20 20 0 0 1-5 4 3 3 0 0 1-4 0l-4-5c-2-3-6-7-10-16a86 86 0 0 0 20-5l9-3a57 57 0 0 0 8-4c4-2 6-5 6-7a3 3 0 0 0-2-3c-2-1-5 0-7 2l-5 2-6 5a104 104 0 0 1-15 7l-8 1c-2 0-3-2-5-4a47 47 0 0 1-3-8v-4l3-1h7a45 45 0 0 0 9-2l11-5a42 42 0 0 0 7-3Z"/><path fill="#e0ecbb" d="M134 437h-1a138 138 0 0 0-4-14 19 19 0 0 0-4-5 5 5 0 0 0-3-2l-1 1a9 9 0 0 0 0 2l1 2 1 4a14 14 0 0 1 0 5 16 16 0 0 1-2 5 11 11 0 0 1-5 4 19 19 0 0 1-6 2 9 9 0 0 1-4 0l1-1a22 22 0 0 0 3-3 33 33 0 0 0 4-6 20 20 0 0 0 2-7c1-1 0-2-1-2a5 5 0 0 0-3-1 4 4 0 0 0-2 2 12 12 0 0 0-2 4 39 39 0 0 1-2 7 16 16 0 0 1-4 6 8 8 0 0 1-6 2 20 20 0 0 1-7-2 31 31 0 0 1-6-4v-1l4-2a30 30 0 0 0 7-4 42 42 0 0 0 8-7 14 14 0 0 0 3-6 5 5 0 0 0-1-4 3 3 0 0 0-2-1 5 5 0 0 0-3 1 43 43 0 0 0-4 4l-6 7a58 58 0 0 1-6 5 13 13 0 0 1-4 2 2 2 0 0 1-2 0 18 18 0 0 1-3-3 33 33 0 0 1-6-11l3-1a60 60 0 0 0 11-1 64 64 0 0 0 11-4c3-1 4-3 5-4a2 2 0 0 0-2-2c-1-1-3 0-5 1l-7 3a66 66 0 0 1-10 4 16 16 0 0 1-3 1 5 5 0 0 1-2 0l-3-3a32 32 0 0 1-2-6v-2a4 4 0 0 1 3-1l4 1a29 29 0 0 0 6-1l8-3 5-2a3 3 0 0 0 1-3 3 3 0 0 0-2-2 6 6 0 0 0-3 0l-5 2-8 3a26 26 0 0 1-6 2 6 6 0 0 1-4-2c-1 0-2-1-2-11l3 1h5a41 41 0 0 0 6 0 16 16 0 0 0 5-2 2 2 0 0 0 1-2 3 3 0 0 0-1-2 10 10 0 0 0-4 0l-7 1a43 43 0 0 1-6 0l-3-1v-4a55 55 0 0 1 1-14l31 12a91 91 0 0 1 12 9 72 72 0 0 1 10 10 85 85 0 0 1 14 22 118 118 0 0 1 6 22Z"/><path fill="#f7fcfe" d="m74 480 1 6c0 3-1 6-4 10a64 64 0 0 1-10 12 47 47 0 0 1-10 7l-2 1v-14l3-3 8-11a63 63 0 0 1 6-6l4-3a4 4 0 0 1 4 1Zm-13-11a3 3 0 0 1 2 3c0 2-2 5-6 7a57 57 0 0 1-8 4v-9l4-3c3-2 6-3 8-2Zm-9-16a5 5 0 0 1-2 5 8 8 0 0 1-1 1v-9a4 4 0 0 1 3 3Z"/><path fill="none" stroke="#000" stroke-linecap="round" stroke-linejoin="round" d="M71 413a5 5 0 0 1-2-1l-3-2a32 32 0 0 1-2-6v-2a4 4 0 0 1 3-1h4a29 29 0 0 0 6 0l8-3 5-2a3 3 0 0 0 1-3 3 3 0 0 0-2-2 6 6 0 0 0-3 0l-5 2-8 3a26 26 0 0 1-6 2 6 6 0 0 1-4-2c-1 0-2-1-2-11l3 1h5a41 41 0 0 0 6 0 16 16 0 0 0 5-2 2 2 0 0 0 2-2 3 3 0 0 0-2-2 10 10 0 0 0-4 0l-7 1a43 43 0 0 1-6 0l-3-1v-4a55 55 0 0 1 1-14c20 6 26 10 31 12a91 91 0 0 1 12 8 72 72 0 0 1 10 11 85 85 0 0 1 14 22 118 118 0 0 1 6 22l1 9 1 9a1106 1106 0 0 1 16-217s0 0 0 0l-1-9a14 14 0 0 0-1-4 4 4 0 0 0-2-2l-1 1a6 6 0 0 0 0 1v5a11 11 0 0 1-1 3 11 11 0 0 1-2 3 8 8 0 0 1-4 3 13 13 0 0 1-5 0 6 6 0 0 1-2-1c-1 0 0 0 0 0h0a15 15 0 0 0 3-2 24 24 0 0 0 4-4 15 15 0 0 0 2-4v-2a3 3 0 0 0-2-1 3 3 0 0 0-2 1 8 8 0 0 0-2 3 27 27 0 0 1-2 4 12 12 0 0 1-3 3 10 10 0 0 1-2 1 6 6 0 0 1-4 0 14 14 0 0 1-4-2 22 22 0 0 1-4-4v-1h4a22 22 0 0 0 5-2 30 30 0 0 0 7-4 10 10 0 0 0 3-4 4 4 0 0 0 0-3 2 2 0 0 0-2-1 4 4 0 0 0-2 1 31 31 0 0 0-4 2l-5 3a42 42 0 0 1-5 3 9 9 0 0 1-3 1 2 2 0 0 1-2 0 14 14 0 0 1-1-3 24 24 0 0 1-2-9h2a43 43 0 0 0 8 1 46 46 0 0 0 8-1l4-2a1 1 0 0 0 0-2 5 5 0 0 0-4 0l-6 2a49 49 0 0 1-7 1 11 11 0 0 1-3-1 4 4 0 0 1-1 0 3 3 0 0 1-2-2 24 24 0 0 1 0-5v-1a1 1 0 0 1 1 0 5 5 0 0 1 1 0l3 1a22 22 0 0 0 5 0h5a13 13 0 0 0 4-1 2 2 0 0 0 2-2 2 2 0 0 0-1-2 4 4 0 0 0-3 0h-4l-5 1a18 18 0 0 1-5 0 5 5 0 0 1-1 0 4 4 0 0 1-2-1v-9l3 1 3 1a27 27 0 0 0 4 1 12 12 0 0 0 4 0 2 2 0 0 0 2-2 2 2 0 0 0-1-1 7 7 0 0 0-3-1h-5a31 31 0 0 1-4-1l-2-1v-3a40 40 0 0 1 3-10l20 14a66 66 0 0 1 7 7 52 52 0 0 1 6 9 62 62 0 0 1 6 18 84 84 0 0 1 1 15 122 122 0 0 1-2 16 139 139 0 0 1 11-26 136 136 0 0 1 21-30l5-12 4-10a29 29 0 0 0 1-5l1-1a34 34 0 0 0-1-7v-1a18 18 0 0 0-1 3 6 6 0 0 1-1 2 9 9 0 0 1-2 1 6 6 0 0 1-3 1 7 7 0 0 1-3 0 14 14 0 0 1-2-1v-1a3 3 0 0 1 0 0 10 10 0 0 0 1 0 12 12 0 0 0 3 0 10 10 0 0 0 2-1 6 6 0 0 0 1-2 4 4 0 0 0 1-1 2 2 0 0 0 0-1 1 1 0 0 0-1-1 2 2 0 0 0-2 0 20 20 0 0 0-1 2 15 15 0 0 1-3 2h-1a7 7 0 0 1-1 1 3 3 0 0 1-2-1 9 9 0 0 1-3-1 6 6 0 0 1-1-2 7 7 0 0 1-1-2 4 4 0 0 1 0-1s0 0 0 0a1 1 0 0 1 1 0l1 1a10 10 0 0 0 3 0 14 14 0 0 0 2 0 20 20 0 0 0 3-1 8 8 0 0 0 2-1 6 6 0 0 0 2-1 1 1 0 0 0 0-2 3 3 0 0 0-2-1 4 4 0 0 0-1 0l-2 1-4 1a26 26 0 0 1-2 1 13 13 0 0 1-2 0 4 4 0 0 1-1 0 1 1 0 0 1 0 0 2 2 0 0 1-1-2 21 21 0 0 1 0-3v-2l1-1a6 6 0 0 1 2 0l3 2a24 24 0 0 0 3 1 12 12 0 0 0 2 0 8 8 0 0 0 1 0 6 6 0 0 0 1 0h1l-1-2a7 7 0 0 0-2-1 5 5 0 0 0-2 0h-2a9 9 0 0 1-2 0 10 10 0 0 1-3-1 3 3 0 0 1-1-1 2 2 0 0 1 0-2 12 12 0 0 1 1-2 3 3 0 0 1 0-1l2 1 3 1a19 19 0 0 0 4 2 6 6 0 0 0 2 0 2 2 0 0 0 1-1 1 1 0 0 0 1-1 2 2 0 0 0-1-1 10 10 0 0 0-3 0l-3-1a13 13 0 0 1-2 0 11 11 0 0 1-2-1 2 2 0 0 1-1-1 4 4 0 0 1 0-2 10 10 0 0 1 1-2 3 3 0 0 1 0-1h1l3 2a22 22 0 0 0 3 2 4 4 0 0 0 2 0 1 1 0 0 0 1 0 1 1 0 0 0-1-1 11 11 0 0 0-2-2l-2-1-2-1-1-1a4 4 0 0 1 1-2 16 16 0 0 1 1-3l2-2a6 6 0 0 0 1-1 95 95 0 0 1 7 3 1 1 0 0 1 0 0 4 4 0 0 0 0 0 7 7 0 0 0-1 2 17 17 0 0 0-1 3 4 4 0 0 0 0 1 1 1 0 0 0 1 1h1a8 8 0 0 0 1-2 16 16 0 0 0 0-3 7 7 0 0 0 0-1v-1h1a5 5 0 0 1 2 0 5 5 0 0 1 1 1 3 3 0 0 1 1 2 3 3 0 0 1 0 2 8 8 0 0 1-1 1l-2 2a13 13 0 0 0-1 2 5 5 0 0 0-1 2s0 0 0 0a6 6 0 0 0 2-1 7 7 0 0 0 2-1 18 18 0 0 0 1-2 27 27 0 0 0 1-3l1-2 4 3a3 3 0 0 1 0 3 9 9 0 0 1-2 2l-3 3-2 2a4 4 0 0 0-1 2 1 1 0 0 0 0 1h2a11 11 0 0 0 2-2 32 32 0 0 0 3-3l1-2a8 8 0 0 1 3-3 23 23 0 0 1 4 5 8 8 0 0 1 1 4l-5 3h-1a32 32 0 0 1-4 2 6 6 0 0 0-2 1 1 1 0 0 0 0 2 2 2 0 0 0 2 0 10 10 0 0 0 2-1 17 17 0 0 0 1-1 8 8 0 0 1 2-1v-1h2l3-1a4 4 0 0 1 2 0v6a5 5 0 0 1-1 3 8 8 0 0 1-2 1 4 4 0 0 1-2 0h-3l-4-1a21 21 0 0 0-2 0l-1 1a1 1 0 0 0 0 1 6 6 0 0 0 2 1 8 8 0 0 0 2 0 22 22 0 0 0 3 0 26 26 0 0 0 3 0 8 8 0 0 0 3-1 11 11 0 0 1-4 5 6 6 0 0 1-4 1 7 7 0 0 1-3-1 11 11 0 0 1-2-2l-2-1a3 3 0 0 0 0-1l-1 1 1 3a34 34 0 0 1-1 5v2a54 54 0 0 1-3 9l-5 13c21-21 49-37 84-53l44-21 15-13 1-1a21 21 0 0 0 3-5 9 9 0 0 0 1-3 2 2 0 0 0 0-2h0a4 4 0 0 0-1 1l-1 1-1 1a7 7 0 0 1-2 2 8 8 0 0 1-3 1 6 6 0 0 1-3-1 9 9 0 0 1-2-2 4 4 0 0 1-1-1s0 0 0 0a2 2 0 0 1 0 0 10 10 0 0 0 3 0 16 16 0 0 0 3 0 10 10 0 0 0 3-1l1-2a2 2 0 0 0-1-1 2 2 0 0 0-1 0 6 6 0 0 0-2 0 19 19 0 0 1-3 2 8 8 0 0 1-3 0 7 7 0 0 1-1 0 4 4 0 0 1-3-2 10 10 0 0 1-1-3 15 15 0 0 1 0-3v-1a1 1 0 0 1 0 0l2 1a15 15 0 0 0 4 2 20 20 0 0 0 5 0 7 7 0 0 0 3 0 3 3 0 0 0 1-2 1 1 0 0 0 0-1h0a3 3 0 0 0-1-1 20 20 0 0 0-3 0h-4a30 30 0 0 1-4-1 9 9 0 0 1-2-1 3 3 0 0 1 0 0 1 1 0 0 1-1-1 9 9 0 0 1 1-2 16 16 0 0 1 2-5 27 27 0 0 0 5 4 32 32 0 0 0 5 4 6 6 0 0 0 2 0 2 2 0 0 0 1 0 1 1 0 0 0 0-1 4 4 0 0 0-1-2l-4-2a32 32 0 0 1-5-2 5 5 0 0 1-1-2 2 2 0 0 1 0-2 16 16 0 0 1 2-3h1v1l2 1a14 14 0 0 0 2 3l3 2a9 9 0 0 0 2 1 2 2 0 0 0 2 0 1 1 0 0 0 0-2 3 3 0 0 0-1-1l-2-2-3-1a13 13 0 0 1-3-2 3 3 0 0 1-1-2l4-5 1 2 1 2a19 19 0 0 0 2 2 8 8 0 0 0 2 2 1 1 0 0 0 1 0 1 1 0 0 0 1-2 5 5 0 0 0-2-1l-2-3a21 21 0 0 1-2-2v-1l1-2a27 27 0 0 1 6-3l4 15a45 45 0 0 1 1 7 35 35 0 0 1-1 7 42 42 0 0 1-5 12 59 59 0 0 1-7 10l-2 2-9 9c20-10 41-22 59-37l5-10 4-9a24 24 0 0 0 1-4 25 25 0 0 0 0-7h-1a16 16 0 0 0-1 2 5 5 0 0 1-1 1 8 8 0 0 1-1 2 5 5 0 0 1-2 1 6 6 0 0 1-3-1 12 12 0 0 1-2 0v-1a3 3 0 0 1 1 0 7 7 0 0 0 0 0 11 11 0 0 0 2-1 9 9 0 0 0 2 0 5 5 0 0 0 1-2 3 3 0 0 0 1-1 2 2 0 0 0 0-1 1 1 0 0 0-1 0 2 2 0 0 0-1 0 17 17 0 0 0-2 1 14 14 0 0 1-2 2h-1a6 6 0 0 1-1 1 3 3 0 0 1-2-1 8 8 0 0 1-2-1 5 5 0 0 1-1-1 6 6 0 0 1-1-2 4 4 0 0 1 0-1h2a8 8 0 0 0 2 1 12 12 0 0 0 3 0 18 18 0 0 0 2-1 7 7 0 0 0 2-1 5 5 0 0 0 2-1 1 1 0 0 0 0-1 2 2 0 0 0-2-1 3 3 0 0 0-1 0l-2 1-3 1a21 21 0 0 1-2 0 11 11 0 0 1-2 0h0a1 1 0 0 1-1 0 2 2 0 0 1 0-1 17 17 0 0 1 0-3v-3a5 5 0 0 1 2 1l2 1a23 23 0 0 0 3 1 11 11 0 0 0 2 0 6 6 0 0 0 1 0 4 4 0 0 0 1 0h1l-1-2a6 6 0 0 0-2-1 3 3 0 0 0-1 0h-3a7 7 0 0 1-2 0 9 9 0 0 1-2-1 3 3 0 0 1-1-1 2 2 0 0 1 0-1 12 12 0 0 1 1-1 3 3 0 0 1 0-2l2 1 3 1a17 17 0 0 0 3 2h0a4 4 0 0 0 2 0 2 2 0 0 0 1-1 1 1 0 0 0 0-1 1 1 0 0 0-1 0 8 8 0 0 0-2-1h-2a11 11 0 0 1-2-1 9 9 0 0 1-2-1 2 2 0 0 1-1-1 4 4 0 0 1 0-1 9 9 0 0 1 1-2 2 2 0 0 1 0-1h1l2 2a18 18 0 0 0 3 2 3 3 0 0 0 1 0 1 1 0 0 0 1 0 1 1 0 0 0 0-1 9 9 0 0 0-2-2l-2-1h-2l-1-1a3 3 0 0 1 1-2 12 12 0 0 1 1-2l2-2a6 6 0 0 0 1-1l4 1 2 1c1 0 0 0 0 0a1 1 0 0 1 0 0 4 4 0 0 0 0 1 6 6 0 0 0-1 1 15 15 0 0 0-1 2 4 4 0 0 0 1 2 1 1 0 0 0 0 0h1a6 6 0 0 0 0-2 13 13 0 0 0 1-2 5 5 0 0 0 0-1s0 0 0 0v-1s0 0 0 0a4 4 0 0 1 2 1 4 4 0 0 1 1 1 2 2 0 0 1 1 1 3 3 0 0 1 0 1 7 7 0 0 1-1 2l-2 2a11 11 0 0 0-1 1 4 4 0 0 0 0 1v1a5 5 0 0 0 2-1 6 6 0 0 0 1-1 16 16 0 0 0 1-2 23 23 0 0 0 1-2l1-2 3 3a2 2 0 0 1 0 2 8 8 0 0 1-2 2l-2 3-2 1a4 4 0 0 0-1 2 1 1 0 0 0 1 1h1a9 9 0 0 0 2-2 28 28 0 0 0 2-3l1-2a7 7 0 0 1 3-2 19 19 0 0 1 3 4 6 6 0 0 1 1 4l-4 2h-1l-2 1-2 1a5 5 0 0 0-1 1 1 1 0 0 0-1 1 1 1 0 0 0 1 1 1 1 0 0 0 1 0 9 9 0 0 0 2-1 16 16 0 0 0 1-1 7 7 0 0 1 2-1 4 4 0 0 1 0 0l1-1 3-1a3 3 0 0 1 1 0l1 6a4 4 0 0 1-1 2 7 7 0 0 1-2 1 4 4 0 0 1-2 0h-3l-2-1a17 17 0 0 0-3 0v1a1 1 0 0 0 0 0 5 5 0 0 0 1 1 6 6 0 0 0 2 1 17 17 0 0 0 3 0 21 21 0 0 0 2 0 7 7 0 0 0 3-1 9 9 0 0 1-4 4 5 5 0 0 1-3 1 6 6 0 0 1-2-1 9 9 0 0 1-2-1l-1-2a3 3 0 0 0-1 0s0 0 0 0v3a29 29 0 0 1-1 5v1a47 47 0 0 1-2 8l-5 12c16-13 29-29 39-48q9-23 9-32c0 10-3 25-6 33a141 141 0 0 1-14 21 156 156 0 0 1-16 19 190 190 0 0 1-18 15 246 246 0 0 1-41 26 501 501 0 0 1-42 20l-20 10-18 9a540 540 0 0 0 4-1 77 77 0 0 1 16-4 54 54 0 0 1 17 2 45 45 0 0 1 9 3 58 58 0 0 1 8 4c3 2 6 4 15 14a35 35 0 0 1-7 5h-3l-1-1a27 27 0 0 1-1-3l-2-4a6 6 0 0 0-1-3 2 2 0 0 0-2 0 1 1 0 0 0-1 1 10 10 0 0 0 1 4 24 24 0 0 0 2 3l1 3h1v2l-6 2a4 4 0 0 1-2-1 4 4 0 0 1 0-1 16 16 0 0 1-1-5v-4l-1-4a4 4 0 0 0-1-2 2 2 0 0 0-1-1 2 2 0 0 0-2 2 11 11 0 0 0 0 4l1 5a19 19 0 0 0 1 3l2 3a3 3 0 0 1 0 1l-1 1a20 20 0 0 1-4 1 3 3 0 0 1-2-1 3 3 0 0 1-1-1 9 9 0 0 1-1-2 42 42 0 0 1 0-7v-5a5 5 0 0 0-1-3 1 1 0 0 0-2 0l-1 4a41 41 0 0 0 1 7 39 39 0 0 0 3 7v1a21 21 0 0 1-8 0 12 12 0 0 1-2-1 1 1 0 0 1-1-1 8 8 0 0 1 0-3 36 36 0 0 1 1-5l2-5a26 26 0 0 0 1-3 3 3 0 0 0 0-2 2 2 0 0 0-1-1 3 3 0 0 0-2 0 9 9 0 0 0-3 4 27 27 0 0 0-2 6 20 20 0 0 0 0 5v3l-1 1a21 21 0 0 1-4-3 13 13 0 0 1-3-3 5 5 0 0 1 0-4 9 9 0 0 1 0-1 11 11 0 0 1 2-3 24 24 0 0 1 3-3 7 7 0 0 0 2-2 2 2 0 0 0 0-2 3 3 0 0 0-1-2h-2a13 13 0 0 0-3 3 21 21 0 0 0-2 5 13 13 0 0 0-1 2v1h0a6 6 0 0 1-2-2 12 12 0 0 1 0-4 7 7 0 0 1 1-4 10 10 0 0 1 2-3 9 9 0 0 1 3-1l2-1h2a5 5 0 0 0 1 0v-1a3 3 0 0 0-1-1 12 12 0 0 0-4-1 27 27 0 0 0-8 1l-3 1-22 10-16 9a225 225 0 0 0-27 20 145 145 0 0 0-11 12 132 132 0 0 0-18 26l-4 8-3 8a169 169 0 0 0-5 19 281 281 0 0 0-7 40v2a578 578 0 0 0-4 58l-1 21a896 896 0 0 1 18-42l1-2a70 70 0 0 1 7-10l6-5v-1a7 7 0 0 0-3 0h-4a21 21 0 0 1-7 0 15 15 0 0 1-5-3 13 13 0 0 1-5-6 21 21 0 0 1-1-9 35 35 0 0 1 1-6 17 17 0 0 0 4 7 56 56 0 0 0 5 4 45 45 0 0 0 4 4 17 17 0 0 0 5 2 13 13 0 0 0 4 1 2 2 0 0 0 2-1l-1-2a44 44 0 0 0-4-3l-6-4-6-4a9 9 0 0 1-3-3 17 17 0 0 1-1-6 10 10 0 0 1 1-5c1-3 2-5 10-10l3 4 3 5a26 26 0 0 1 2 4 17 17 0 0 1 1 3 38 38 0 0 0 1 5 21 21 0 0 0 2 5 4 4 0 0 0 2 2 3 3 0 0 0 2-1 3 3 0 0 0 2-2 12 12 0 0 0-2-4l-2-5a68 68 0 0 1-3-7l-5-11a16 16 0 0 1 8-5 48 48 0 0 1 13-2 18 18 0 0 1 1 8l-1 6a64 64 0 0 0 0 8 23 23 0 0 0 1 7l2 2a3 3 0 0 0 2-2 9 9 0 0 0 1-4l-1-6v-9a20 20 0 0 1 1-7 6 6 0 0 1 4-4l10 1-2 4a53 53 0 0 0-1 6 37 37 0 0 0-1 5 14 14 0 0 0 0 4 13 13 0 0 0 1 5h2a10 10 0 0 0 1-4 27 27 0 0 0 1-5v-5a18 18 0 0 1 0-4 7 7 0 0 1 2-3 6 6 0 0 1 3-2 11 11 0 0 1 5 1 11 11 0 0 1 3 1v2l-1 1a13 13 0 0 0-2 2 34 34 0 0 0-2 5 16 16 0 0 0-1 4l1 2a2 2 0 0 0 2-1 9 9 0 0 0 2-2 35 35 0 0 0 3-5 15 15 0 0 0 1-4v-2h2l4 2 10 5a14 14 0 0 0-1 3v5a32 32 0 0 1 0 6 9 9 0 0 1-3 5h-3l-4-1-5-1a22 22 0 0 0-6-1l-2 2a2 2 0 0 0 0 2 9 9 0 0 0 4 1 46 46 0 0 0 7 2h7l2 1a6 6 0 0 1 0 2 23 23 0 0 1-2 5 9 9 0 0 1-3 3 4 4 0 0 1-3 0 23 23 0 0 1-5-1 28 28 0 0 1-4-2l-5-4a21 21 0 0 0-5-2 3 3 0 0 0-3 0 2 2 0 0 0-1 2 5 5 0 0 0 1 3 12 12 0 0 0 4 3 42 42 0 0 0 8 3l8 2 3 1a7 7 0 0 1 0 3 29 29 0 0 1-2 4 5 5 0 0 1-2 2 6 6 0 0 1-4 0 22 22 0 0 1-5-2 19 19 0 0 1-4-3l-4-3a11 11 0 0 0-3-2 15 15 0 0 0-5-2l-3 1a3 3 0 0 0 1 3 12 12 0 0 0 2 3 26 26 0 0 0 5 2 53 53 0 0 0 6 3l4 1 4 1a13 13 0 0 1 4 2l-1 2-4 4a46 46 0 0 1-4 5 5 5 0 0 1-3 1 3 3 0 0 1-2-1 25 25 0 0 1-3-3 52 52 0 0 1-3-4l-4-7-4-6a6 6 0 0 0-5-1 3 3 0 0 0-2 2 13 13 0 0 0 0 5 17 17 0 0 0 3 5 48 48 0 0 0 3 5 32 32 0 0 0 5 4 21 21 0 0 0 5 3l3 1 1 1a9 9 0 0 1-3 2 15 15 0 0 1-4 2 13 13 0 0 1-5 1 20 20 0 0 1-5-1 7 7 0 0 1-3-3 18 18 0 0 1-3-5 33 33 0 0 1-2-6 40 40 0 0 0 0-5 5 5 0 0 0-3-4 3 3 0 0 0-2 0 4 4 0 0 0-2 2 8 8 0 0 0 0 3 13 13 0 0 0 0 5 22 22 0 0 0 2 5 27 27 0 0 0 3 4l2 2-1 1a30 30 0 0 1-5-2 15 15 0 0 1-5-3 12 12 0 0 1-3-5 19 19 0 0 1-1-6 12 12 0 0 1 2-4 40 40 0 0 0 2-6c0-1-1-1-2 1l-12 12a61 61 0 0 0-5 10 278 278 0 0 0-15 47v18l-1 67v13l1-9a131 131 0 0 1 6-24 95 95 0 0 1 14-25 80 80 0 0 1 11-12 102 102 0 0 1 14-9c5-4 11-7 33-15a61 61 0 0 1 2 16v4l-3 1a48 48 0 0 1-7 0l-7-1a11 11 0 0 0-5 1 3 3 0 0 0-2 2 2 2 0 0 0 2 2 18 18 0 0 0 6 2 43 43 0 0 0 6 0l5-1h4c0 11 0 12-2 12a7 7 0 0 1-4 2 29 29 0 0 1-7-2l-8-3-6-2a7 7 0 0 0-4 0 3 3 0 0 0-3 2 4 4 0 0 0 2 4l6 2 8 3a33 33 0 0 0 7 0h5a4 4 0 0 1 3 0v3a35 35 0 0 1-2 6l-3 3h-6a74 74 0 0 1-11-4l-8-4-6-1a2 2 0 0 0-1 3c0 2 2 3 5 5a70 70 0 0 0 13 3 62 62 0 0 0 15 2 37 37 0 0 1-6 12 21 21 0 0 1-3 4 2 2 0 0 1-2 1 14 14 0 0 1-5-3 66 66 0 0 1-7-6l-7-7a48 48 0 0 0-4-4 6 6 0 0 0-3-1 3 3 0 0 0-3 1 6 6 0 0 0-1 4 15 15 0 0 0 4 7 47 47 0 0 0 9 8 34 34 0 0 0 7 4l5 1v2a35 35 0 0 1-6 4 22 22 0 0 1-8 3 9 9 0 0 1-6-2 18 18 0 0 1-6-7l-2-7a13 13 0 0 0-2-5 4 4 0 0 0-3-2 5 5 0 0 0-3 1l-1 3a23 23 0 0 0 2 7 37 37 0 0 0 5 7 24 24 0 0 0 4 3v1a10 10 0 0 1-4 1 21 21 0 0 1-7-2 13 13 0 0 1-5-5 18 18 0 0 1-2-6 16 16 0 0 1 0-5v-4l1-3a10 10 0 0 0 0-2l-1-1a6 6 0 0 0-3 2 21 21 0 0 0-4 6 48 48 0 0 0-4 15c-1 7-2 19-2 46v32h-3v-88a288 288 0 0 0-4-44l-3-11a19 19 0 0 0-4-5 5 5 0 0 0-3-2l-1 1a9 9 0 0 0 1 2v2l1 4a14 14 0 0 1 0 5 16 16 0 0 1-2 5 11 11 0 0 1-5 4 19 19 0 0 1-6 2 9 9 0 0 1-4 0l1-1a22 22 0 0 0 3-3 33 33 0 0 0 4-6 20 20 0 0 0 2-7c1-1 0-2-1-2a5 5 0 0 0-3-1 4 4 0 0 0-2 2 12 12 0 0 0-2 4 39 39 0 0 1-2 7 16 16 0 0 1-4 6 8 8 0 0 1-6 2 20 20 0 0 1-7-2 31 31 0 0 1-6-4v-1l4-2a30 30 0 0 0 7-4 42 42 0 0 0 8-7 14 14 0 0 0 3-6 5 5 0 0 0-1-4 3 3 0 0 0-2-1 5 5 0 0 0-3 1 43 43 0 0 0-4 4l-6 7a58 58 0 0 1-6 5 13 13 0 0 1-4 2 2 2 0 0 1-2 0 18 18 0 0 1-3-3 33 33 0 0 1-6-12h3a60 60 0 0 0 11-1 64 64 0 0 0 11-4c3-1 4-3 5-4a2 2 0 0 0-2-2h-4l-8 4a66 66 0 0 1-10 4 16 16 0 0 1-3 1Zm90 232 19-70m-70 70-8-30-11-40m70 70c-5 7-15 9-22 10-8 0-17-1-24-5a17 17 0 0 1-5-5m19-97h7m-8-8 8-1m3 0h0c9 1 18 2 27 7 7 3 17 10 17 20a17 17 0 0 1-2 8l-1 1h0c-2 4-6 8-11 10-7 5-14 7-22 8-15 2-33 0-46-8a29 29 0 0 1-10-10 17 17 0 0 1-2-8c0-8 6-15 12-18 7-6 16-8 25-9"/><path fill="none" stroke="#000" stroke-linecap="round" stroke-linejoin="round" d="M138 548h4a66 66 0 0 1 10 2 53 53 0 0 1 8 3 37 37 0 0 1 7 3 27 27 0 0 1 2 2 19 19 0 0 1 3 2 14 14 0 0 1 1 2 10 10 0 0 1 1 2 8 8 0 0 1 0 2 8 8 0 0 1 0 2 8 8 0 0 1-1 2 13 13 0 0 1-1 2 15 15 0 0 1-1 1 19 19 0 0 1-2 2 32 32 0 0 1-6 4 47 47 0 0 1-7 3 62 62 0 0 1-10 2 71 71 0 0 1-21 0 60 60 0 0 1-10-2 46 46 0 0 1-7-3 31 31 0 0 1-6-4 19 19 0 0 1-3-3 10 10 0 0 1-2-4 8 8 0 0 1 0-3 9 9 0 0 1 2-3 16 16 0 0 1 2-3 26 26 0 0 1 4-3 39 39 0 0 1 7-4 56 56 0 0 1 9-3l6-1m276 150-4-3m-6 41h2v1a1 1 0 0 0 1 0l1-1a1 1 0 0 1 0 0 1 1 0 0 1 1 1s0 0 0 0h1a6 6 0 0 0 1 0 2 2 0 0 1 0 0 1 1 0 0 1 1 0h1l1 3m-17-64a1 1 0 1 0-1 0 1 1 0 0 0 1 0Zm-8-11h-1c-2 4-1 5-1 7a10 10 0 0 1 1 3 12 12 0 0 1-1 2 4 4 0 0 0 0 2 4 4 0 0 0 1 1h1m11-8a3 3 0 0 0-1-1 7 7 0 0 0-2-1 1 1 0 0 0-1 0 4 4 0 0 0-1 1v1h1a5 5 0 0 1 1 0 4 4 0 0 1 1 1 5 5 0 0 0 1 1 1 1 0 0 0 1-1 1 1 0 0 0 0-1 3 3 0 0 0 0 0Zm40 53 4 1v1a2 2 0 0 0 1 1 4 4 0 0 0 2 0 1 1 0 0 1 1 0 2 2 0 0 1 1 2"/><path fill="none" stroke="#000" stroke-linecap="round" stroke-linejoin="round" d="M430 717h-9a14 14 0 0 1 2 3v1a7 7 0 0 1 0 2 4 4 0 0 1 0 2 5 5 0 0 1-2 1c0 1 0 1 0 0a7 7 0 0 0 0-1 6 6 0 0 0 0-3l-4-5-3-1h-1a21 21 0 0 1-5-1 15 15 0 0 1-3-2 61 61 0 0 0-7-5 16 16 0 0 0-2-1 8 8 0 0 0-1 0 7 7 0 0 0-4 0m0-41 1 8a15 15 0 0 0 2 6 18 18 0 0 0 3 3 6 6 0 0 0 2 2 1 1 0 0 0 2-1 15 15 0 0 1 1-2 19 19 0 0 1 3-2 21 21 0 0 0 2-2 7 7 0 0 0 2-3 8 8 0 0 0 0-3m-32 13h1a3 3 0 0 0 0-1 2 2 0 0 1 1 0 2 2 0 0 1 1 1l1 1a7 7 0 0 1-1 3m96-36a12 12 0 0 1 0 3s0 0 0 0l1-1s0 0 0 0a6 6 0 0 1 0 1 4 4 0 0 0 1 2s1 1 2-1m-43 59a21 21 0 0 0 0 3 3 3 0 0 1 0 1 12 12 0 0 1-2 2 1 1 0 0 0 0 1 2 2 0 0 1 0 1 2 2 0 0 1-2 0l-2 1a14 14 0 0 0-2 0 7 7 0 0 0-1 1 5 5 0 0 0-2 1 6 6 0 0 0 0 2v1a3 3 0 0 0 3 1h2a6 6 0 0 0 1 0 6 6 0 0 0 1-1h1a5 5 0 0 1 1 1 2 2 0 0 0 1 0 7 7 0 0 0 2-1h0a5 5 0 0 0 2-1l2-2 2-1a3 3 0 0 0 1-1 13 13 0 0 0 0-1 6 6 0 0 1 1-2 2 2 0 0 1 2 0s0 0 0 0l-1 2 3-3a6 6 0 0 1 1-2 6 6 0 0 0 1-3 29 29 0 0 1 1-7"/><path fill="none" stroke="#000" stroke-linecap="round" stroke-linejoin="round" d="m396 707 1 4a4 4 0 0 1-1 2 4 4 0 0 1-1 1 4 4 0 0 1-2 0s0 0 0 0a5 5 0 0 0 2 0 2 2 0 0 0 1 0l1-1v2a18 18 0 0 0 1 3l1 3a21 21 0 0 1 0 3 13 13 0 0 1 0 2 10 10 0 0 0 0 1 9 9 0 0 0 1 2 2 2 0 0 1 0 1 7 7 0 0 1-1 1l-1 2a8 8 0 0 1-1 1 2 2 0 0 1-1 0l-1 1a5 5 0 0 0-2 0 2 2 0 0 0 0 1 3 3 0 0 0-1 0 6 6 0 0 0 0 2 5 5 0 0 0 0 1v1a2 2 0 0 1 1 0 6 6 0 0 1 1 1 2 2 0 0 0 0 0 3 3 0 0 0 1 0h3a2 2 0 0 1 1 0 9 9 0 0 1 1 0 1 1 0 0 0 1 0 6 6 0 0 0 1 0 2 2 0 0 0 1-1 2 2 0 0 0 0-1 3 3 0 0 1 0 0 4 4 0 0 1 1-1 4 4 0 0 1 1-1h2l1-1a19 19 0 0 0 1-3 11 11 0 0 0 0-2 27 27 0 0 1 1-4 26 26 0 0 1 1-4l2-2 1-5"/><path fill="none" stroke="#000" stroke-linecap="round" stroke-linejoin="round" d="m409 692-9 3h-1l-4 1h0l-2 1a7 7 0 0 1-2 0 7 7 0 0 1-2 0h-2l-3 2a12 12 0 0 0-2 3 4 4 0 0 0-1 2 2 2 0 0 0 0 1 1 1 0 0 0 1 0 2 2 0 0 0 2 2 6 6 0 0 0 2 0 4 4 0 0 1 1 0h4l1-2a1 1 0 0 0-1-1 1 1 0 0 0 0 0h-2a2 2 0 0 1-1 0v-1a1 1 0 0 0-1-1h-1a2 2 0 0 1-1 0h-3"/><path fill="none" stroke="#000" stroke-linecap="round" stroke-linejoin="round" d="M458 704a44 44 0 0 1-4 4l-1 1a29 29 0 0 1-4 3 24 24 0 0 1-7 3 48 48 0 0 1-5 1h-2l-5 1a7 7 0 0 0-5-2h-4a57 57 0 0 1-6-1 28 28 0 0 1-6-2 9 9 0 0 1-2-2v-1l1-1-1-1a21 21 0 0 1-3-1l1-2 2-1a1 1 0 0 0 0-2 13 13 0 0 0-2-2h-1l-1-1"/><path fill="none" stroke="#000" stroke-linecap="round" stroke-linejoin="round" d="m475 710-3-3 2 6a8 8 0 0 0 2 2 11 11 0 0 1-3-1l-1 1a9 9 0 0 0 1 1 14 14 0 0 1 0 1 17 17 0 0 1 1 2 4 4 0 0 1 0 2 5 5 0 0 1-1 2 10 10 0 0 0-1 1 6 6 0 0 0 0 2 4 4 0 0 0 0 1v1a2 2 0 0 1 0 1 3 3 0 0 1 0 1 34 34 0 0 1-2 3 9 9 0 0 1-2 2h0a1 1 0 0 1-1 1 9 9 0 0 1-2-1h-3a3 3 0 0 1 0 0l-1-1a2 2 0 0 0-1 0h-1s0 0 0 0a3 3 0 0 0-1-1h-1v-1l2-1a2 2 0 0 0 1-1l1-2a5 5 0 0 1 0-1 13 13 0 0 0-1-8l-1-3a11 11 0 0 0-1-3l-2-3a14 14 0 0 1-2-2"/><path fill="none" stroke="#000" stroke-linecap="round" stroke-linejoin="round" d="M395 696s0 0 0 0a15 15 0 0 0-2-5 7 7 0 0 0-2-2 3 3 0 0 0-2 0l-3 1a13 13 0 0 1-3 0l-2-1a3 3 0 0 1-1 0l-3-3a12 12 0 0 1 0-1l1-5 1-3a26 26 0 0 0-1-7 7 7 0 0 1-1-4 6 6 0 0 1 0-1 16 16 0 0 1 2-2 15 15 0 0 1 4-5 13 13 0 0 1 7-2 39 39 0 0 1 9 1l4 1a12 12 0 0 1 5 2l5 6a20 20 0 0 0 5 3 28 28 0 0 0 4 1 31 31 0 0 0 5 1 18 18 0 0 0 4 1 1 1 0 0 1 0 0 2 2 0 0 1-1 0 5 5 0 0 1-1 0 3 3 0 0 0-1 0 4 4 0 0 0 1 1 7 7 0 0 0 1 0 9 9 0 0 0 2 0h2l4-1h4l2-1h9l2-1a3 3 0 0 1 1 1 6 6 0 0 0 2 0 5 5 0 0 0 2 0 7 7 0 0 0 1-1l2-2 3-2a8 8 0 0 0 2-2 17 17 0 0 0 1-2 3 3 0 0 1 1-1 9 9 0 0 0 2-2 55 55 0 0 0 4-6l1-2a18 18 0 0 1 3 6 10 10 0 0 1 0 2 9 9 0 0 1 0 3 4 4 0 0 1-1 2 7 7 0 0 0-1 0 2 2 0 0 0 0 1v1a3 3 0 0 1 0 2 11 11 0 0 1-1 1 10 10 0 0 1-1 2 11 11 0 0 0 0 1l-1 2a16 16 0 0 0-2 2v4l2 10a9 9 0 0 1-1 5 22 22 0 0 0-1 5 30 30 0 0 0 0 5 6 6 0 0 0 1 3 10 10 0 0 0 1 2h1m-8 25a32 32 0 0 0-1 3 2 2 0 0 1 0 1 1 1 0 0 1-2 0 1 1 0 0 1 0 0 2 2 0 0 1 0-1 5 5 0 0 1-2 2 2 2 0 0 1-1 0 2 2 0 0 1-1-1 1 1 0 0 1 0 0v-1a3 3 0 0 1-3 1 1 1 0 0 1-1-1 1 1 0 0 1 0-1 2 2 0 0 1-1-1 1 1 0 0 1 0-1 1 1 0 0 1 0 0 5 5 0 0 0 0-1l1-1"/><path fill="none" stroke="#231f20" stroke-linecap="round" stroke-linejoin="round" d="m102 615-53 27 377 244 424-217-35-22"/><path fill="none" stroke="#000" stroke-linecap="round" stroke-linejoin="round" d="M49 516v-14m0-19v-9m0-15v-9m458-61-88-57v-69l88 57v69zm89-73v27l-146-95V133l120 78 26 17v88zm177 75 52 34v115l-147-95V330l95 61z"/><path fill="none" stroke="#000" stroke-linecap="round" stroke-linejoin="round" d="M773 403v27l-95-61-82-53-26-17V139l203 132v132zm107 32-88-57v-69l88 57v69zM729 592a66 66 0 0 0-9 4l-52 27-18 9-3 1a46 46 0 0 0-4 3 33 33 0 0 0-8 8c-4 6-5 12-3 18 3 8 9 13 16 17 5 4 11 8 18 11a77 77 0 0 0 14 4c18 4 40 3 57-6l52-27 18-9 3-2a48 48 0 0 0 5-3 33 33 0 0 0 7-8c4-5 5-11 3-18-3-9-11-13-18-18l-14-9a75 75 0 0 0-15-5c-16-3-34-2-49 3ZM495 439l2-1a90 90 0 0 1 20-3m161 134-55 28-22 12-4 2a74 74 0 0 1-9 3 95 95 0 0 1-48 0 72 72 0 0 1-11-4l-4-3-16-9-51-34-52-33c-5-4-10-7-14-12a20 20 0 0 1-3-13c0-10 9-18 17-22l19-11 35-18 24-12a75 75 0 0 1 11-4m182 80c8 6 19 12 20 25 0 8-4 15-10 19a49 49 0 0 1-9 6"/><path fill="none" stroke="#000" stroke-linecap="round" stroke-linejoin="round" d="M733 338c0-3 2-3 5-1a10 10 0 0 1 2 6c0 3-2 4-4 2a10 10 0 0 1-3-7Zm85 148-23-15v-37l23 15v37zm0 42-132-86v-35l132 86v35zM500 368l-21-14v-2l21 14v2zm-25-16-15-10v-2l15 10v2zm-17-11-9-6v-2l9 6v2zm-13-9-21-13v-2l21 13v2zm2-19-23-15v-2l23 15v2zm-13-2-10-6v-2l10 6v2zm26 10-9-6v-2l9 6v2zm30 20-26-17v-2l26 17v2zm4 0 8 5v2l-8-5v-2zm-32-11-24-16v-3l24 16v3zm10 6-6-4v-2l6 3v3zm9 6-6-4v-2l6 3v3zm19 12-15-10v-2l15 10v2zm-59-31-17-11v-2l17 11v2zm16 10-12-8v-2l12 8v2zm26 17-23-15v-2l23 15v2zm13 8-9-6v-2l9 6v2zm377 49-21-13v-3l21 14v2zm-25-16-15-10v-2l15 10v2zm-17-11-9-6v-2l9 6v2zm-12-7-21-14v-2l21 13v3zm1-20-23-15v-2l23 15v2zm9 19-9-6v-2l9 6v2zm4-11-9-6v-3l9 6v3zm30 19-26-17v-2l26 17v2zm4 0 8 5v3l-8-5v-3zm-32-11-25-16v-2l25 15v3zm9 6-5-4v-2l5 4v2zm10 6-6-4v-2l6 4v2zm19 12-15-10v-2l15 10v2zm-61-16-17-11v-3l17 11v3zm-8-23-12-7v-2l12 7v2zm52 35-23-14v-3l23 15v2zm13 9-10-6v-3l10 6v3zM537 247l15 9m-40-36h0l-9-19m34 46c0 13-9 13-18 5-5-5-10-15-10-23 0-5 1-7 3-9 4-3 10-2 15 4 6 5 10 15 10 23Z"/><path fill="none" stroke="#000" stroke-linecap="round" stroke-linejoin="round" d="M551 256c0 8-2 19-12 21-9 2-18-5-23-10a72 72 0 0 1-21-47c0-7 2-16 8-19a13 13 0 0 1 4-2c9-2 18 5 24 10 11 12 20 31 20 47Zm-49 71-78-50v-4l78 50v4zm271 72 46 30v5l-46-31-89-57v-5l89 58zm102-25-78-50v-5l78 50v5zm-274-75c0-3 2-3 5-1a10 10 0 0 1 2 6c0 3-2 3-4 1a10 10 0 0 1-3-6Zm0-23c0-3 2-4 5-2a10 10 0 0 1 2 7c0 3-2 3-4 1a10 10 0 0 1-3-6Zm0-23c0-4 2-4 5-2a10 10 0 0 1 2 7c0 3-2 3-4 1a10 10 0 0 1-3-6Zm37 70c0-3 3-3 5-1a10 10 0 0 1 3 6c0 4-3 4-5 2a10 10 0 0 1-3-7Zm0-23c0-3 3-3 5-1a10 10 0 0 1 3 6c0 4-3 4-5 2a10 10 0 0 1-3-7Zm0-69c0-3 3-4 5-2a10 10 0 0 1 3 7c0 3-3 3-5 1a10 10 0 0 1-3-6Zm0 46c0-3 3-3 5-1a10 10 0 0 1 3 6c0 3-3 4-5 1a10 10 0 0 1-3-6Zm0-23c0-3 3-3 5-1a10 10 0 0 1 3 6c0 3-3 3-5 1a10 10 0 0 1-3-6Zm0-46c0-4 3-4 5-2a10 10 0 0 1 3 7c0 3-3 3-5 1a10 10 0 0 1-3-6Zm76 72c0-4 2-4 5-2a10 10 0 0 1 2 7c0 3-2 3-4 1a10 10 0 0 1-3-6Zm0 46c0-3 2-3 5-1a10 10 0 0 1 2 6c0 3-2 3-4 1a10 10 0 0 1-3-6Zm0-23c0-3 2-4 5-1a10 10 0 0 1 2 6c0 3-2 3-4 1a10 10 0 0 1-3-6Zm19-11c0-3 2-4 5-1a10 10 0 0 1 2 6c0 3-2 3-4 1a10 10 0 0 1-3-6Zm0 23c0-3 2-3 5-1a10 10 0 0 1 2 6c0 3-2 4-4 1a10 10 0 0 1-3-6Zm-76-26c0-3 3-3 5-1a10 10 0 0 1 3 6c0 4-3 4-5 2a10 10 0 0 1-3-7Zm0 47c0-4 3-4 5-2a10 10 0 0 1 3 7c0 3-3 3-5 1a10 10 0 0 1-3-6Zm0-23c0-4 3-4 5-2a10 10 0 0 1 3 6c0 4-3 4-5 2a10 10 0 0 1-3-6Zm-37-2c0-3 2-3 4-1a10 10 0 0 1 3 6c0 3-2 4-5 2a10 10 0 0 1-2-7Zm0-23c0-3 2-3 4-1a10 10 0 0 1 3 6c0 3-2 4-5 1a10 10 0 0 1-2-6Zm0-69c0-4 2-4 4-2a10 10 0 0 1 3 7c0 3-2 3-5 1a10 10 0 0 1-2-6Zm0 46c0-3 2-4 4-1a10 10 0 0 1 3 6c0 3-2 3-5 1a10 10 0 0 1-2-6Zm0-23c0-4 2-4 4-2a10 10 0 0 1 3 7c0 3-2 3-5 1a10 10 0 0 1-2-6Zm-44-86v-5l191 124v4L576 156zm-6 61 21 13v5l-21-14-114-74v-5l114 75zm104 449a3 3 0 0 1 0 0m-2-1 2 1 3 2m97-21 9-5m-106 27-3-2m-2 1 5 3m98-62 8 5m-8-5 8 4m-1 0v1a1 1 0 0 1-1 0m1-1a1 1 0 0 1 1 1m-9-5a1 1 0 0 1 0 0s0 0 0 0a1 1 0 0 1 1 0"/><path fill="none" stroke="#000" stroke-linecap="round" stroke-linejoin="round" d="M774 609a1 1 0 0 1 1 0m-1 37h-1a2 2 0 0 1 1-2m0 0 9-4m0 0h1a2 2 0 0 1-1 2m0 0-9 4m11-7a1 1 0 0 1 0 1"/><path fill="none" stroke="#000" stroke-linecap="round" stroke-linejoin="round" d="M783 642a2 2 0 0 0 2-2m-94 41-33-22m125-20a1 1 0 0 1 2 0m-12 7a2 2 0 0 1 0 0m0 0 1-2m-1 2 1 1m-5-49 33 21m-28 25 9-5m-76 42c-4 3-11 3-16 0"/><path fill="none" stroke="#000" stroke-linecap="round" stroke-linejoin="round" d="M678 670a1 1 0 0 1 0 1 1 1 0 0 1 0 0m-23-18h0m151-27h0m-53-29c4-2 11-2 15 1m-109 47 94-48"/><path fill="none" stroke="#000" stroke-linecap="round" stroke-linejoin="round" d="m801 633-17 9-77 39m-49-22-4-5m152-27h0a8 8 0 0 1-5 6m-147 19c0-3 3-5 5-7m143-26a8 8 0 0 1 4 7m-129 45h1m103-57-7-5m-97 59 1 2m-8-4a2 2 0 0 1 0-1m0 0a1 1 0 0 1 2 0m-2 1a3 3 0 0 0 2 2m130-37 4-4m-6-8-33-21m39 28s0 0 0 0m-51-28-94 48m-1 7 33 21m12 1 94-49m-32-28c-4-2-9-2-12 0m0 0-2-1h0m-95 61a2 2 0 0 0 0 1 1 1 0 0 0 0 0m0-2a5 5 0 0 1 2-4m1-7c-3 1-4 5-1 7m1-7a2 2 0 0 0-2-1h0m19 26 13 8m-33-21 12 8m8 4 13 9m-33-22 12 8m21 16h0a2 2 0 0 1 0-2m2-5c4 2 9 2 12 1m80-35 17-8m0 0-1 1h0m-16 7 17-9m0 0a6 6 0 0 0-3-5m3-7h0a2 2 0 0 0-2 0m-1 7c3-1 4-4 1-7m-31-21a1 1 0 0 0-1 0h0a2 2 0 0 0-1 0m35 34v-1m-125 40h1m13 8h0m-19-11 2-1m109-54v1m-8-5h0m-67 71v-1m-15-5a5 5 0 0 0-2 5m17 0a6 6 0 0 0-3-4m3 4 65-33m-65 34-1 1h0s0 0 0 0m1-1 65-33m-82 32c4 3 12 3 17 0"/><path fill="none" stroke="#000" stroke-linecap="round" stroke-linejoin="round" d="M691 679c4 3 12 3 17 1m-54-27a4 4 0 0 0 1 1 6 6 0 0 0 3 4m0 0v-1m-4-4 4 4m144-25 4-5a4 4 0 0 0 0-1M509 497v-1h0m85 47 1 1 3 2 10 6m1 1a1 1 0 0 1-1 1m0-2 1 1m-1 1-4 2m0 0a4 4 0 0 1-4 0m0 0-14-9m0 0a2 2 0 0 1-1-1l1-2m0 0 3-1 1-1m0 0a4 4 0 0 1 4 1m-104-68v1l11 7 3 2m0 0 1 1a1 1 0 0 1-1 1m0 0-4 2m0 0a4 4 0 0 1-4-1m0 0-14-9m0 0a2 2 0 0 1-1-1l1-1m0 0 4-2m0 0a4 4 0 0 1 4 0m91 75v-1m0 1a1 1 0 0 1 0 0m1-1 2-1m0 0a2 2 0 0 1 2 0m0 0h0l5 3m0 0 1 1a1 1 0 0 1-1 1m0 0-2 1m0 0a2 2 0 0 1-2 0m0 0-6-4m6 4s0 0 0 0a1 1 0 0 1 0 1m0 0-3 1m0 0a2 2 0 0 1-2 0m1 0-6-3m0-1a1 1 0 0 1 0 0v-1m0 1 3-2m1 0a2 2 0 0 1 0 0m-1 0a2 2 0 0 1 1 0m9 6 6 3m0 0v1a1 1 0 0 1 0 0m0 0-3 2m0 0a2 2 0 0 1-2 0m0 0-6-4m0 0a1 1 0 0 1 0-1s0 0 0 0m1 0 2-2m0 0a2 2 0 0 1 2 0m-17-10 6 3m0 0v1a1 1 0 0 1 0 0m0 0-3 2m0 0a2 2 0 0 1-2 0m0 0-6-4m0 0a1 1 0 0 1 0-1s0 0 0 0m0 0h1l2-2m0 0a2 2 0 0 1 2 0m2-3s0 0 0 0a2 2 0 0 1-1 0 4 4 0 0 1-1 1m0 0-4 3m-1 0h-2m0 0-6-4m0 0a1 1 0 0 1 0 0v-1a4 4 0 0 1 1 0m0 0 4-2 1-1m0 0h3m0 0 5 3 1 1m-9-6v1a3 3 0 0 1-1 1m0 0-5 2m-9-35-6-4m0 0a1 1 0 0 1 0 0c-1-1 0-1 1-1m0 0 3-2 1-1m0 0h3m8 6 2 1 4 2m0 0v1a3 3 0 0 1-1 1m0 0-4 2m0 0h-3m0 0-5-3m0-1a1 1 0 0 1-1 0l1-1m0 0 5-2m0 0h2m8 5 3 2 2 1 1 1m0 0s0 0 0 0a3 3 0 0 1-1 1m0 0-4 2m0 0-2 1m0 0-6-4m0 0a1 1 0 0 1 0 0v-1a4 4 0 0 1 1-1m0 0 3-1 1-1m0 0h2m9 6 5 3h1m0 0v1a3 3 0 0 1-1 1m0 0-4 2m0 0h-3m0 0-6-4m0 0a1 1 0 0 1 0 0l1-1m0 0 5-2m-1 0h3m8 5 3 1 3 3m0 0s1 0 0 0a3 3 0 0 1-1 1m0 0-4 2m0 0-2 1m0 0-6-4m0 0a1 1 0 0 1 0 0c-1-1 0-1 1-1m0 0 4-3m0 0h2m9 6 2 1 4 2m0 0v1a3 3 0 0 1-1 1m0 0-4 2m0 0h-3m0 0-6-4m0 0a1 1 0 0 1 0 0l1-1m0 0 3-2h1m0 0h3m8 5 3 1 3 3m0 0s0 0 0 0a3 3 0 0 1-1 1m0 0-4 2m0 0-2 1m0 0-6-4m0 0a1 1 0 0 1 0 0c-1-1 0-1 1-2m0 0 3-1 1-1m0 0h2m9 5 2 2 3 2h1m0 0v1a3 3 0 0 1-1 1m0 0-4 2m-1 0h-2m0 0-6-4m0 0a1 1 0 0 1 0 0l1-1m0 0 3-2h1m0 0 3-1m8 6 6 4m0 0a1 1 0 0 1 0 0h0a3 3 0 0 1-1 1m0 0-4 2m0 0h-3m0 1-5-4m0 0a1 1 0 0 1-1 0l2-2m0 0 3-1 1-1m0 0h2m5-7 4 3 5 3m0 0v1a2 2 0 0 1-1 1m1 0-5 2m0 0a3 3 0 0 1-3 0m0 0-8-6m-1 0a1 1 0 0 1 0 0l1-2m0 0 4-2m0 0a3 3 0 0 1 3 0m-9-6 5 3 1 1m0 0v1a3 3 0 0 1-1 0m0 0-4 3m0 0h-3m0 0-6-4m0 0a1 1 0 0 1 0 0l1-1m0 0 5-2m0 0 2-1m-8-5 1 1 4 3m0 0c1 0 1 0 0 0a3 3 0 0 1-1 1m0 0-4 2m0 0h-2m0 0-6-3m0 0a1 1 0 0 1 0 0c-1-1 0-1 1-2m0 0 3-1 1-1m0 0h3m-9-6 1 1 5 3m0 0v1a3 3 0 0 1-1 0m0 0-4 3m0 0h-3m0 0-5-4m0 0a1 1 0 0 1-1 0l1-1m0 0 5-2m0 0 2-1m-8-5 5 4m0 0c1 0 1 0 0 0a3 3 0 0 1-1 1m0 0-4 2m0 0h-2m0 0-6-3m0 0a1 1 0 0 1 0 0l1-2m0 0 3-1 1-1m0 0h3m-9-6 1 1 5 3m0 0v1a3 3 0 0 1-1 1m0 0-4 2m0 0h-3m0 0-5-4m0 0a1 1 0 0 1 0 0l1-1m0 0 4-2m0 0 2-1m-8-5 3 2 2 2m0 0h1a3 3 0 0 1-2 1m1 0-5 2m0 0h-2m0 0-6-3m0 0a1 1 0 0 1 0 0l1-2m0 0 3-1 1-1m0 0h3m-9-6 3 2 3 2m0 0v1a3 3 0 0 1-1 0m0 1-4 2m0 0h-3m0 0-5-4m0 0a1 1 0 0 1-1 0l1-1m1 0 3-2h1m0 0 2-1m-8-5 2 2 3 2m1 0a3 3 0 0 1-1 1m0-1h1m-1 1-5 2m0 0h-2m0 1-6-4m0 0a1 1 0 0 1 0 0l1-2m0 0 3-1 1-1m0 0h3m-9-6 3 2 3 2m0 0v1a3 3 0 0 1-1 1m0 0-4 2m0 0h-3m0 0-5-4m0 0a1 1 0 0 1 0 0l1-1m0 0 4-2m0 0 2-1m-8-5 2 1 3 3m0 0h1a3 3 0 0 1-1 1m0 0-5 2m0 0h-2m0 1-6-4m0 0a1 1 0 0 1 0 0l1-2m0 0 3-1 1-1m0 0h3m-9-6 2 1 4 3m0 0v1a3 3 0 0 1-1 1m0 0-4 2m0 0h-2m0 0-6-4m0 0a1 1 0 0 1 0 0l1-1m0 0 4-2m0 0 2-1m-8-5 1 1 5 3m0 0s0 0 0 0a3 3 0 0 1-1 1m0 0-4 2m-1 0-2 1m0 0-6-4m0 0a1 1 0 0 1 0 0l1-2m0 0 3-1 1-1m0 0h3m-9-6 1 1 5 3m0 0v1a3 3 0 0 1-1 1m0 0-4 2m0 0h-2m0 0-6-4m0 0a1 1 0 0 1 0 0l1-1m0 0 4-2m0 0 2-1m6-2 6 4m0 0s0 0 0 0a1 1 0 0 1 0 1m0 0-3 1m0 0a2 2 0 0 1-1 0m0 0-6-4m-1-1h1m0 1a1 1 0 0 1-1-1m1 0 2-1m0 0a2 2 0 0 1 2 0m9 5 6 4m0 0v1a1 1 0 0 1 0 0m0 0-3 2m0-1a2 2 0 0 1-2 0m0 0-6-3m0-1v-1m0 2a1 1 0 0 1 0-1m0-1h2l1-1m0 0a2 2 0 0 1 2 0m8 6 6 4m0 0h1a1 1 0 0 1-1 1m0 0-2 1m0 0a2 2 0 0 1-2 0m0 0-6-4m0 0v-1m0 1a1 1 0 0 1 0 0m0-1 2-1h1m0 0a2 2 0 0 1 1 0m9 6 6 4m0 0h1a1 1 0 0 1-1 1m0 0-2 1m0 0a2 2 0 0 1-2 0m0 0-6-4m0 0v-1m0 1a1 1 0 0 1 0 0m0-1 3-1m-1 0a2 2 0 0 1 2 0m9 5 6 4m0 0v1a1 1 0 0 1 0 0m0 0-2 2m0 0a2 2 0 0 1-2 0m0 0-6-4m-1-1h1m0 1a1 1 0 0 1-1-1m1 0 1-1 1-1m0 0a2 2 0 0 1 2 0m9 6 6 4m0 0v1a1 1 0 0 1 0 0m0 0-3 1m0 0a2 2 0 0 1-1 0m0 0-6-4m-1 0 1-1m0 1a1 1 0 0 1-1 0m1-1h1l1-1m0 0a2 2 0 0 1 2 0m9 6 6 4m0 0s0 0 0 0a1 1 0 0 1-1 1m1 0-3 1m0 0a2 2 0 0 1-2 0m0 0-6-4m0 0v-1m0 1a1 1 0 0 1 0 0m0-1 2-1h1m0 0a2 2 0 0 1 2 0m8 6 6 3m0 0 1 1a1 1 0 0 1-1 0m0 0-2 2m0 0a2 2 0 0 1-2 0m0 0-6-4m0 0a1 1 0 0 1 0-1s0 0 0 0m0 0 2-1 1-1m0 0a2 2 0 0 1 1 1m9 5 6 4m0 0v1a1 1 0 0 1 0 0m0 0-2 1m0 0a2 2 0 0 1-2 0m0 0-6-4m-1 0 1-1m0 1a1 1 0 0 1-1 0m1-1h1l1-1m0 0a2 2 0 0 1 2 0m9 6 6 4m0 0s0 0 0 0a1 1 0 0 1 0 1m0 0-3 1m0 0a2 2 0 0 1-1 0m0 0-6-4m-1 0 1-1m-1 1a1 1 0 0 1 0 0m1-1 1-1h1m0 0a2 2 0 0 1 2 0m9 6 6 3m0 0v1a1 1 0 0 1-1 0m1 0-3 2m0 0a2 2 0 0 1-2 0m0 0-6-4m0-1s0 0 0 0m0 1a1 1 0 0 1 0-1m0 0 2-1h0l1-1m0 0a2 2 0 0 1 2 0m8 6 7 4m-1 0 1 1a1 1 0 0 1-1 0m0 0-2 1m0 0a2 2 0 0 1-2 0m0 0-6-4m0 0a1 1 0 0 1 0 0v-1m0 0h2l1-1m0 0a2 2 0 0 1 1 0m9 6 6 4m0 0h1a1 1 0 0 1-1 1m0 0-2 1m0 0a2 2 0 0 1-2 0m0 0-6-4m0 0v-1m0 1a1 1 0 0 1 0 0m0-1 1-1h1m0 0a2 2 0 0 1 2 0m9 6 6 4m0-1v1a1 1 0 0 1 0 0m0 1-2 1m-1 0a2 2 0 0 1-1 0m0 0-6-4m-1-1h1m0 1a1 1 0 0 1-1-1m1 0 1-1 1-1m0 0a2 2 0 0 1 2 1m15-6 3-3m-117-71-2 2m5-5v1l-3 2m117 72h0v-1m0 0-114-74m10 93v1l-33 16m-15-48 48 31m-82-14 34-17m15 48-48-31h-1m66-74 3-2h0m110 75-112-73h-1m120 70-4 2h0l-3 1m3 9-53 28m-78-113 131 85m-185-58 54-27m30 81-40-25h0l-3-2-7-5-3-2-6-4h0l-3-1-5-4h-1l-2-2-6-4h0l-3-2-5-3m97 63h0l-3-2-7-5-3-2m48 32-2-1-2-2-6-3-3-2-5-4h0l-3-2-6-3-2-2-6-4m-89-1h5m0 0v2m-5 0h5m0-2 19 13m-19-11 19 12m0-1v1l-1 1m6-44h0m-33 17 33-17m0 0 48 32m-44-99 10-6m-108 56 97-50m11-6a8 8 0 0 1 4 0 6 6 0 0 1 3 1m0 0 17 11m114 74 18 11m0 0 1 3a3 3 0 0 1-2 1m2 7-2 2m1-9-108 56m0 0a7 7 0 0 1-7-1m7 9a7 7 0 0 1-7 0m0-9-61-39m0 0h0v2m0 0-23-15m0 0v-2m0 0-65-42m0 0a3 3 0 0 1-1-2c-1-1 0-2 1-2m0 12a2 2 0 0 1-1-2m263 44-107 56m109-56-108 55"/><path fill="none" stroke="#000" stroke-linecap="round" stroke-linejoin="round" d="M561 605a4 4 0 0 1-4 0m-2-1-149-97m239 30-52 27m55-27h-3m-128-85 2 4m-51 26 51-26m0 0 126 81m23-120v114h0M523 323h0l145 94m-145 20V323m145 208-145-94m0 0h0m145 94-145-94m0 0V323m150 96v119m0 0a3 3 0 0 1 0 2 2 2 0 0 1-2 0m5-4-1 3M518 439h0a6 6 0 0 1-1-2m0 0V318m2-2a3 3 0 0 1 1 0m-3 2 2-2m2-2 3 1m-3 1 149 97m0 0a8 8 0 0 1 3 6m0-7a8 8 0 0 1 3 6M525 315l150 97m2 4v119m0-117v118M524 315l149 97m2 0a5 5 0 0 1 2 4m-68 137h0m-24-7h0v-1m-80-59h0v1m-24-8v-1h0m100 72h0m11 2h0v1m-5 1h0v1m-10-2h0v-1h0m19 8h0v1m-11-3v-1h0m-6-8h0v1m-11-3v-1h0m7-5h0v1m-15 0h0v-1h0m6-6v1h0m-17-1v-1h0m-63-51h0v1m-15 0h0v-1m23 6h0v1m-15 0h0v-1h0m24 5h0v1m-15 0h0v-1m25 7h0v1m-16-1v-1h0m10 8v-1h0m49 22h0v1m-42-39h0v1m-14 0v-1h0m22 6h0v1m9 4h0v1m-14 0v-1h0m22 6h0v1m-13-1v-1h0m22 6h0v1m-14-1h0m22 6h0m-14 0v-1h0m23 6h0v1m-14-1h0m22 6h0m-14 0v-1h0m22 6h0v1m-13-1h0m22 6h0m-14 0v-1h0m41 9h0m-14-10h0v1m-14-1v-1h0m5-5v1m-13 0v-1h0m5-5h0v1m-14-1v-1h0m5-5v1h0m-13 0v-1h0m5-5h0v1m-14-1v-1h0m5-5v1h0m-13 0v-1h0m5-5h0v1m-14-1h0v-1m5-5v1h0m-13 0v-1h0m5-5h0v1m-14-1h0m5-6v1h0m-13 0v-1h0m5-5h0m-14 0h0m5-5h0m7-6h0v1m-18-4h0v-1m26 9h0v1m-13 0v-1h0m22 6h0v1m-14-1v-1h0m23 6h0v1m-14 0v-1h0m22 6h0v1m-14-1v-1h0m22 6h0v1m-13 0v-1h0m22 6h0v1m-14-1v-1h0m22 6h0v1m-13-1h0m22 6h0m-14 0v-1h0m22 6h0v1m-13 0v-1h0m22 6h0m-14 0v-1h0m22 6h0v1m-13-1h0m22 6h0m-14 0v-1h0m22 6h0v1m-14-1h0m22-4h0v1m-17-4h0v-1m5-5v1h0m-14 0v-1h0m5-5h0v1m-13-1h0v-1m5-5v1h0m-14 0v-1h0m5-5h0v1m-13-1h0v-1m5-4h0m-13 0v-1h0m5-5h0v1m-14-1h0m5-5h0m-14 0v-1h0m6-5h0v1m-14-1h0m5-5h0m-13 0v-1h0m5-5h0v1m-14-1h0m5-5h0m-13 0v-1h0m5-5h0v1m-14-1h0m5-5h0m-13 0v-1h0m19-2h0v1m-11-3v-1h0m20 9h0v1m-11-3v-1h0m20 8h0v1m-11-2v-1h0m20 8h0v1m-11-3h0m19 8h0v1m-11-3v-1h0m20 9h0m-11-3h0m20 8h0v1m-11-2v-1h0m20 8h0m-11-2v-1h0m19 9h0m-11-2v-1h0m20 8h0v1m-11-3h0m20 8h0m-11-2v-1h0m20 9h0m-11-2v-1h0m20 8h0v1m-11-2v-1h0m19 8h0v1m-11-3v-1h0m42 4v9m-266-42v-8h0m152 108-1-1"/><path fill="none" stroke="#000" stroke-linecap="round" stroke-linejoin="round" d="m675 539-2 1h-1M518 316h1l2-2m39 225h-3m0 0-7-4m0 0a1 1 0 0 1-1 0l2-2m0 0 5-2m0-1h3m0 0 6 4 1 1m-86-56 2 2 4 2m0 0s0 0 0 0a2 2 0 0 1 0 1 4 4 0 0 1-1 1m0 0-5 2m0 0-3 1m0 0-6-4m0 0a1 1 0 0 1 0 0v-1a4 4 0 0 1 1-1m0 0 5-2m0 0 3-1m8 6 6 4m0-1v1a2 2 0 0 1 0 0 4 4 0 0 1-1 1m0 0-5 3m0 0h-3m0 0-5-4m0 0a1 1 0 0 1-1 0l1-1a4 4 0 0 1 1 0m0 0 4-2 1-1m0 0h2m9 5 6 4m0 0s0 0 0 0a2 2 0 0 1-1 1 4 4 0 0 1 0 0m0 0-5 3m0 0h-3m0 1-6-4m0 0a1 1 0 0 1 0 0v-1a4 4 0 0 1 1-1m0 0 4-2h1m0 0 3-1m9 6h0l7 5m0 0s0 0 0 0a3 3 0 0 1-1 1m0 0-5 3m0 0h-3m0 0-7-4m0-1a1 1 0 0 1 0 0l1-1m0 0 5-3m0 0h3m1 11a1 1 0 0 1 0 0v-1"/><path fill="none" stroke="#000" stroke-linecap="round" stroke-linejoin="round" d="m507 506 5-2 2-1m0 0a2 2 0 0 1 2 0m0 0 7 4 8 5 9 6 8 5 8 5m0 0v1a1 1 0 0 1-1 0m0 0-6 4m-1 0a2 2 0 0 1-1 0m0 0-40-26m1-20 2 2 4 2m0 0s0 0 0 0a3 3 0 0 1-1 1m0 0-5 2m0 0-2 1m0 0-6-4m0 0a1 1 0 0 1 0 0l1-1m0 0 3-2 1-1m0 0h3m8 6 3 1 3 2m0 0v1a3 3 0 0 1-1 1m0 0-4 2m0 0h-3m0 0-5-4m0 0a1 1 0 0 1 0 0l1-1m0 0 3-2h1m0 0h2m9 5 2 2 3 2m0 0h1a3 3 0 0 1-1 1m0 0-5 2m0 0-2 1m0 0-6-4m0 0a1 1 0 0 1 0 0l1-1m0 0 3-2 1-1m0 0h3m8 6 3 1 3 2m0 0v1a3 3 0 0 1-1 1m0 0-4 2m0 0h-3m0 0-5-4m0 0a1 1 0 0 1 0 0l1-1m0 0 4-2m0 0h2m9 5 2 2 3 2m0 0h1a3 3 0 0 1-2 1m1 0-5 2m0 0-2 1m0 0-6-4m0 0a1 1 0 0 1 0 0l1-1m0 0 3-2 1-1m0 0h3m8 6 3 1 3 2m0 0v1a3 3 0 0 1-1 1m0 0-4 2m0 0h-3m0 0-5-4m0 0a1 1 0 0 1-1 0l1-1m0 0 4-2h1m0 0h2m9 5 2 2 3 2m0 0h1a3 3 0 0 1-1 1m0 0-5 2m0 0-2 1m0 0-6-4m0 0a1 1 0 0 1 0 0l1-1m0 0 3-2 1-1m0 0h3m8 5 2 2 4 2m0 0v1a3 3 0 0 1-1 1m0 0-4 2m0 0h-3m0 0-5-4m0 0a1 1 0 0 1-1 0l1-1m0 0 4-2h1m0 0 2-1m9 6 2 2 3 2m0 0c1 0 1 0 0 0a3 3 0 0 1-1 1m0 0-4 2m0 0-2 1m0 0-6-4m0 0a1 1 0 0 1 0 0c-1-1 0-1 1-2m0 0 3-1 1-1m0 0h3m8 5 2 2 4 2m0 0v1a3 3 0 0 1-1 1m0 0-4 2m0 0h-3m0 0-5-4m-1 0a1 1 0 0 1 0 0l1-1m0 0 4-2h1m0 0 2-1m22 5 4 2 7 5m0 0v1a1 1 0 0 1-1 0m0 0-4 3m0 0a3 3 0 0 1-3-1m0 1-10-7m-1 0 1-2m0 0 3-2h1m0 0a3 3 0 0 1 3 0m-9-6 4 3h2m0 0v1a3 3 0 0 1-1 1m0 0-4 2m-1 0h-2m0 0-6-3m0 0a1 1 0 0 1 0-1l1-1m0 0 3-1 1-1m0 0h3m-9-6 5 3 1 1m0 0-1 1m0 0-4 3m0-1-2 1m0 0-6-4m0 0a1 1 0 0 1 0 0c-1-1 0-1 1-1m0 0 3-2h1m0 0 2-1m-8-5 5 3h1m0 0v1a3 3 0 0 1-1 1m0 0-4 2m0 0h-3m0 0-6-3m0 0a1 1 0 0 1 0-1l1-1m0 0 4-2m0 0h3m-9-6 5 3 1 1m0 0v1a3 3 0 0 1-1 0m0 0-4 3m0-1-2 1m0 0-6-4m0 0a1 1 0 0 1 0 0c-1-1 0-1 1-1m0 0 3-2h1m0 0 2-1m-8-5 4 3h2m0 0v1a3 3 0 0 1-1 1m0 0-4 2m0 0h-3m0 0-6-3m0 0a1 1 0 0 1 0-1l1-1m0 0 3-1 1-1m0 0h3m-8-6 5 4m0 0v1a3 3 0 0 1-1 0m0 0-4 3m0 0h-2m0 0-6-4m0 0a1 1 0 0 1 0 0l1-1m0 0 4-2m0 0 3-1m-9-5 5 3 1 1m0 0s0 0 0 0a3 3 0 0 1-1 1m0 0-4 2m0 0h-3m0 0-5-3m-1 0a1 1 0 0 1 0 0l1-2m0 0 4-1 1-1m0 0h2m-8-6 4 3 1 1m0 0v1a3 3 0 0 1-1 0m0 0-4 3m0 0h-2m0 0-6-4m0 0a1 1 0 0 1 0 0l1-1m0 0 3-2h1m0 0 3-1m-9-5 5 3 1 1m0 0s0 0 0 0a3 3 0 0 1-1 1m0 0-4 2m0 0h-3m0 1-5-4m0 0a1 1 0 0 1-1 0l1-2m1 0 4-2m0 0h2m-8-6 4 3 1 1m0 0v1a3 3 0 0 1-1 0m0 0-4 3m0 0h-2m0 0-6-4m0 0a1 1 0 0 1 0 0l1-1m0 0 3-2h1m0 0 3-1m-9-5 5 3 1 1m0 0s0 0 0 0a3 3 0 0 1-1 1m0 0-4 2m0 0h-3m0 0-5-3m0 0a1 1 0 0 1-1 0l1-2m0 0 4-1 1-1m0 0h2m-14-9h1l9 6 1 1m0 0v1a1 1 0 0 1 0 1m0 0-5 2m0 0a3 3 0 0 1-3 0m0 0-10-7m-1 0 1-2m0 0 4-2m0 0a3 3 0 0 1 3 0m8-5 10 6m-1 0 1 1a2 2 0 0 1-1 1m0 0-4 2m0 0a3 3 0 0 1-3 0m0 0-9-6m0 0a1 1 0 0 1-1 0l1-2m0 0 4-2m0 0a3 3 0 0 1 3 0m13 8 2 2 2 1 1 1m0 0c1 0 1 0 0 0a3 3 0 0 1-1 1m0 0-4 2m0 0-2 1m0 0-6-4m0 0a1 1 0 0 1 0 0c-1-1 0-1 1-1m0 0 3-2 1-1m0 0h3m8 6 2 1 4 2m0 0v1a3 3 0 0 1-1 1m0 0-4 2m0 0h-3m0 0-5-3m0-1a1 1 0 0 1-1 0l1-1m1 0 4-2m0 0h2m9 5 2 2 3 2m0 0h1a3 3 0 0 1-1 1m0 0-5 2m0 0-2 1m0 0-6-4m0 0a1 1 0 0 1 0 0l1-1m0 0 3-2 1-1m0 0h3m8 6 2 1h0l4 2m0 0v1a3 3 0 0 1-1 1m0 0-4 2m0 0h-3m0 0-5-4m0 0a1 1 0 0 1-1 0l1-1m0 0 4-2h1m0 0h2m9 5 2 2 3 2m0 0c1 0 1 0 0 0a3 3 0 0 1-1 1m0 0-4 2m0 0-2 1m9 35v1m58-3v1m-61 1v1m32 2v1m-57-61h0m53 62v1m-2 11v1m-1-13v1m2 11v1m-7-17v1m10 14v1m2-2v1m2-2v1m-55-76v1m-54 0v1m134 69v1m-84-70v1m80 71v1m-116-65v1m113 63v1m-79-73v1m69 64v1m-99-57v1m24-14v1m-20 10v1m82 59v1m14 8h0m2-16v1m2 15v1m-6-15v1m10 11v1m-13-13v1m-67-71v1m61 66h0m-65-65v1m-3 0v1m72 58v1m-78-64h0m74 66v1m-2-1v1m-6-5h0m-62-66v1m66 61v1m-70-61v1m66 61v1m-3-1v1m-65-63h0m59 59h0m-65-63v1m69 57v1m-4 2v1m-2-1v1m-44-63v1m38 57h0m-41-57v1m-1-1v1m46 52v1m-52-58v1m48 58v1m-3-1v1m-6-4h0m-20-48v1m24 42v1m-27-42v1m23 43v1m-2-1v1m-23-46v1m17 40v1m-23-45v1m27 39v1m-4 1v1m-3-1v1m-1-35v1m-4 30h0m2-30v1m-2-1v1m3 24v1m-9-30v1m5 31v1m-2-1v1m-6-5v1m22-20v1m-18 14v1m16-15v1m-20 15v1m-3 0v1m21-18v1m-26 12h0m20-17v1m-17 11v1m-4 2v1m-2-1v1m42-8v1m-48 2v1m46-2v1m-2-1v1m-40-4v1m34-2v1m-38 2v1m-3-1v2m-5-5h0m65 8v1m-61-13v1m58 12v1m-63-12h0m-3 0v1m65 10v1m-75-19v1m69 13v1m-45-16v1m-4 1v1m-3-1v1m71 21v1m-80-29v1m77 28v1m-2-1v1m-51-21v1m45 15v1m-49-15v1m-2 0v1m-6-5h0m76 25v1m-55-19v1m53 19v1m-57-19v1m-3-1v1m58 17v1m-63-22h0m57 17v1m-36-12v1m-5 1v1m-2 0v1m62 15v1m-68-21h0m66 21v1m-2-1v1m-43-15v1m37 9v1m-41-9v1m-3-1v1m-5-5v1m68 20v1m-48-15v1m45 14v1m-49-14v1m-2 0v1m50 11v1m-56-17h0m50 12v1m-29-6v1m-4 1v1m-3-1v1m55 10v1m-60-15h0m57 16v1m-2-1v1m-35-11v1m29 5h0m-33-4v1m-2 0v1m-6-5h0m60 15v1m-39-9v1m37 8v1m-41-8v1m-3-1v1m42 6v1m-48-12v1m42 6v1m-21-1v1m-4 1v1m-2 0v1m46 5v1m-52-11h0m50 11v1m-2-1v1m-27-5v1m21-1v1m-25 1v1m-3-1v1m-6-5v1m53 10v1m-32-5v1m30 4v1m-34-4v1m-2 0v1m34 1v1m-40-7h0m34 2v1m-13 4v1m-4 1v1m-3-1v1m-6-5v1m21 6v1m-4 1v1m-3 0v1m-5-5h0m21-3h0m-5 2v1m-3-1v1m-76-9h0m71-3v1m-136-48v1m132 49v1m-137-49v1m-3 0h0m137 47v1m-143-52v1m137 46v1m62 8v9m-177-59v1m-5 2v1m-3-1v1m127 33v1m-132-39v1m82 106v8m46-75v1m-2-1v1m-51 65v9m-53-109v2m98 29h0m-103-28v1m-3 0h0m-6-4h0m116 26v2m-92-21v1m88 21v1m-93-20v1m-101-7v8m98-2v1m93 18v1m-100-24h0m95 19v1m-85-14v1m55 96-1 1m107-56h2m-75-33v1m-40 12v1m-6 3v1m42-16v1m-44 14h0m42-15v1m-76-27v1m70 22h0m-75-21v1m-2 0v1m-6-5h0m87 20v1m-66-14v1m62 14v1m-66-14v1m-3-1v1m66 12v1m-71-18v1m66 12v1m-45-7v1m143-85 4-1m-152 87v1m-2 0v1m56-2v1m-62-4h0m156 36 4-2m-103-29v1m-2-1v2m-34 0v1m28-6h0m-32 7v1m-3-1v1m-5-5v1m-5-192 3-1m46 185v1m-23 13v1m19-13v1m-24 13v1m128-104 3-1M540 517v1m23-16v1m-29 10h0m24-15v1m-3 21v1m-4 1v1m126-107v2M548 522v1m14-29v1m-19 23v1m134 16v1m-120-40v1m-33-182h1m30 182v1m9 27v1m-15-33h0m10 34v1m-2 0v1m118-117h-2M551 524h0m14 13v1m-5 3v1h0m6 3v1m-13-57v1m16 55v1m3-15v1m-23-41v1m19 41v1m5 8v1m-8-10v1m-19-43v1m14 37v1m8 17v1m-27-61v1m33 63h0m2 0v1m3-3v1m1-14v1m5 21v1m-9-21v1m15 23h0m-17-23v1m-29-57v1m23 51h0m25 27v1m-53-78v1m56 74v1m-58-75v1m39 66h0m-450-5 4 29h3l-5-29a504 504 0 0 0-4-20c-4-20-9-35-15-46a131 131 0 0 0-24-32 111 111 0 0 0-17-14 140 140 0 0 0-19-11c-8-4-17-8-49-15v22c0 4 1 5 2 6l4 1a66 66 0 0 0 9-1l10-2 6-1a4 4 0 0 1 3 3 3 3 0 0 1-1 4l-8 2a61 61 0 0 1-9 2H4c2 14 3 15 4 16a9 9 0 0 0 7 2l10-4 10-5 8-4 5-1a5 5 0 0 1 1 0 4 4 0 0 1 3 3 5 5 0 0 1-2 5 8 8 0 0 1-1 1 42 42 0 0 1-7 3l-11 5a45 45 0 0 1-9 2h-7l-3 1v4a47 47 0 0 0 3 8c2 3 3 4 5 4l8-1a104 104 0 0 0 15-7l6-4h0l4-3c3-2 6-3 8-2a3 3 0 0 1 2 3c0 2-2 5-6 7a57 57 0 0 1-8 4l-9 3a86 86 0 0 1-20 5 51 51 0 0 0 14 21 3 3 0 0 0 4 0 20 20 0 0 0 5-4 89 89 0 0 0 9-9l8-11a63 63 0 0 1 6-6l4-3a4 4 0 0 1 4 1l1 6c0 3-1 6-4 10a64 64 0 0 1-10 12 47 47 0 0 1-10 7l-2 1-4 2c-1 1-2 1 0 3a49 49 0 0 0 9 4 30 30 0 0 0 11 2 13 13 0 0 0 9-3 25 25 0 0 0 6-10l2-11a18 18 0 0 1 2-6 6 6 0 0 1 3-3 7 7 0 0 1 5 0c2 1 2 2 2 4a31 31 0 0 1-2 10 49 49 0 0 1-6 10 32 32 0 0 1-4 5l-1 2a14 14 0 0 0 6 0 29 29 0 0 0 9-4 17 17 0 0 0 6-7 24 24 0 0 0 3-9 22 22 0 0 0-1-7l-2-5-1-4a14 14 0 0 1-1-3l2-1a8 8 0 0 1 4 2 29 29 0 0 1 6 7c2 3 4 7 7 17a233 233 0 0 1 7 29l1 8Zm121-8-67 34h0m314-135h0l-22-15-167 86m6-83h3v-2m-4 2h1"/><path fill="none" stroke="#000" stroke-linecap="round" stroke-linejoin="round" d="m271 441 1-2a120 120 0 0 0 6-11h0a7 7 0 0 0 1-4l-1-11 2-9a22 22 0 0 1 5-6 14 14 0 0 1 5-3 18 18 0 0 1 7 0 33 33 0 0 1 7 1 36 36 0 0 1 4 2 10 10 0 0 0 4 1 34 34 0 0 1 3 0 18 18 0 0 1 7 3 8 8 0 0 1 3 4 3 3 0 0 1-1 4 5 5 0 0 1-5 1l-1 14a14 14 0 0 1-1 1v10h-4l-1 2h0m49 82h0a5 5 0 0 0-1 0M260 625a19 19 0 0 0 7 8m94-112h0-1a2 2 0 0 0 0 0 2 2 0 0 0 0 0h0"/><path fill="none" stroke="#000" stroke-linecap="round" stroke-linejoin="round" d="M306 437a13 13 0 0 0 1 4 5 5 0 0 0 1 1 3 3 0 0 1 0 1 1 1 0 0 1 1 0s0 0 0 0h0s0 0 0 0v-1"/><path fill="none" stroke="#000" stroke-linecap="round" stroke-linejoin="round" d="M294 448a26 26 0 0 0-2-9c3-1 3-1 3-3l4-8h3l1 7 1 2 1-1h1a15 15 0 0 1 3-1 21 21 0 0 1 3 1"/><path fill="none" stroke="#000" stroke-linecap="round" stroke-linejoin="round" d="M308 443s0 0 0 0a4 4 0 0 0-1 1 6 6 0 0 0 0 1s0 0 0 0a2 2 0 0 1-1 1 2 2 0 0 1 0 0h-3l-5-2h-1l-3 4s0 0 0 0l-1 1m-28-5 1-6a1 1 0 0 1 0-1m28 213a72 72 0 0 0 10 1m-2-182a20 20 0 0 1 0 3l1 12 2 8-1 9 2 8v1l2 11m-22-70 7 7 5 5a15 15 0 0 1 4 6m17 267a2 2 0 0 0 1 0 3 3 0 0 0 1-2 7 7 0 0 0 0-2 2 2 0 0 0-1-1 4 4 0 0 0-1-1 4 4 0 0 0-1 0 17 17 0 0 0-3 0h-3a18 18 0 0 1-2-1 16 16 0 0 1-2 0h-1l-12-8"/><path fill="none" stroke="#000" stroke-linecap="round" stroke-linejoin="round" d="M298 738h3a43 43 0 0 0 6 1 34 34 0 0 0 6-1l5-1a7 7 0 0 0 1-1m-43-14a51 51 0 0 0-2 5 46 46 0 0 0-1 5v1l-1 1a12 12 0 0 0 0 3c3 2 6 2 10 3a49 49 0 0 0 8 0v-2a52 52 0 0 1 8 0m42-206 7 1a6 6 0 0 0 2 0 5 5 0 0 1 1 0 13 13 0 0 0 2 0 3 3 0 0 0 1 0 2 2 0 0 0 1-1 2 2 0 0 0 0-1m-37-107-2-1m-56 39q-1 9 1 14m56-52-2-1m-2 4h0l2 1a2 2 0 0 0 1-1m-58 59c-2 15-1 19 1 24a78 78 0 0 0 8 15c4 6 9 12 20 21m73-21a17 17 0 0 0 1 2 4 4 0 0 0 3 1h0m-50 49a3 3 0 0 0 0-2v-4l-1-9a42 42 0 0 1 0-6 29 29 0 0 0 0-5l-1-12m49-14h0l1 1h0a4 4 0 0 0 1 0v1h1m-46-103-1-1m-38 5c5 0 6-1 7-2a5 5 0 0 0 1 0 8 8 0 0 0 2-2 13 13 0 0 1 1-3 7 7 0 0 1 3-2m5 3a3 3 0 0 1-2 1 1 1 0 0 0-1 0 1 1 0 0 0 1 1 2 2 0 0 0 1 1"/><path fill="none" stroke="#000" stroke-linecap="round" stroke-linejoin="round" d="m284 725 1 5a24 24 0 0 0 6 0 2 2 0 0 0 1-1v-6m25-299-1-1m-3 13a4 4 0 0 1-1 0h0v-1a2 2 0 0 1 0-1 3 3 0 0 1 1-1m-7 4 6 2v-1h0-3a15 15 0 0 1-2-1 4 4 0 0 1-1 0 1 1 0 0 0 0 0h0a1 1 0 0 0 0 0 2 2 0 0 0 0 0 9 9 0 0 0 2 4l1 1m10-31-6-2a3 3 0 0 0-1 0 2 2 0 0 0-1 0v2c-1 6-2 7-3 8a38 38 0 0 1-3 2c-1 1-3 2-3 7m-7 111q5 15 4 28m61-42h1a3 3 0 0 0 0-1 1 1 0 0 0 0-1 8 8 0 0 0-2-1h0a5 5 0 0 0-1-1 16 16 0 0 0-3 0 8 8 0 0 1-2-1l-2-1a5 5 0 0 0-1 0h-10m17 6h2a7 7 0 0 0 1 0m-63-104-3-2a2 2 0 0 0-1 2 7 7 0 0 0-1 3 10 10 0 0 0 0 2 3 3 0 0 0 1 2 2 2 0 0 0 2 0m-51 288h0c-1 4 1 5 1 5a5 5 0 0 0 3 1 2 2 0 0 0 2 0v-6m27 7h0a105 105 0 0 0-2 12m22-316 3 4a30 30 0 0 1-1 5m30 91a18 18 0 0 1 1 10 48 48 0 0 1-2 7m-17 41v-2"/><path fill="none" stroke="#000" stroke-linecap="round" stroke-linejoin="round" d="M277 598a29 29 0 0 1 1 6l2 14 2 18v1l1 4a2 2 0 0 0-1 2 11 11 0 0 0 1 1 7 7 0 0 1 0 3 4 4 0 0 1-1 2 5 5 0 0 0-1 2v1a11 11 0 0 1-1 2 3 3 0 0 0 0 1 6 6 0 0 1 0 2 41 41 0 0 0-2 7l-1 22a51 51 0 0 0 0 10 15 15 0 0 1 0 3l-1 5v9a18 18 0 0 0 0 4 10 10 0 0 1-1 2 3 3 0 0 0 0 3 2 2 0 0 0 1 0 5 5 0 0 0 1 1 17 17 0 0 0 4 1 21 21 0 0 0 3 1 16 16 0 0 0 2 0 12 12 0 0 0 4-1 16 16 0 0 0 2-1l2-1a7 7 0 0 0 1-2 2 2 0 0 0 1 0 4 4 0 0 0 0-2v-1a37 37 0 0 1-1-4 10 10 0 0 1 0-3l1-3a7 7 0 0 0 0-3l-1-3a7 7 0 0 1 0-3l2-9 3-14 1-10v-4a18 18 0 0 1 0-2l1-4 1-4h1a6 6 0 0 1 0-2 22 22 0 0 0 3-4 8 8 0 0 0 0-3s0 0 0 0a25 25 0 0 1 1-3 17 17 0 0 0 0-3 24 24 0 0 1 0-3l1-6v-8l2-10 1-16a77 77 0 0 0 0-9l-1-7m-44-1q3 11 5 13a35 35 0 0 1 5 9s0 0 0 0m-3 36v10m-43 81a13 13 0 0 1 2 0q5 1 13 6"/><path fill="none" stroke="#000" stroke-linecap="round" stroke-linejoin="round" d="M281 571h14v24a2 2 0 0 1-1 3l-10 1a42 42 0 0 1-7-1h0m28-78 3 1 13-1 7-1h12v1a6 6 0 0 1 1 2 35 35 0 0 1-1 8 21 21 0 0 1 0 3h0a14 14 0 0 1-1 2l-2 1h-9a16 16 0 0 0-2 1l-4 1a28 28 0 0 1-5 1h-6 0-6a41 41 0 0 1-6 1 42 42 0 0 1-7-1 38 38 0 0 1-4-1 7 7 0 0 1-3-2l-2-3a50 50 0 0 1-3-10l-2-12-2-8a69 69 0 0 1-1-10v-27m40-42-1-1m47 97v-1h1a17 17 0 0 1 2 0 62 62 0 0 1 8 0h8a17 17 0 0 1 2 0s0 0 0 0l-2 9-2 3s0 0 0 0h-12 0-1l-1-3h-1v-1a18 18 0 0 1-2-6v-1Zm-45-96-1-1m-25 315a60 60 0 0 1-15-3l-3-1m21-275s0 0 0 0a7 7 0 0 1 0-2 14 14 0 0 1 2-4l1-1-1-2-2-1a26 26 0 0 0-5-4 24 24 0 0 0-7-2l-6-1-2-1a14 14 0 0 1-2 0 12 12 0 0 1-5-4l6 2m42-15-1-1m-16-2v-2a2 2 0 0 0-2-1 3 3 0 0 0-3 1 7 7 0 0 0-1 4 8 8 0 0 0 0 3 7 7 0 0 0 1 2 4 4 0 0 0 2 1 2 2 0 0 0 1 0 3 3 0 0 0 2-1m-39 164 8 3v-1l-1-4-1-5-1-8"/><path fill="none" stroke="#000" stroke-linecap="round" stroke-linejoin="round" d="M252 551a83 83 0 0 1 1 14 27 27 0 0 0 0 6 18 18 0 0 0 2 4 7 7 0 0 0 0 1 3 3 0 0 0 2 1 26 26 0 0 0 6 0h0l4-1a28 28 0 0 0 3-1 63 63 0 0 0 8-3l3-1a56 56 0 0 1 6-3 26 26 0 0 1 9-1 13 13 0 0 1 3 0 23 23 0 0 1 5 2 27 27 0 0 1 7 6s0 0 0 0a12 12 0 0 1 2 2h-2 0m-66-92a130 130 0 0 0 2 23l1 14 2 15 1 8 1 6s0 0 0 0m62-127-1-1"/><path fill="none" stroke="#000" stroke-linecap="round" stroke-linejoin="round" d="M252 551h0l-4-11-8-26a7 7 0 0 1 0-2v-13a43 43 0 0 1 0-8l2-12 1-8a38 38 0 0 1 0-6 21 21 0 0 1 2-5 56 56 0 0 1 3-7 28 28 0 0 1 5-6c2-2 5-3 12-3a41 41 0 0 0 15 6 24 24 0 0 1 6 1h0a24 24 0 0 1 4 3l3 3"/><path fill="none" stroke="#000" stroke-linecap="round" stroke-linejoin="round" d="M302 469h0c-3-4-6-4-8-4a17 17 0 0 0-6 3 13 13 0 0 0-4 5 38 38 0 0 0-5 12m-27-24c-1 10 0 28 3 40m4 56c14-4 26-1 34 2m2 89 8-1m-27 72c5 3 7 3 9 3a16 16 0 0 0 6-1l5-3h0m-43-3a1 1 0 0 0 0 0 5 5 0 0 0 1-2 4 4 0 0 0 0-1 25 25 0 0 0 0-3 34 34 0 0 1 0-4 23 23 0 0 1 0-4 25 25 0 0 1 2-4 21 21 0 0 0 2-6l1-8a18 18 0 0 1 1-6l2-5 2-6a19 19 0 0 1 3-5l3-5a6 6 0 0 0 1-2 2 2 0 0 1 1-2l3-3a4 4 0 0 0 2-2v-1a11 11 0 0 1 2-2l3-8m-26 3-1 1a17 17 0 0 0-2 1 3 3 0 0 0-1 2 8 8 0 0 1 0 2l-2 4a67 67 0 0 0-4 9l-3 10-2 9-1 7-2 9-2 7-1 6-1 4h0a9 9 0 0 0 0 2 2 2 0 0 0 0 1l1 1h1a12 12 0 0 0 2 1 24 24 0 0 0 4 1h5a15 15 0 0 0 3 0 9 9 0 0 0 1 0 3 3 0 0 0 2-1m2-139 3 10a5 5 0 0 1 0 2v4a14 14 0 0 0 1 3l1 5v14a53 53 0 0 1-1 6 21 21 0 0 0 0 3l1 2a13 13 0 0 1 0 2 4 4 0 0 1-1 1 4 4 0 0 0 0 2 7 7 0 0 1 0 2 7 7 0 0 1-1 2 8 8 0 0 0-1 1 9 9 0 0 0-1 2 7 7 0 0 1 0 1 2 2 0 0 1-1 1m-5 93c8 1 15 2 23 0m43-308-1-1m-17 315h0c2 2 4 2 8 2s9-1 13-4h0m-53-10 3 3m21-74 9-2m-45-115c7 5 17 4 22 4m-20 97h0a91 91 0 0 0 9 1"/><path fill="none" stroke="#000" stroke-linecap="round" stroke-linejoin="round" d="M234 712c-3 6-3 9-3 10v3s0 0 0 0v1l-1 1v1l15 5 1-2 4 1a27 27 0 0 0 6 2 46 46 0 0 0 6 0 41 41 0 0 0 4 0 31 31 0 0 0 5-1h2m41-298h-1s0 0 0 0a4 4 0 0 1 1 0 2 2 0 0 1 1 0s0 0 0 0h0-1Zm-19 209q8 0 12-2m-73 68a18 18 0 0 0 7 4 23 23 0 0 0 5 0 25 25 0 0 0 4 0 11 11 0 0 0 4-1m54 16 3 5m4-310-2-1m4 1-2-1m40 102h2l1 1a1 1 0 0 1 0 1 3 3 0 0 1-1 2 2 2 0 0 1-1 0 28 28 0 0 1-6-1m1-4a13 13 0 0 1 4 1M253 715h0l7 9a6 6 0 0 0 4 1l2 1h6a19 19 0 0 1 2 1m81-202h0a46 46 0 0 1 5 0h0m-9-6h2a19 19 0 0 0 4 1 11 11 0 0 0 1-1 3 3 0 0 1 2 0 1 1 0 0 1 0 0 1 1 0 0 1 0 1 1 1 0 0 1 0 0 2 2 0 0 1 0 1l-1 1"/><path fill="none" stroke="#000" stroke-linecap="round" stroke-linejoin="round" d="M348 531a19 19 0 0 0 5 0h1a2 2 0 0 0 1 0 3 3 0 0 0 1-1 1 1 0 0 0 0-1M233 725h0l3-11m493-122-42-28"/><text fill="#231f20" font-family="MyriadPro-Regular, Myriad Pro" font-size="12" transform="rotate(32 -420 1146)">&lt;h1&gt; Hello <tspan x="58.3" y="0" letter-spacing="0em">w</tspan><tspan x="67" y="0">o</tspan><tspan x="73.6" y="0" letter-spacing="0em">r</tspan><tspan x="77.6" y="0">ld! &lt;/h1&gt;</tspan></text></svg>